M48
; DRILL file {KiCad (5.1.9)-1} date 10/08/21 19:18:41
; FORMAT={-:-/ absolute / inch / decimal}
; #@! TF.CreationDate,2021-10-08T19:18:41+02:00
; #@! TF.GenerationSoftware,Kicad,Pcbnew,(5.1.9)-1
; #@! TF.FileFunction,Plated,1,2,PTH
FMAT,2
INCH
T1C0.0118
T2C0.0157
T3C0.0295
T4C0.0315
T5C0.0394
%
G90
G05
T1
X4.6223Y-4.8956
X4.6262Y-4.8562
X4.6695Y-4.8523
X4.6932Y-4.9389
X4.7522Y-4.9389
X4.7719Y-5.0727
X4.9018Y-4.7972
X4.9451Y-4.7972
X5.0436Y-4.6682
X5.0475Y-4.4704
X5.0632Y-5.0137
X5.0803Y-4.6682
X5.1023Y-4.5321
X5.1337Y-4.5299
X5.142Y-4.6712
X5.1459Y-4.7932
X5.1853Y-4.5757
X5.2116Y-4.5505
X5.2483Y-4.6436
X5.2494Y-4.5896
X5.3861Y-4.6633
T2
X3.142Y-5.1554
X3.1735Y-5.3523
X3.2129Y-4.9428
X3.3073Y-5.4743
X3.4136Y-4.8798
X3.4688Y-4.7302
X3.4845Y-5.3444
X3.5436Y-4.9625
X3.5593Y-4.6082
X3.5593Y-5.1318
X3.5987Y-5.4861
X3.6144Y-5.2578
X3.6223Y-4.8838
X3.6656Y-4.6869
X3.7168Y-4.5334
X3.7601Y-4.7775
X3.8467Y-4.6279
X3.8467Y-5.4664
X3.8979Y-4.4507
X3.9018Y-4.8011
X3.9373Y-5.1515
X4.0081Y-4.8956
X4.0199Y-5.1476
X4.0357Y-4.6357
X4.0593Y-4.4822
X4.0869Y-4.7775
X4.0987Y-4.8759
X4.142Y-5.4664
X4.2444Y-4.9586
X4.2719Y-5.0806
X4.3782Y-4.931
X4.4491Y-4.5531
X4.4491Y-4.7972
X4.4648Y-5.3641
X4.4766Y-5.1042
X4.4845Y-4.9546
X4.5475Y-4.8326
X4.5514Y-4.5531
X4.5711Y-5.4546
X4.5751Y-5.2617
X4.7089Y-5.3562
X4.7129Y-5.1003
X4.7404Y-4.4901
X4.7444Y-5.0294
X4.7955Y-5.2853
X4.7955Y-5.4074
X4.8073Y-5.1712
X4.8388Y-5.5176
X4.8428Y-4.4901
X4.8625Y-4.9664
X4.9569Y-5.0609
X5.016Y-4.9625
X5.0239Y-5.1161
X5.0396Y-4.8326
X5.0475Y-4.8916
X5.1026Y-4.9625
X5.1184Y-5.4507
X5.1262Y-5.5176
X5.2365Y-4.8287
X5.2404Y-5.0137
X5.2522Y-5.1909
X5.3073Y-4.8287
X5.3073Y-5.3641
X5.3467Y-5.4901
X5.3782Y-5.4901
X5.3821Y-4.8326
X5.3861Y-4.9507
X5.4097Y-5.4901
X5.4373Y-4.9468
X5.4451Y-4.8405
X5.4727Y-4.8995
X5.5711Y-4.9822
X5.6144Y-4.4231
X5.6302Y-5.0806
X5.6774Y-4.9546
X5.6814Y-5.4664
X5.6814Y-5.4979
X5.6814Y-5.5294
X5.7089Y-5.0176
X5.7522Y-5.179
X5.827Y-5.1003
X5.8467Y-5.2342
X5.9924Y-5.1318
X6.0199Y-5.242
X6.1932Y-5.5137
X6.201Y-4.9468
X6.201Y-5.3483
X6.3979Y-4.9231
X6.4373Y-4.9822
X6.4569Y-5.1476
X6.4688Y-5.2617
T3
X5.7183Y-4.5581
X5.764Y-4.494
X5.7824Y-4.6038
X5.8281Y-4.5397
X5.8465Y-4.6496
X5.8922Y-4.5855
X5.9106Y-4.6953
X5.9563Y-4.6312
X5.9747Y-4.741
X6.0204Y-4.6769
X6.0388Y-4.7867
X6.0846Y-4.7226
X6.1029Y-4.8325
X6.1487Y-4.7684
T4
X4.1932Y-4.4381
X4.1932Y-4.7381
X4.2932Y-4.4381
X4.2932Y-4.7381
X4.3932Y-4.4381
X4.3932Y-4.7381
X4.4932Y-4.4381
X4.4932Y-4.7381
X4.5932Y-4.4381
X4.5932Y-4.7381
X4.6932Y-4.4381
X4.6932Y-4.7381
X4.7932Y-4.4381
X4.7932Y-4.7381
X4.8932Y-4.4381
X4.8932Y-4.7381
X4.9932Y-4.4381
X4.9932Y-4.7381
X5.0932Y-4.4381
X5.0932Y-4.7381
X5.1932Y-4.4381
X5.1932Y-4.7381
X5.2932Y-4.4381
X5.2932Y-4.7381
X5.3932Y-4.4381
X5.3932Y-4.7381
X5.4932Y-4.4381
X5.4932Y-4.7381
T5
X4.9058Y-5.2342
X4.9058Y-5.3342
X4.9058Y-5.4342
X5.0058Y-5.2342
X5.0058Y-5.3342
X5.0058Y-5.4342
X5.1538Y-5.0633
X5.1538Y-5.1633
X5.1538Y-5.2633
T0
M30
