%TF.GenerationSoftware,KiCad,Pcbnew,(5.1.9)-1*%
%TF.CreationDate,2021-10-08T19:18:35+02:00*%
%TF.ProjectId,multi_steering_kenwood_K24MSWK1MA,6d756c74-695f-4737-9465-6572696e675f,rev?*%
%TF.SameCoordinates,Original*%
%TF.FileFunction,Legend,Top*%
%TF.FilePolarity,Positive*%
%FSLAX46Y46*%
G04 Gerber Fmt 4.6, Leading zero omitted, Abs format (unit mm)*
G04 Created by KiCad (PCBNEW (5.1.9)-1) date 2021-10-08 19:18:35*
%MOMM*%
%LPD*%
G01*
G04 APERTURE LIST*
%ADD10C,0.150000*%
%ADD11C,0.120000*%
G04 APERTURE END LIST*
D10*
X160073166Y-134800180D02*
X160073166Y-133800180D01*
X160073166Y-134276371D02*
X160644595Y-134276371D01*
X160644595Y-134800180D02*
X160644595Y-133800180D01*
X161311261Y-133800180D02*
X161501738Y-133800180D01*
X161596976Y-133847800D01*
X161692214Y-133943038D01*
X161739833Y-134133514D01*
X161739833Y-134466847D01*
X161692214Y-134657323D01*
X161596976Y-134752561D01*
X161501738Y-134800180D01*
X161311261Y-134800180D01*
X161216023Y-134752561D01*
X161120785Y-134657323D01*
X161073166Y-134466847D01*
X161073166Y-134133514D01*
X161120785Y-133943038D01*
X161216023Y-133847800D01*
X161311261Y-133800180D01*
X162739833Y-134800180D02*
X162406500Y-134323990D01*
X162168404Y-134800180D02*
X162168404Y-133800180D01*
X162549357Y-133800180D01*
X162644595Y-133847800D01*
X162692214Y-133895419D01*
X162739833Y-133990657D01*
X162739833Y-134133514D01*
X162692214Y-134228752D01*
X162644595Y-134276371D01*
X162549357Y-134323990D01*
X162168404Y-134323990D01*
X163168404Y-134800180D02*
X163168404Y-133800180D01*
X163739833Y-134800180D01*
X163739833Y-133800180D01*
X102416023Y-138700180D02*
X102416023Y-137700180D01*
X102749357Y-138414466D01*
X103082690Y-137700180D01*
X103082690Y-138700180D01*
X103558880Y-137700180D02*
X103558880Y-138509704D01*
X103606500Y-138604942D01*
X103654119Y-138652561D01*
X103749357Y-138700180D01*
X103939833Y-138700180D01*
X104035071Y-138652561D01*
X104082690Y-138604942D01*
X104130309Y-138509704D01*
X104130309Y-137700180D01*
X104463642Y-137700180D02*
X105035071Y-137700180D01*
X104749357Y-138700180D02*
X104749357Y-137700180D01*
X105368404Y-138176371D02*
X105701738Y-138176371D01*
X105844595Y-138700180D02*
X105368404Y-138700180D01*
X105368404Y-137700180D01*
X105844595Y-137700180D01*
X95135071Y-138700180D02*
X94801738Y-138223990D01*
X94563642Y-138700180D02*
X94563642Y-137700180D01*
X94944595Y-137700180D01*
X95039833Y-137747800D01*
X95087452Y-137795419D01*
X95135071Y-137890657D01*
X95135071Y-138033514D01*
X95087452Y-138128752D01*
X95039833Y-138176371D01*
X94944595Y-138223990D01*
X94563642Y-138223990D01*
X95563642Y-138176371D02*
X95896976Y-138176371D01*
X96039833Y-138700180D02*
X95563642Y-138700180D01*
X95563642Y-137700180D01*
X96039833Y-137700180D01*
X96468404Y-138700180D02*
X96468404Y-137700180D01*
X96801738Y-138414466D01*
X97135071Y-137700180D01*
X97135071Y-138700180D01*
X97801738Y-137700180D02*
X97992214Y-137700180D01*
X98087452Y-137747800D01*
X98182690Y-137843038D01*
X98230309Y-138033514D01*
X98230309Y-138366847D01*
X98182690Y-138557323D01*
X98087452Y-138652561D01*
X97992214Y-138700180D01*
X97801738Y-138700180D01*
X97706500Y-138652561D01*
X97611261Y-138557323D01*
X97563642Y-138366847D01*
X97563642Y-138033514D01*
X97611261Y-137843038D01*
X97706500Y-137747800D01*
X97801738Y-137700180D01*
X98516023Y-137700180D02*
X99087452Y-137700180D01*
X98801738Y-138700180D02*
X98801738Y-137700180D01*
X99420785Y-138176371D02*
X99754119Y-138176371D01*
X99896976Y-138700180D02*
X99420785Y-138700180D01*
X99420785Y-137700180D01*
X99896976Y-137700180D01*
D11*
X139306500Y-137147800D02*
X139706500Y-137247800D01*
X139606500Y-137647800D02*
X139706500Y-137247800D01*
X139706500Y-137247800D02*
X139606500Y-137647800D01*
X138806500Y-137847800D02*
X139706500Y-137247800D01*
%TO.C,R14*%
X104247080Y-126257800D02*
X103965920Y-126257800D01*
X104247080Y-125237800D02*
X103965920Y-125237800D01*
%TO.C,R13*%
X97747080Y-126157800D02*
X97465920Y-126157800D01*
X97747080Y-125137800D02*
X97465920Y-125137800D01*
%TO.C,X1*%
X155804011Y-119484868D02*
X156194786Y-119763606D01*
X153411515Y-122839024D02*
X153802290Y-123117761D01*
X154175780Y-118323462D02*
X154566555Y-118602200D01*
X151783284Y-121677618D02*
X152174059Y-121956356D01*
X152547549Y-117162056D02*
X152938324Y-117440794D01*
X150155053Y-120516212D02*
X150545828Y-120794950D01*
X150919318Y-116000650D02*
X151310093Y-116279388D01*
X148526822Y-119354806D02*
X148917597Y-119633544D01*
X149291087Y-114839244D02*
X149681862Y-115117982D01*
X146898591Y-118193400D02*
X147289366Y-118472138D01*
X147662856Y-113677839D02*
X148053631Y-113956576D01*
X145270360Y-117031994D02*
X145661135Y-117310732D01*
X157432242Y-120646274D02*
X157676477Y-120820485D01*
X155039746Y-124000430D02*
X155283980Y-124174641D01*
X146181166Y-112620959D02*
X146425400Y-112795170D01*
X143788669Y-115975115D02*
X144032904Y-116149326D01*
X143304122Y-117171041D02*
X144032904Y-116149326D01*
X155283980Y-124174641D02*
X157676477Y-120820485D01*
X143788669Y-115975115D02*
X146181166Y-112620959D01*
%TO.C,C9*%
X137047080Y-124857800D02*
X136765920Y-124857800D01*
X137047080Y-123837800D02*
X136765920Y-123837800D01*
%TO.C,C8*%
X119165920Y-123837800D02*
X119447080Y-123837800D01*
X119165920Y-124857800D02*
X119447080Y-124857800D01*
%TO.C,Y1*%
X134006500Y-121797800D02*
X121406500Y-121797800D01*
X121406500Y-121797800D02*
X121406500Y-126897800D01*
X121406500Y-126897800D02*
X134006500Y-126897800D01*
%TO.C,X14*%
X129576500Y-135017800D02*
X132236500Y-135017800D01*
X129576500Y-129877800D02*
X129576500Y-135017800D01*
X132236500Y-129877800D02*
X132236500Y-135017800D01*
X129576500Y-129877800D02*
X132236500Y-129877800D01*
X129576500Y-128607800D02*
X129576500Y-127277800D01*
X129576500Y-127277800D02*
X130906500Y-127277800D01*
%TO.C,X5*%
X146068335Y-112555429D02*
X143629382Y-115974715D01*
X143629382Y-115974715D02*
X155352646Y-124336837D01*
X155352646Y-124336837D02*
X157791598Y-120917552D01*
X157791598Y-120917552D02*
X146068335Y-112555429D01*
X144090649Y-113847079D02*
X144790788Y-114346484D01*
X157214191Y-123208011D02*
X156514052Y-122708606D01*
X143626086Y-114498371D02*
X144326226Y-114997776D01*
X156749629Y-123859303D02*
X156049489Y-123359899D01*
X148538182Y-113690707D02*
X148242023Y-114105906D01*
X147772913Y-113144847D02*
X147476754Y-113560045D01*
X155914068Y-118951876D02*
X155617910Y-119367075D01*
X156679337Y-119497737D02*
X156383178Y-119912936D01*
X145506912Y-117940390D02*
X145803071Y-117525191D01*
X144285739Y-117069336D02*
X144581897Y-116654137D01*
X152882799Y-123201559D02*
X153178957Y-122786360D01*
X154103972Y-124072614D02*
X154400131Y-123657415D01*
X145664354Y-111640826D02*
X142633084Y-115890509D01*
X142633084Y-115890509D02*
X155756627Y-125251441D01*
X155756627Y-125251441D02*
X158787896Y-121001758D01*
X158787896Y-121001758D02*
X145664354Y-111640826D01*
X144566599Y-112835411D02*
X143903919Y-112731224D01*
X143903919Y-112731224D02*
X144252341Y-112242755D01*
X144252341Y-112242755D02*
X144566599Y-112835411D01*
%TO.C,U2*%
X105176500Y-117537800D02*
X105176500Y-119187800D01*
X105176500Y-119187800D02*
X140856500Y-119187800D01*
X140856500Y-119187800D02*
X140856500Y-113887800D01*
X140856500Y-113887800D02*
X105176500Y-113887800D01*
X105176500Y-113887800D02*
X105176500Y-115537800D01*
X105116500Y-121677800D02*
X140916500Y-121677800D01*
X140916500Y-121677800D02*
X140916500Y-111397800D01*
X140916500Y-111397800D02*
X105116500Y-111397800D01*
X105116500Y-111397800D02*
X105116500Y-121677800D01*
X105176500Y-115537800D02*
G75*
G02*
X105176500Y-117537800I0J-1000000D01*
G01*
%TO.C,U1*%
X149436500Y-133797800D02*
X147936500Y-133797800D01*
X147936500Y-133797800D02*
X147936500Y-134067800D01*
X147936500Y-134067800D02*
X145106500Y-134067800D01*
X149436500Y-140697800D02*
X147936500Y-140697800D01*
X147936500Y-140697800D02*
X147936500Y-140427800D01*
X147936500Y-140427800D02*
X146836500Y-140427800D01*
%TO.C,RV1*%
X139479436Y-128512800D02*
X139933564Y-128512800D01*
X139479436Y-129982800D02*
X139933564Y-129982800D01*
%TO.C,R12*%
X117816500Y-127320736D02*
X117816500Y-128774864D01*
X115996500Y-127320736D02*
X115996500Y-128774864D01*
%TO.C,R4*%
X99996500Y-128474864D02*
X99996500Y-127020736D01*
X101816500Y-128474864D02*
X101816500Y-127020736D01*
%TO.C,R3*%
X93596500Y-128474864D02*
X93596500Y-127020736D01*
X95416500Y-128474864D02*
X95416500Y-127020736D01*
%TO.C,R2*%
X142447080Y-139357800D02*
X142165920Y-139357800D01*
X142447080Y-138337800D02*
X142165920Y-138337800D01*
%TO.C,R1*%
X136033564Y-129957800D02*
X134579436Y-129957800D01*
X136033564Y-128137800D02*
X134579436Y-128137800D01*
%TO.C,Q3*%
X109726500Y-129007800D02*
X110656500Y-129007800D01*
X112886500Y-129007800D02*
X111956500Y-129007800D01*
X112886500Y-129007800D02*
X112886500Y-126847800D01*
X109726500Y-129007800D02*
X109726500Y-127547800D01*
%TO.C,Q2*%
X102526500Y-129207800D02*
X103456500Y-129207800D01*
X105686500Y-129207800D02*
X104756500Y-129207800D01*
X105686500Y-129207800D02*
X105686500Y-127047800D01*
X102526500Y-129207800D02*
X102526500Y-127747800D01*
%TO.C,Q1*%
X96026500Y-129107800D02*
X96956500Y-129107800D01*
X99186500Y-129107800D02*
X98256500Y-129107800D01*
X99186500Y-129107800D02*
X99186500Y-126947800D01*
X96026500Y-129107800D02*
X96026500Y-127647800D01*
%TO.C,J4*%
X123276500Y-139357800D02*
X128476500Y-139357800D01*
X123276500Y-134217800D02*
X123276500Y-139357800D01*
X128476500Y-131617800D02*
X128476500Y-139357800D01*
X123276500Y-134217800D02*
X125876500Y-134217800D01*
X125876500Y-134217800D02*
X125876500Y-131617800D01*
X125876500Y-131617800D02*
X128476500Y-131617800D01*
X123276500Y-132947800D02*
X123276500Y-131617800D01*
X123276500Y-131617800D02*
X124606500Y-131617800D01*
%TO.C,D1*%
X135756500Y-137147800D02*
X139056500Y-137147800D01*
X139056500Y-137147800D02*
X139056500Y-131747800D01*
X135756500Y-137147800D02*
X135756500Y-131747800D01*
%TO.C,C22*%
X142747080Y-120757800D02*
X142465920Y-120757800D01*
X142747080Y-119737800D02*
X142465920Y-119737800D01*
%TO.C,C21*%
X142747080Y-123757800D02*
X142465920Y-123757800D01*
X142747080Y-122737800D02*
X142465920Y-122737800D01*
%TO.C,C20*%
X147316500Y-122907220D02*
X147316500Y-123188380D01*
X146296500Y-122907220D02*
X146296500Y-123188380D01*
%TO.C,C19*%
X148616500Y-125907220D02*
X148616500Y-126188380D01*
X147596500Y-125907220D02*
X147596500Y-126188380D01*
%TO.C,C18*%
X150447080Y-125457800D02*
X150165920Y-125457800D01*
X150447080Y-124437800D02*
X150165920Y-124437800D01*
%TO.C,C17*%
X152865920Y-127737800D02*
X153147080Y-127737800D01*
X152865920Y-128757800D02*
X153147080Y-128757800D01*
%TO.C,C16*%
X159565920Y-122837800D02*
X159847080Y-122837800D01*
X159565920Y-123857800D02*
X159847080Y-123857800D01*
%TO.C,C15*%
X153665920Y-126137800D02*
X153947080Y-126137800D01*
X153665920Y-127157800D02*
X153947080Y-127157800D01*
%TO.C,C14*%
X150447080Y-126957800D02*
X150165920Y-126957800D01*
X150447080Y-125937800D02*
X150165920Y-125937800D01*
%TO.C,C13*%
X147116500Y-125907220D02*
X147116500Y-126188380D01*
X146096500Y-125907220D02*
X146096500Y-126188380D01*
%TO.C,C12*%
X145816500Y-122907220D02*
X145816500Y-123188380D01*
X144796500Y-122907220D02*
X144796500Y-123188380D01*
%TO.C,C11*%
X142747080Y-122257800D02*
X142465920Y-122257800D01*
X142747080Y-121237800D02*
X142465920Y-121237800D01*
%TO.C,C10*%
X142747080Y-119257800D02*
X142465920Y-119257800D01*
X142747080Y-118237800D02*
X142465920Y-118237800D01*
%TO.C,C5*%
X142447080Y-140857800D02*
X142165920Y-140857800D01*
X142447080Y-139837800D02*
X142165920Y-139837800D01*
%TO.C,C4*%
X140471500Y-133009052D02*
X140471500Y-132486548D01*
X141941500Y-133009052D02*
X141941500Y-132486548D01*
%TO.C,C3*%
X144041500Y-135986548D02*
X144041500Y-136509052D01*
X142571500Y-135986548D02*
X142571500Y-136509052D01*
%TO.C,C2*%
X141941500Y-135986548D02*
X141941500Y-136509052D01*
X140471500Y-135986548D02*
X140471500Y-136509052D01*
%TO.C,C1*%
X142571500Y-133009052D02*
X142571500Y-132486548D01*
X144041500Y-133009052D02*
X144041500Y-132486548D01*
%TO.C,BZ1*%
X120056500Y-137647800D02*
X120056500Y-133647800D01*
X113706500Y-139997800D02*
X117706500Y-139997800D01*
X111356500Y-133647800D02*
X111356500Y-137647800D01*
X117706500Y-131297800D02*
X113706500Y-131297800D01*
%TO.C,R14*%
D10*
X103463642Y-124800180D02*
X103130309Y-124323990D01*
X102892214Y-124800180D02*
X102892214Y-123800180D01*
X103273166Y-123800180D01*
X103368404Y-123847800D01*
X103416023Y-123895419D01*
X103463642Y-123990657D01*
X103463642Y-124133514D01*
X103416023Y-124228752D01*
X103368404Y-124276371D01*
X103273166Y-124323990D01*
X102892214Y-124323990D01*
X104416023Y-124800180D02*
X103844595Y-124800180D01*
X104130309Y-124800180D02*
X104130309Y-123800180D01*
X104035071Y-123943038D01*
X103939833Y-124038276D01*
X103844595Y-124085895D01*
X105273166Y-124133514D02*
X105273166Y-124800180D01*
X105035071Y-123752561D02*
X104796976Y-124466847D01*
X105416023Y-124466847D01*
%TO.C,R13*%
X97063642Y-124700180D02*
X96730309Y-124223990D01*
X96492214Y-124700180D02*
X96492214Y-123700180D01*
X96873166Y-123700180D01*
X96968404Y-123747800D01*
X97016023Y-123795419D01*
X97063642Y-123890657D01*
X97063642Y-124033514D01*
X97016023Y-124128752D01*
X96968404Y-124176371D01*
X96873166Y-124223990D01*
X96492214Y-124223990D01*
X98016023Y-124700180D02*
X97444595Y-124700180D01*
X97730309Y-124700180D02*
X97730309Y-123700180D01*
X97635071Y-123843038D01*
X97539833Y-123938276D01*
X97444595Y-123985895D01*
X98349357Y-123700180D02*
X98968404Y-123700180D01*
X98635071Y-124081133D01*
X98777928Y-124081133D01*
X98873166Y-124128752D01*
X98920785Y-124176371D01*
X98968404Y-124271609D01*
X98968404Y-124509704D01*
X98920785Y-124604942D01*
X98873166Y-124652561D01*
X98777928Y-124700180D01*
X98492214Y-124700180D01*
X98396976Y-124652561D01*
X98349357Y-124604942D01*
%TO.C,X1*%
X142565458Y-112731881D02*
X142527498Y-113933132D01*
X143108201Y-113119017D02*
X141984755Y-113545997D01*
X143264079Y-114458530D02*
X142798870Y-114126700D01*
X143031475Y-114292615D02*
X143612178Y-113478500D01*
X143451685Y-113539497D01*
X143318845Y-113561726D01*
X143213658Y-113545189D01*
%TO.C,C9*%
X136739833Y-126134942D02*
X136692214Y-126182561D01*
X136549357Y-126230180D01*
X136454119Y-126230180D01*
X136311261Y-126182561D01*
X136216023Y-126087323D01*
X136168404Y-125992085D01*
X136120785Y-125801609D01*
X136120785Y-125658752D01*
X136168404Y-125468276D01*
X136216023Y-125373038D01*
X136311261Y-125277800D01*
X136454119Y-125230180D01*
X136549357Y-125230180D01*
X136692214Y-125277800D01*
X136739833Y-125325419D01*
X137216023Y-126230180D02*
X137406500Y-126230180D01*
X137501738Y-126182561D01*
X137549357Y-126134942D01*
X137644595Y-125992085D01*
X137692214Y-125801609D01*
X137692214Y-125420657D01*
X137644595Y-125325419D01*
X137596976Y-125277800D01*
X137501738Y-125230180D01*
X137311261Y-125230180D01*
X137216023Y-125277800D01*
X137168404Y-125325419D01*
X137120785Y-125420657D01*
X137120785Y-125658752D01*
X137168404Y-125753990D01*
X137216023Y-125801609D01*
X137311261Y-125849228D01*
X137501738Y-125849228D01*
X137596976Y-125801609D01*
X137644595Y-125753990D01*
X137692214Y-125658752D01*
%TO.C,C8*%
X119139833Y-123274942D02*
X119092214Y-123322561D01*
X118949357Y-123370180D01*
X118854119Y-123370180D01*
X118711261Y-123322561D01*
X118616023Y-123227323D01*
X118568404Y-123132085D01*
X118520785Y-122941609D01*
X118520785Y-122798752D01*
X118568404Y-122608276D01*
X118616023Y-122513038D01*
X118711261Y-122417800D01*
X118854119Y-122370180D01*
X118949357Y-122370180D01*
X119092214Y-122417800D01*
X119139833Y-122465419D01*
X119711261Y-122798752D02*
X119616023Y-122751133D01*
X119568404Y-122703514D01*
X119520785Y-122608276D01*
X119520785Y-122560657D01*
X119568404Y-122465419D01*
X119616023Y-122417800D01*
X119711261Y-122370180D01*
X119901738Y-122370180D01*
X119996976Y-122417800D01*
X120044595Y-122465419D01*
X120092214Y-122560657D01*
X120092214Y-122608276D01*
X120044595Y-122703514D01*
X119996976Y-122751133D01*
X119901738Y-122798752D01*
X119711261Y-122798752D01*
X119616023Y-122846371D01*
X119568404Y-122893990D01*
X119520785Y-122989228D01*
X119520785Y-123179704D01*
X119568404Y-123274942D01*
X119616023Y-123322561D01*
X119711261Y-123370180D01*
X119901738Y-123370180D01*
X119996976Y-123322561D01*
X120044595Y-123274942D01*
X120092214Y-123179704D01*
X120092214Y-122989228D01*
X120044595Y-122893990D01*
X119996976Y-122846371D01*
X119901738Y-122798752D01*
%TO.C,Y1*%
X126930309Y-127823990D02*
X126930309Y-128300180D01*
X126596976Y-127300180D02*
X126930309Y-127823990D01*
X127263642Y-127300180D01*
X128120785Y-128300180D02*
X127549357Y-128300180D01*
X127835071Y-128300180D02*
X127835071Y-127300180D01*
X127739833Y-127443038D01*
X127644595Y-127538276D01*
X127549357Y-127585895D01*
%TO.C,X14*%
X129620785Y-135400180D02*
X130287452Y-136400180D01*
X130287452Y-135400180D02*
X129620785Y-136400180D01*
X131192214Y-136400180D02*
X130620785Y-136400180D01*
X130906500Y-136400180D02*
X130906500Y-135400180D01*
X130811261Y-135543038D01*
X130716023Y-135638276D01*
X130620785Y-135685895D01*
X132049357Y-135733514D02*
X132049357Y-136400180D01*
X131811261Y-135352561D02*
X131573166Y-136066847D01*
X132192214Y-136066847D01*
%TO.C,X5*%
X141765458Y-113831881D02*
X141727498Y-115033132D01*
X142308201Y-114219017D02*
X141184755Y-114645997D01*
X143006015Y-114716762D02*
X142618341Y-114440237D01*
X142303048Y-114800258D01*
X142369468Y-114789144D01*
X142474655Y-114805681D01*
X142668492Y-114943944D01*
X142718374Y-115038016D01*
X142729489Y-115104436D01*
X142712952Y-115209624D01*
X142574689Y-115403461D01*
X142480617Y-115453343D01*
X142414197Y-115464458D01*
X142309009Y-115447920D01*
X142115172Y-115309658D01*
X142065290Y-115215585D01*
X142054175Y-115149165D01*
%TO.C,U2*%
X103628880Y-117299704D02*
X104438404Y-117299704D01*
X104533642Y-117252085D01*
X104581261Y-117204466D01*
X104628880Y-117109228D01*
X104628880Y-116918752D01*
X104581261Y-116823514D01*
X104533642Y-116775895D01*
X104438404Y-116728276D01*
X103628880Y-116728276D01*
X103724119Y-116299704D02*
X103676500Y-116252085D01*
X103628880Y-116156847D01*
X103628880Y-115918752D01*
X103676500Y-115823514D01*
X103724119Y-115775895D01*
X103819357Y-115728276D01*
X103914595Y-115728276D01*
X104057452Y-115775895D01*
X104628880Y-116347323D01*
X104628880Y-115728276D01*
%TO.C,U1*%
X154244595Y-132400180D02*
X154244595Y-133209704D01*
X154292214Y-133304942D01*
X154339833Y-133352561D01*
X154435071Y-133400180D01*
X154625547Y-133400180D01*
X154720785Y-133352561D01*
X154768404Y-133304942D01*
X154816023Y-133209704D01*
X154816023Y-132400180D01*
X155816023Y-133400180D02*
X155244595Y-133400180D01*
X155530309Y-133400180D02*
X155530309Y-132400180D01*
X155435071Y-132543038D01*
X155339833Y-132638276D01*
X155244595Y-132685895D01*
%TO.C,RV1*%
X138911261Y-127800180D02*
X138577928Y-127323990D01*
X138339833Y-127800180D02*
X138339833Y-126800180D01*
X138720785Y-126800180D01*
X138816023Y-126847800D01*
X138863642Y-126895419D01*
X138911261Y-126990657D01*
X138911261Y-127133514D01*
X138863642Y-127228752D01*
X138816023Y-127276371D01*
X138720785Y-127323990D01*
X138339833Y-127323990D01*
X139196976Y-126800180D02*
X139530309Y-127800180D01*
X139863642Y-126800180D01*
X140720785Y-127800180D02*
X140149357Y-127800180D01*
X140435071Y-127800180D02*
X140435071Y-126800180D01*
X140339833Y-126943038D01*
X140244595Y-127038276D01*
X140149357Y-127085895D01*
%TO.C,R12*%
X119358880Y-128690657D02*
X118882690Y-129023990D01*
X119358880Y-129262085D02*
X118358880Y-129262085D01*
X118358880Y-128881133D01*
X118406500Y-128785895D01*
X118454119Y-128738276D01*
X118549357Y-128690657D01*
X118692214Y-128690657D01*
X118787452Y-128738276D01*
X118835071Y-128785895D01*
X118882690Y-128881133D01*
X118882690Y-129262085D01*
X119358880Y-127738276D02*
X119358880Y-128309704D01*
X119358880Y-128023990D02*
X118358880Y-128023990D01*
X118501738Y-128119228D01*
X118596976Y-128214466D01*
X118644595Y-128309704D01*
X118454119Y-127357323D02*
X118406500Y-127309704D01*
X118358880Y-127214466D01*
X118358880Y-126976371D01*
X118406500Y-126881133D01*
X118454119Y-126833514D01*
X118549357Y-126785895D01*
X118644595Y-126785895D01*
X118787452Y-126833514D01*
X119358880Y-127404942D01*
X119358880Y-126785895D01*
%TO.C,R4*%
X101358880Y-124714466D02*
X100882690Y-125047800D01*
X101358880Y-125285895D02*
X100358880Y-125285895D01*
X100358880Y-124904942D01*
X100406500Y-124809704D01*
X100454119Y-124762085D01*
X100549357Y-124714466D01*
X100692214Y-124714466D01*
X100787452Y-124762085D01*
X100835071Y-124809704D01*
X100882690Y-124904942D01*
X100882690Y-125285895D01*
X100692214Y-123857323D02*
X101358880Y-123857323D01*
X100311261Y-124095419D02*
X101025547Y-124333514D01*
X101025547Y-123714466D01*
%TO.C,R3*%
X94958880Y-124614466D02*
X94482690Y-124947800D01*
X94958880Y-125185895D02*
X93958880Y-125185895D01*
X93958880Y-124804942D01*
X94006500Y-124709704D01*
X94054119Y-124662085D01*
X94149357Y-124614466D01*
X94292214Y-124614466D01*
X94387452Y-124662085D01*
X94435071Y-124709704D01*
X94482690Y-124804942D01*
X94482690Y-125185895D01*
X93958880Y-124281133D02*
X93958880Y-123662085D01*
X94339833Y-123995419D01*
X94339833Y-123852561D01*
X94387452Y-123757323D01*
X94435071Y-123709704D01*
X94530309Y-123662085D01*
X94768404Y-123662085D01*
X94863642Y-123709704D01*
X94911261Y-123757323D01*
X94958880Y-123852561D01*
X94958880Y-124138276D01*
X94911261Y-124233514D01*
X94863642Y-124281133D01*
%TO.C,R2*%
X139639833Y-139400180D02*
X139306500Y-138923990D01*
X139068404Y-139400180D02*
X139068404Y-138400180D01*
X139449357Y-138400180D01*
X139544595Y-138447800D01*
X139592214Y-138495419D01*
X139639833Y-138590657D01*
X139639833Y-138733514D01*
X139592214Y-138828752D01*
X139544595Y-138876371D01*
X139449357Y-138923990D01*
X139068404Y-138923990D01*
X140020785Y-138495419D02*
X140068404Y-138447800D01*
X140163642Y-138400180D01*
X140401738Y-138400180D01*
X140496976Y-138447800D01*
X140544595Y-138495419D01*
X140592214Y-138590657D01*
X140592214Y-138685895D01*
X140544595Y-138828752D01*
X139973166Y-139400180D01*
X140592214Y-139400180D01*
%TO.C,R1*%
X134339833Y-131400180D02*
X134006500Y-130923990D01*
X133768404Y-131400180D02*
X133768404Y-130400180D01*
X134149357Y-130400180D01*
X134244595Y-130447800D01*
X134292214Y-130495419D01*
X134339833Y-130590657D01*
X134339833Y-130733514D01*
X134292214Y-130828752D01*
X134244595Y-130876371D01*
X134149357Y-130923990D01*
X133768404Y-130923990D01*
X135292214Y-131400180D02*
X134720785Y-131400180D01*
X135006500Y-131400180D02*
X135006500Y-130400180D01*
X134911261Y-130543038D01*
X134816023Y-130638276D01*
X134720785Y-130685895D01*
%TO.C,Q3*%
X111111261Y-126295419D02*
X111016023Y-126247800D01*
X110920785Y-126152561D01*
X110777928Y-126009704D01*
X110682690Y-125962085D01*
X110587452Y-125962085D01*
X110635071Y-126200180D02*
X110539833Y-126152561D01*
X110444595Y-126057323D01*
X110396976Y-125866847D01*
X110396976Y-125533514D01*
X110444595Y-125343038D01*
X110539833Y-125247800D01*
X110635071Y-125200180D01*
X110825547Y-125200180D01*
X110920785Y-125247800D01*
X111016023Y-125343038D01*
X111063642Y-125533514D01*
X111063642Y-125866847D01*
X111016023Y-126057323D01*
X110920785Y-126152561D01*
X110825547Y-126200180D01*
X110635071Y-126200180D01*
X111396976Y-125200180D02*
X112016023Y-125200180D01*
X111682690Y-125581133D01*
X111825547Y-125581133D01*
X111920785Y-125628752D01*
X111968404Y-125676371D01*
X112016023Y-125771609D01*
X112016023Y-126009704D01*
X111968404Y-126104942D01*
X111920785Y-126152561D01*
X111825547Y-126200180D01*
X111539833Y-126200180D01*
X111444595Y-126152561D01*
X111396976Y-126104942D01*
%TO.C,Q2*%
X103911261Y-131495419D02*
X103816023Y-131447800D01*
X103720785Y-131352561D01*
X103577928Y-131209704D01*
X103482690Y-131162085D01*
X103387452Y-131162085D01*
X103435071Y-131400180D02*
X103339833Y-131352561D01*
X103244595Y-131257323D01*
X103196976Y-131066847D01*
X103196976Y-130733514D01*
X103244595Y-130543038D01*
X103339833Y-130447800D01*
X103435071Y-130400180D01*
X103625547Y-130400180D01*
X103720785Y-130447800D01*
X103816023Y-130543038D01*
X103863642Y-130733514D01*
X103863642Y-131066847D01*
X103816023Y-131257323D01*
X103720785Y-131352561D01*
X103625547Y-131400180D01*
X103435071Y-131400180D01*
X104244595Y-130495419D02*
X104292214Y-130447800D01*
X104387452Y-130400180D01*
X104625547Y-130400180D01*
X104720785Y-130447800D01*
X104768404Y-130495419D01*
X104816023Y-130590657D01*
X104816023Y-130685895D01*
X104768404Y-130828752D01*
X104196976Y-131400180D01*
X104816023Y-131400180D01*
%TO.C,Q1*%
X97511261Y-131495419D02*
X97416023Y-131447800D01*
X97320785Y-131352561D01*
X97177928Y-131209704D01*
X97082690Y-131162085D01*
X96987452Y-131162085D01*
X97035071Y-131400180D02*
X96939833Y-131352561D01*
X96844595Y-131257323D01*
X96796976Y-131066847D01*
X96796976Y-130733514D01*
X96844595Y-130543038D01*
X96939833Y-130447800D01*
X97035071Y-130400180D01*
X97225547Y-130400180D01*
X97320785Y-130447800D01*
X97416023Y-130543038D01*
X97463642Y-130733514D01*
X97463642Y-131066847D01*
X97416023Y-131257323D01*
X97320785Y-131352561D01*
X97225547Y-131400180D01*
X97035071Y-131400180D01*
X98416023Y-131400180D02*
X97844595Y-131400180D01*
X98130309Y-131400180D02*
X98130309Y-130400180D01*
X98035071Y-130543038D01*
X97939833Y-130638276D01*
X97844595Y-130685895D01*
%TO.C,J4*%
X125543166Y-130070180D02*
X125543166Y-130784466D01*
X125495547Y-130927323D01*
X125400309Y-131022561D01*
X125257452Y-131070180D01*
X125162214Y-131070180D01*
X126447928Y-130403514D02*
X126447928Y-131070180D01*
X126209833Y-130022561D02*
X125971738Y-130736847D01*
X126590785Y-130736847D01*
%TO.C,J3*%
X157458880Y-138181133D02*
X158173166Y-138181133D01*
X158316023Y-138228752D01*
X158411261Y-138323990D01*
X158458880Y-138466847D01*
X158458880Y-138562085D01*
X157458880Y-137800180D02*
X157458880Y-137181133D01*
X157839833Y-137514466D01*
X157839833Y-137371609D01*
X157887452Y-137276371D01*
X157935071Y-137228752D01*
X158030309Y-137181133D01*
X158268404Y-137181133D01*
X158363642Y-137228752D01*
X158411261Y-137276371D01*
X158458880Y-137371609D01*
X158458880Y-137657323D01*
X158411261Y-137752561D01*
X158363642Y-137800180D01*
%TO.C,J2*%
X101373166Y-130900180D02*
X101373166Y-131614466D01*
X101325547Y-131757323D01*
X101230309Y-131852561D01*
X101087452Y-131900180D01*
X100992214Y-131900180D01*
X101801738Y-130995419D02*
X101849357Y-130947800D01*
X101944595Y-130900180D01*
X102182690Y-130900180D01*
X102277928Y-130947800D01*
X102325547Y-130995419D01*
X102373166Y-131090657D01*
X102373166Y-131185895D01*
X102325547Y-131328752D01*
X101754119Y-131900180D01*
X102373166Y-131900180D01*
%TO.C,J1*%
X94473166Y-130900180D02*
X94473166Y-131614466D01*
X94425547Y-131757323D01*
X94330309Y-131852561D01*
X94187452Y-131900180D01*
X94092214Y-131900180D01*
X95473166Y-131900180D02*
X94901738Y-131900180D01*
X95187452Y-131900180D02*
X95187452Y-130900180D01*
X95092214Y-131043038D01*
X94996976Y-131138276D01*
X94901738Y-131185895D01*
%TO.C,H2*%
X84144595Y-131500180D02*
X84144595Y-130500180D01*
X84144595Y-130976371D02*
X84716023Y-130976371D01*
X84716023Y-131500180D02*
X84716023Y-130500180D01*
X85144595Y-130595419D02*
X85192214Y-130547800D01*
X85287452Y-130500180D01*
X85525547Y-130500180D01*
X85620785Y-130547800D01*
X85668404Y-130595419D01*
X85716023Y-130690657D01*
X85716023Y-130785895D01*
X85668404Y-130928752D01*
X85096976Y-131500180D01*
X85716023Y-131500180D01*
%TO.C,H1*%
X157244595Y-131500180D02*
X157244595Y-130500180D01*
X157244595Y-130976371D02*
X157816023Y-130976371D01*
X157816023Y-131500180D02*
X157816023Y-130500180D01*
X158816023Y-131500180D02*
X158244595Y-131500180D01*
X158530309Y-131500180D02*
X158530309Y-130500180D01*
X158435071Y-130643038D01*
X158339833Y-130738276D01*
X158244595Y-130785895D01*
%TO.C,D1*%
X135358880Y-134485895D02*
X134358880Y-134485895D01*
X134358880Y-134247800D01*
X134406500Y-134104942D01*
X134501738Y-134009704D01*
X134596976Y-133962085D01*
X134787452Y-133914466D01*
X134930309Y-133914466D01*
X135120785Y-133962085D01*
X135216023Y-134009704D01*
X135311261Y-134104942D01*
X135358880Y-134247800D01*
X135358880Y-134485895D01*
X135358880Y-132962085D02*
X135358880Y-133533514D01*
X135358880Y-133247800D02*
X134358880Y-133247800D01*
X134501738Y-133343038D01*
X134596976Y-133438276D01*
X134644595Y-133533514D01*
%TO.C,C22*%
X141863642Y-125004942D02*
X141816023Y-125052561D01*
X141673166Y-125100180D01*
X141577928Y-125100180D01*
X141435071Y-125052561D01*
X141339833Y-124957323D01*
X141292214Y-124862085D01*
X141244595Y-124671609D01*
X141244595Y-124528752D01*
X141292214Y-124338276D01*
X141339833Y-124243038D01*
X141435071Y-124147800D01*
X141577928Y-124100180D01*
X141673166Y-124100180D01*
X141816023Y-124147800D01*
X141863642Y-124195419D01*
X142244595Y-124195419D02*
X142292214Y-124147800D01*
X142387452Y-124100180D01*
X142625547Y-124100180D01*
X142720785Y-124147800D01*
X142768404Y-124195419D01*
X142816023Y-124290657D01*
X142816023Y-124385895D01*
X142768404Y-124528752D01*
X142196976Y-125100180D01*
X142816023Y-125100180D01*
X143196976Y-124195419D02*
X143244595Y-124147800D01*
X143339833Y-124100180D01*
X143577928Y-124100180D01*
X143673166Y-124147800D01*
X143720785Y-124195419D01*
X143768404Y-124290657D01*
X143768404Y-124385895D01*
X143720785Y-124528752D01*
X143149357Y-125100180D01*
X143768404Y-125100180D01*
%TO.C,C21*%
X141863642Y-127604942D02*
X141816023Y-127652561D01*
X141673166Y-127700180D01*
X141577928Y-127700180D01*
X141435071Y-127652561D01*
X141339833Y-127557323D01*
X141292214Y-127462085D01*
X141244595Y-127271609D01*
X141244595Y-127128752D01*
X141292214Y-126938276D01*
X141339833Y-126843038D01*
X141435071Y-126747800D01*
X141577928Y-126700180D01*
X141673166Y-126700180D01*
X141816023Y-126747800D01*
X141863642Y-126795419D01*
X142244595Y-126795419D02*
X142292214Y-126747800D01*
X142387452Y-126700180D01*
X142625547Y-126700180D01*
X142720785Y-126747800D01*
X142768404Y-126795419D01*
X142816023Y-126890657D01*
X142816023Y-126985895D01*
X142768404Y-127128752D01*
X142196976Y-127700180D01*
X142816023Y-127700180D01*
X143768404Y-127700180D02*
X143196976Y-127700180D01*
X143482690Y-127700180D02*
X143482690Y-126700180D01*
X143387452Y-126843038D01*
X143292214Y-126938276D01*
X143196976Y-126985895D01*
%TO.C,C20*%
X147263642Y-129690657D02*
X147311261Y-129738276D01*
X147358880Y-129881133D01*
X147358880Y-129976371D01*
X147311261Y-130119228D01*
X147216023Y-130214466D01*
X147120785Y-130262085D01*
X146930309Y-130309704D01*
X146787452Y-130309704D01*
X146596976Y-130262085D01*
X146501738Y-130214466D01*
X146406500Y-130119228D01*
X146358880Y-129976371D01*
X146358880Y-129881133D01*
X146406500Y-129738276D01*
X146454119Y-129690657D01*
X146454119Y-129309704D02*
X146406500Y-129262085D01*
X146358880Y-129166847D01*
X146358880Y-128928752D01*
X146406500Y-128833514D01*
X146454119Y-128785895D01*
X146549357Y-128738276D01*
X146644595Y-128738276D01*
X146787452Y-128785895D01*
X147358880Y-129357323D01*
X147358880Y-128738276D01*
X146358880Y-128119228D02*
X146358880Y-128023990D01*
X146406500Y-127928752D01*
X146454119Y-127881133D01*
X146549357Y-127833514D01*
X146739833Y-127785895D01*
X146977928Y-127785895D01*
X147168404Y-127833514D01*
X147263642Y-127881133D01*
X147311261Y-127928752D01*
X147358880Y-128023990D01*
X147358880Y-128119228D01*
X147311261Y-128214466D01*
X147263642Y-128262085D01*
X147168404Y-128309704D01*
X146977928Y-128357323D01*
X146739833Y-128357323D01*
X146549357Y-128309704D01*
X146454119Y-128262085D01*
X146406500Y-128214466D01*
X146358880Y-128119228D01*
%TO.C,C19*%
X148563642Y-132590657D02*
X148611261Y-132638276D01*
X148658880Y-132781133D01*
X148658880Y-132876371D01*
X148611261Y-133019228D01*
X148516023Y-133114466D01*
X148420785Y-133162085D01*
X148230309Y-133209704D01*
X148087452Y-133209704D01*
X147896976Y-133162085D01*
X147801738Y-133114466D01*
X147706500Y-133019228D01*
X147658880Y-132876371D01*
X147658880Y-132781133D01*
X147706500Y-132638276D01*
X147754119Y-132590657D01*
X148658880Y-131638276D02*
X148658880Y-132209704D01*
X148658880Y-131923990D02*
X147658880Y-131923990D01*
X147801738Y-132019228D01*
X147896976Y-132114466D01*
X147944595Y-132209704D01*
X148658880Y-131162085D02*
X148658880Y-130971609D01*
X148611261Y-130876371D01*
X148563642Y-130828752D01*
X148420785Y-130733514D01*
X148230309Y-130685895D01*
X147849357Y-130685895D01*
X147754119Y-130733514D01*
X147706500Y-130781133D01*
X147658880Y-130876371D01*
X147658880Y-131066847D01*
X147706500Y-131162085D01*
X147754119Y-131209704D01*
X147849357Y-131257323D01*
X148087452Y-131257323D01*
X148182690Y-131209704D01*
X148230309Y-131162085D01*
X148277928Y-131066847D01*
X148277928Y-130876371D01*
X148230309Y-130781133D01*
X148182690Y-130733514D01*
X148087452Y-130685895D01*
%TO.C,C18*%
X149563642Y-128204942D02*
X149516023Y-128252561D01*
X149373166Y-128300180D01*
X149277928Y-128300180D01*
X149135071Y-128252561D01*
X149039833Y-128157323D01*
X148992214Y-128062085D01*
X148944595Y-127871609D01*
X148944595Y-127728752D01*
X148992214Y-127538276D01*
X149039833Y-127443038D01*
X149135071Y-127347800D01*
X149277928Y-127300180D01*
X149373166Y-127300180D01*
X149516023Y-127347800D01*
X149563642Y-127395419D01*
X150516023Y-128300180D02*
X149944595Y-128300180D01*
X150230309Y-128300180D02*
X150230309Y-127300180D01*
X150135071Y-127443038D01*
X150039833Y-127538276D01*
X149944595Y-127585895D01*
X151087452Y-127728752D02*
X150992214Y-127681133D01*
X150944595Y-127633514D01*
X150896976Y-127538276D01*
X150896976Y-127490657D01*
X150944595Y-127395419D01*
X150992214Y-127347800D01*
X151087452Y-127300180D01*
X151277928Y-127300180D01*
X151373166Y-127347800D01*
X151420785Y-127395419D01*
X151468404Y-127490657D01*
X151468404Y-127538276D01*
X151420785Y-127633514D01*
X151373166Y-127681133D01*
X151277928Y-127728752D01*
X151087452Y-127728752D01*
X150992214Y-127776371D01*
X150944595Y-127823990D01*
X150896976Y-127919228D01*
X150896976Y-128109704D01*
X150944595Y-128204942D01*
X150992214Y-128252561D01*
X151087452Y-128300180D01*
X151277928Y-128300180D01*
X151373166Y-128252561D01*
X151420785Y-128204942D01*
X151468404Y-128109704D01*
X151468404Y-127919228D01*
X151420785Y-127823990D01*
X151373166Y-127776371D01*
X151277928Y-127728752D01*
%TO.C,C17*%
X155263642Y-128604942D02*
X155216023Y-128652561D01*
X155073166Y-128700180D01*
X154977928Y-128700180D01*
X154835071Y-128652561D01*
X154739833Y-128557323D01*
X154692214Y-128462085D01*
X154644595Y-128271609D01*
X154644595Y-128128752D01*
X154692214Y-127938276D01*
X154739833Y-127843038D01*
X154835071Y-127747800D01*
X154977928Y-127700180D01*
X155073166Y-127700180D01*
X155216023Y-127747800D01*
X155263642Y-127795419D01*
X156216023Y-128700180D02*
X155644595Y-128700180D01*
X155930309Y-128700180D02*
X155930309Y-127700180D01*
X155835071Y-127843038D01*
X155739833Y-127938276D01*
X155644595Y-127985895D01*
X156549357Y-127700180D02*
X157216023Y-127700180D01*
X156787452Y-128700180D01*
%TO.C,C16*%
X159063642Y-125304942D02*
X159016023Y-125352561D01*
X158873166Y-125400180D01*
X158777928Y-125400180D01*
X158635071Y-125352561D01*
X158539833Y-125257323D01*
X158492214Y-125162085D01*
X158444595Y-124971609D01*
X158444595Y-124828752D01*
X158492214Y-124638276D01*
X158539833Y-124543038D01*
X158635071Y-124447800D01*
X158777928Y-124400180D01*
X158873166Y-124400180D01*
X159016023Y-124447800D01*
X159063642Y-124495419D01*
X160016023Y-125400180D02*
X159444595Y-125400180D01*
X159730309Y-125400180D02*
X159730309Y-124400180D01*
X159635071Y-124543038D01*
X159539833Y-124638276D01*
X159444595Y-124685895D01*
X160873166Y-124400180D02*
X160682690Y-124400180D01*
X160587452Y-124447800D01*
X160539833Y-124495419D01*
X160444595Y-124638276D01*
X160396976Y-124828752D01*
X160396976Y-125209704D01*
X160444595Y-125304942D01*
X160492214Y-125352561D01*
X160587452Y-125400180D01*
X160777928Y-125400180D01*
X160873166Y-125352561D01*
X160920785Y-125304942D01*
X160968404Y-125209704D01*
X160968404Y-124971609D01*
X160920785Y-124876371D01*
X160873166Y-124828752D01*
X160777928Y-124781133D01*
X160587452Y-124781133D01*
X160492214Y-124828752D01*
X160444595Y-124876371D01*
X160396976Y-124971609D01*
%TO.C,C15*%
X156163642Y-127004942D02*
X156116023Y-127052561D01*
X155973166Y-127100180D01*
X155877928Y-127100180D01*
X155735071Y-127052561D01*
X155639833Y-126957323D01*
X155592214Y-126862085D01*
X155544595Y-126671609D01*
X155544595Y-126528752D01*
X155592214Y-126338276D01*
X155639833Y-126243038D01*
X155735071Y-126147800D01*
X155877928Y-126100180D01*
X155973166Y-126100180D01*
X156116023Y-126147800D01*
X156163642Y-126195419D01*
X157116023Y-127100180D02*
X156544595Y-127100180D01*
X156830309Y-127100180D02*
X156830309Y-126100180D01*
X156735071Y-126243038D01*
X156639833Y-126338276D01*
X156544595Y-126385895D01*
X158020785Y-126100180D02*
X157544595Y-126100180D01*
X157496976Y-126576371D01*
X157544595Y-126528752D01*
X157639833Y-126481133D01*
X157877928Y-126481133D01*
X157973166Y-126528752D01*
X158020785Y-126576371D01*
X158068404Y-126671609D01*
X158068404Y-126909704D01*
X158020785Y-127004942D01*
X157973166Y-127052561D01*
X157877928Y-127100180D01*
X157639833Y-127100180D01*
X157544595Y-127052561D01*
X157496976Y-127004942D01*
%TO.C,C14*%
X149663642Y-129604942D02*
X149616023Y-129652561D01*
X149473166Y-129700180D01*
X149377928Y-129700180D01*
X149235071Y-129652561D01*
X149139833Y-129557323D01*
X149092214Y-129462085D01*
X149044595Y-129271609D01*
X149044595Y-129128752D01*
X149092214Y-128938276D01*
X149139833Y-128843038D01*
X149235071Y-128747800D01*
X149377928Y-128700180D01*
X149473166Y-128700180D01*
X149616023Y-128747800D01*
X149663642Y-128795419D01*
X150616023Y-129700180D02*
X150044595Y-129700180D01*
X150330309Y-129700180D02*
X150330309Y-128700180D01*
X150235071Y-128843038D01*
X150139833Y-128938276D01*
X150044595Y-128985895D01*
X151473166Y-129033514D02*
X151473166Y-129700180D01*
X151235071Y-128652561D02*
X150996976Y-129366847D01*
X151616023Y-129366847D01*
%TO.C,C13*%
X147163642Y-132590657D02*
X147211261Y-132638276D01*
X147258880Y-132781133D01*
X147258880Y-132876371D01*
X147211261Y-133019228D01*
X147116023Y-133114466D01*
X147020785Y-133162085D01*
X146830309Y-133209704D01*
X146687452Y-133209704D01*
X146496976Y-133162085D01*
X146401738Y-133114466D01*
X146306500Y-133019228D01*
X146258880Y-132876371D01*
X146258880Y-132781133D01*
X146306500Y-132638276D01*
X146354119Y-132590657D01*
X147258880Y-131638276D02*
X147258880Y-132209704D01*
X147258880Y-131923990D02*
X146258880Y-131923990D01*
X146401738Y-132019228D01*
X146496976Y-132114466D01*
X146544595Y-132209704D01*
X146258880Y-131304942D02*
X146258880Y-130685895D01*
X146639833Y-131019228D01*
X146639833Y-130876371D01*
X146687452Y-130781133D01*
X146735071Y-130733514D01*
X146830309Y-130685895D01*
X147068404Y-130685895D01*
X147163642Y-130733514D01*
X147211261Y-130781133D01*
X147258880Y-130876371D01*
X147258880Y-131162085D01*
X147211261Y-131257323D01*
X147163642Y-131304942D01*
%TO.C,C12*%
X145663642Y-129690657D02*
X145711261Y-129738276D01*
X145758880Y-129881133D01*
X145758880Y-129976371D01*
X145711261Y-130119228D01*
X145616023Y-130214466D01*
X145520785Y-130262085D01*
X145330309Y-130309704D01*
X145187452Y-130309704D01*
X144996976Y-130262085D01*
X144901738Y-130214466D01*
X144806500Y-130119228D01*
X144758880Y-129976371D01*
X144758880Y-129881133D01*
X144806500Y-129738276D01*
X144854119Y-129690657D01*
X145758880Y-128738276D02*
X145758880Y-129309704D01*
X145758880Y-129023990D02*
X144758880Y-129023990D01*
X144901738Y-129119228D01*
X144996976Y-129214466D01*
X145044595Y-129309704D01*
X144854119Y-128357323D02*
X144806500Y-128309704D01*
X144758880Y-128214466D01*
X144758880Y-127976371D01*
X144806500Y-127881133D01*
X144854119Y-127833514D01*
X144949357Y-127785895D01*
X145044595Y-127785895D01*
X145187452Y-127833514D01*
X145758880Y-128404942D01*
X145758880Y-127785895D01*
%TO.C,C11*%
X141863642Y-126304942D02*
X141816023Y-126352561D01*
X141673166Y-126400180D01*
X141577928Y-126400180D01*
X141435071Y-126352561D01*
X141339833Y-126257323D01*
X141292214Y-126162085D01*
X141244595Y-125971609D01*
X141244595Y-125828752D01*
X141292214Y-125638276D01*
X141339833Y-125543038D01*
X141435071Y-125447800D01*
X141577928Y-125400180D01*
X141673166Y-125400180D01*
X141816023Y-125447800D01*
X141863642Y-125495419D01*
X142816023Y-126400180D02*
X142244595Y-126400180D01*
X142530309Y-126400180D02*
X142530309Y-125400180D01*
X142435071Y-125543038D01*
X142339833Y-125638276D01*
X142244595Y-125685895D01*
X143768404Y-126400180D02*
X143196976Y-126400180D01*
X143482690Y-126400180D02*
X143482690Y-125400180D01*
X143387452Y-125543038D01*
X143292214Y-125638276D01*
X143196976Y-125685895D01*
%TO.C,C10*%
X141592214Y-117633514D02*
X141554119Y-117671609D01*
X141439833Y-117709704D01*
X141363642Y-117709704D01*
X141249357Y-117671609D01*
X141173166Y-117595419D01*
X141135071Y-117519228D01*
X141096976Y-117366847D01*
X141096976Y-117252561D01*
X141135071Y-117100180D01*
X141173166Y-117023990D01*
X141249357Y-116947800D01*
X141363642Y-116909704D01*
X141439833Y-116909704D01*
X141554119Y-116947800D01*
X141592214Y-116985895D01*
X142354119Y-117709704D02*
X141896976Y-117709704D01*
X142125547Y-117709704D02*
X142125547Y-116909704D01*
X142049357Y-117023990D01*
X141973166Y-117100180D01*
X141896976Y-117138276D01*
X142849357Y-116909704D02*
X142925547Y-116909704D01*
X143001738Y-116947800D01*
X143039833Y-116985895D01*
X143077928Y-117062085D01*
X143116023Y-117214466D01*
X143116023Y-117404942D01*
X143077928Y-117557323D01*
X143039833Y-117633514D01*
X143001738Y-117671609D01*
X142925547Y-117709704D01*
X142849357Y-117709704D01*
X142773166Y-117671609D01*
X142735071Y-117633514D01*
X142696976Y-117557323D01*
X142658880Y-117404942D01*
X142658880Y-117214466D01*
X142696976Y-117062085D01*
X142735071Y-116985895D01*
X142773166Y-116947800D01*
X142849357Y-116909704D01*
%TO.C,C5*%
X139539833Y-140704942D02*
X139492214Y-140752561D01*
X139349357Y-140800180D01*
X139254119Y-140800180D01*
X139111261Y-140752561D01*
X139016023Y-140657323D01*
X138968404Y-140562085D01*
X138920785Y-140371609D01*
X138920785Y-140228752D01*
X138968404Y-140038276D01*
X139016023Y-139943038D01*
X139111261Y-139847800D01*
X139254119Y-139800180D01*
X139349357Y-139800180D01*
X139492214Y-139847800D01*
X139539833Y-139895419D01*
X140444595Y-139800180D02*
X139968404Y-139800180D01*
X139920785Y-140276371D01*
X139968404Y-140228752D01*
X140063642Y-140181133D01*
X140301738Y-140181133D01*
X140396976Y-140228752D01*
X140444595Y-140276371D01*
X140492214Y-140371609D01*
X140492214Y-140609704D01*
X140444595Y-140704942D01*
X140396976Y-140752561D01*
X140301738Y-140800180D01*
X140063642Y-140800180D01*
X139968404Y-140752561D01*
X139920785Y-140704942D01*
%TO.C,C4*%
X142463642Y-130314466D02*
X142511261Y-130362085D01*
X142558880Y-130504942D01*
X142558880Y-130600180D01*
X142511261Y-130743038D01*
X142416023Y-130838276D01*
X142320785Y-130885895D01*
X142130309Y-130933514D01*
X141987452Y-130933514D01*
X141796976Y-130885895D01*
X141701738Y-130838276D01*
X141606500Y-130743038D01*
X141558880Y-130600180D01*
X141558880Y-130504942D01*
X141606500Y-130362085D01*
X141654119Y-130314466D01*
X141892214Y-129457323D02*
X142558880Y-129457323D01*
X141511261Y-129695419D02*
X142225547Y-129933514D01*
X142225547Y-129314466D01*
%TO.C,C3*%
X138363642Y-138614466D02*
X138411261Y-138662085D01*
X138458880Y-138804942D01*
X138458880Y-138900180D01*
X138411261Y-139043038D01*
X138316023Y-139138276D01*
X138220785Y-139185895D01*
X138030309Y-139233514D01*
X137887452Y-139233514D01*
X137696976Y-139185895D01*
X137601738Y-139138276D01*
X137506500Y-139043038D01*
X137458880Y-138900180D01*
X137458880Y-138804942D01*
X137506500Y-138662085D01*
X137554119Y-138614466D01*
X137458880Y-138281133D02*
X137458880Y-137662085D01*
X137839833Y-137995419D01*
X137839833Y-137852561D01*
X137887452Y-137757323D01*
X137935071Y-137709704D01*
X138030309Y-137662085D01*
X138268404Y-137662085D01*
X138363642Y-137709704D01*
X138411261Y-137757323D01*
X138458880Y-137852561D01*
X138458880Y-138138276D01*
X138411261Y-138233514D01*
X138363642Y-138281133D01*
%TO.C,C2*%
X136963642Y-138614466D02*
X137011261Y-138662085D01*
X137058880Y-138804942D01*
X137058880Y-138900180D01*
X137011261Y-139043038D01*
X136916023Y-139138276D01*
X136820785Y-139185895D01*
X136630309Y-139233514D01*
X136487452Y-139233514D01*
X136296976Y-139185895D01*
X136201738Y-139138276D01*
X136106500Y-139043038D01*
X136058880Y-138900180D01*
X136058880Y-138804942D01*
X136106500Y-138662085D01*
X136154119Y-138614466D01*
X136154119Y-138233514D02*
X136106500Y-138185895D01*
X136058880Y-138090657D01*
X136058880Y-137852561D01*
X136106500Y-137757323D01*
X136154119Y-137709704D01*
X136249357Y-137662085D01*
X136344595Y-137662085D01*
X136487452Y-137709704D01*
X137058880Y-138281133D01*
X137058880Y-137662085D01*
%TO.C,C1*%
X143863642Y-130214466D02*
X143911261Y-130262085D01*
X143958880Y-130404942D01*
X143958880Y-130500180D01*
X143911261Y-130643038D01*
X143816023Y-130738276D01*
X143720785Y-130785895D01*
X143530309Y-130833514D01*
X143387452Y-130833514D01*
X143196976Y-130785895D01*
X143101738Y-130738276D01*
X143006500Y-130643038D01*
X142958880Y-130500180D01*
X142958880Y-130404942D01*
X143006500Y-130262085D01*
X143054119Y-130214466D01*
X143958880Y-129262085D02*
X143958880Y-129833514D01*
X143958880Y-129547800D02*
X142958880Y-129547800D01*
X143101738Y-129643038D01*
X143196976Y-129738276D01*
X143244595Y-129833514D01*
%TO.C,BZ1*%
X110035071Y-136328752D02*
X110082690Y-136185895D01*
X110130309Y-136138276D01*
X110225547Y-136090657D01*
X110368404Y-136090657D01*
X110463642Y-136138276D01*
X110511261Y-136185895D01*
X110558880Y-136281133D01*
X110558880Y-136662085D01*
X109558880Y-136662085D01*
X109558880Y-136328752D01*
X109606500Y-136233514D01*
X109654119Y-136185895D01*
X109749357Y-136138276D01*
X109844595Y-136138276D01*
X109939833Y-136185895D01*
X109987452Y-136233514D01*
X110035071Y-136328752D01*
X110035071Y-136662085D01*
X109558880Y-135757323D02*
X109558880Y-135090657D01*
X110558880Y-135757323D01*
X110558880Y-135090657D01*
X110558880Y-134185895D02*
X110558880Y-134757323D01*
X110558880Y-134471609D02*
X109558880Y-134471609D01*
X109701738Y-134566847D01*
X109796976Y-134662085D01*
X109844595Y-134757323D01*
X114277928Y-132778752D02*
X114277928Y-132016847D01*
X114658880Y-132397800D02*
X113896976Y-132397800D01*
%TD*%
M02*
