%TF.GenerationSoftware,KiCad,Pcbnew,(5.1.9)-1*%
%TF.CreationDate,2021-10-08T19:18:35+02:00*%
%TF.ProjectId,multi_steering_kenwood_K24MSWK1MA,6d756c74-695f-4737-9465-6572696e675f,rev?*%
%TF.SameCoordinates,Original*%
%TF.FileFunction,Soldermask,Top*%
%TF.FilePolarity,Negative*%
%FSLAX46Y46*%
G04 Gerber Fmt 4.6, Leading zero omitted, Abs format (unit mm)*
G04 Created by KiCad (PCBNEW (5.1.9)-1) date 2021-10-08 19:18:35*
%MOMM*%
%LPD*%
G01*
G04 APERTURE LIST*
%ADD10C,0.100000*%
%ADD11R,4.500000X2.000000*%
%ADD12O,1.700000X1.700000*%
%ADD13R,1.700000X1.700000*%
%ADD14C,1.200000*%
%ADD15O,1.600000X1.600000*%
%ADD16R,1.600000X1.600000*%
%ADD17R,6.400000X5.800000*%
%ADD18R,2.200000X1.200000*%
%ADD19R,0.800000X0.900000*%
%ADD20R,5.700000X4.600000*%
%ADD21C,3.200000*%
%ADD22R,1.800000X2.500000*%
%ADD23R,2.000000X2.000000*%
G04 APERTURE END LIST*
%TO.C,R14*%
G36*
G01*
X103781500Y-125497800D02*
X103781500Y-125997800D01*
G75*
G02*
X103556500Y-126222800I-225000J0D01*
G01*
X103106500Y-126222800D01*
G75*
G02*
X102881500Y-125997800I0J225000D01*
G01*
X102881500Y-125497800D01*
G75*
G02*
X103106500Y-125272800I225000J0D01*
G01*
X103556500Y-125272800D01*
G75*
G02*
X103781500Y-125497800I0J-225000D01*
G01*
G37*
G36*
G01*
X105331500Y-125497800D02*
X105331500Y-125997800D01*
G75*
G02*
X105106500Y-126222800I-225000J0D01*
G01*
X104656500Y-126222800D01*
G75*
G02*
X104431500Y-125997800I0J225000D01*
G01*
X104431500Y-125497800D01*
G75*
G02*
X104656500Y-125272800I225000J0D01*
G01*
X105106500Y-125272800D01*
G75*
G02*
X105331500Y-125497800I0J-225000D01*
G01*
G37*
%TD*%
%TO.C,R13*%
G36*
G01*
X97281500Y-125397800D02*
X97281500Y-125897800D01*
G75*
G02*
X97056500Y-126122800I-225000J0D01*
G01*
X96606500Y-126122800D01*
G75*
G02*
X96381500Y-125897800I0J225000D01*
G01*
X96381500Y-125397800D01*
G75*
G02*
X96606500Y-125172800I225000J0D01*
G01*
X97056500Y-125172800D01*
G75*
G02*
X97281500Y-125397800I0J-225000D01*
G01*
G37*
G36*
G01*
X98831500Y-125397800D02*
X98831500Y-125897800D01*
G75*
G02*
X98606500Y-126122800I-225000J0D01*
G01*
X98156500Y-126122800D01*
G75*
G02*
X97931500Y-125897800I0J225000D01*
G01*
X97931500Y-125397800D01*
G75*
G02*
X98156500Y-125172800I225000J0D01*
G01*
X98606500Y-125172800D01*
G75*
G02*
X98831500Y-125397800I0J-225000D01*
G01*
G37*
%TD*%
D10*
%TO.C,X1*%
G36*
X156741492Y-121166937D02*
G01*
X155927377Y-120586234D01*
X156914572Y-119202237D01*
X157728687Y-119782940D01*
X156741492Y-121166937D01*
G37*
G36*
X154064451Y-124920009D02*
G01*
X153250335Y-124339307D01*
X154748549Y-122238889D01*
X155562665Y-122819591D01*
X154064451Y-124920009D01*
G37*
G36*
X155113261Y-120005531D02*
G01*
X154299146Y-119424828D01*
X155286341Y-118040831D01*
X156100456Y-118621534D01*
X155113261Y-120005531D01*
G37*
G36*
X152436220Y-123758603D02*
G01*
X151622104Y-123177901D01*
X153120318Y-121077483D01*
X153934434Y-121658185D01*
X152436220Y-123758603D01*
G37*
G36*
X153485030Y-118844125D02*
G01*
X152670915Y-118263422D01*
X153658110Y-116879425D01*
X154472225Y-117460128D01*
X153485030Y-118844125D01*
G37*
G36*
X150807989Y-122597197D02*
G01*
X149993873Y-122016495D01*
X151492087Y-119916077D01*
X152306203Y-120496779D01*
X150807989Y-122597197D01*
G37*
G36*
X151856799Y-117682719D02*
G01*
X151042684Y-117102016D01*
X152029879Y-115718019D01*
X152843994Y-116298722D01*
X151856799Y-117682719D01*
G37*
G36*
X149179758Y-121435791D02*
G01*
X148365642Y-120855089D01*
X149863856Y-118754671D01*
X150677972Y-119335373D01*
X149179758Y-121435791D01*
G37*
G36*
X150228568Y-116521313D02*
G01*
X149414453Y-115940610D01*
X150401648Y-114556613D01*
X151215763Y-115137316D01*
X150228568Y-116521313D01*
G37*
G36*
X147551527Y-120274385D02*
G01*
X146737411Y-119693683D01*
X148235625Y-117593265D01*
X149049741Y-118173967D01*
X147551527Y-120274385D01*
G37*
G36*
X148600337Y-115359907D02*
G01*
X147786222Y-114779204D01*
X148773417Y-113395207D01*
X149587532Y-113975910D01*
X148600337Y-115359907D01*
G37*
G36*
X145923296Y-119112979D02*
G01*
X145109180Y-118532277D01*
X146607394Y-116431859D01*
X147421510Y-117012561D01*
X145923296Y-119112979D01*
G37*
G36*
X146972106Y-114198501D02*
G01*
X146157991Y-113617798D01*
X147145186Y-112233801D01*
X147959301Y-112814504D01*
X146972106Y-114198501D01*
G37*
G36*
X144295065Y-117951573D02*
G01*
X143480949Y-117370871D01*
X144979163Y-115270453D01*
X145793279Y-115851155D01*
X144295065Y-117951573D01*
G37*
%TD*%
%TO.C,C9*%
G36*
G01*
X136581500Y-124097800D02*
X136581500Y-124597800D01*
G75*
G02*
X136356500Y-124822800I-225000J0D01*
G01*
X135906500Y-124822800D01*
G75*
G02*
X135681500Y-124597800I0J225000D01*
G01*
X135681500Y-124097800D01*
G75*
G02*
X135906500Y-123872800I225000J0D01*
G01*
X136356500Y-123872800D01*
G75*
G02*
X136581500Y-124097800I0J-225000D01*
G01*
G37*
G36*
G01*
X138131500Y-124097800D02*
X138131500Y-124597800D01*
G75*
G02*
X137906500Y-124822800I-225000J0D01*
G01*
X137456500Y-124822800D01*
G75*
G02*
X137231500Y-124597800I0J225000D01*
G01*
X137231500Y-124097800D01*
G75*
G02*
X137456500Y-123872800I225000J0D01*
G01*
X137906500Y-123872800D01*
G75*
G02*
X138131500Y-124097800I0J-225000D01*
G01*
G37*
%TD*%
%TO.C,C8*%
G36*
G01*
X119631500Y-124597800D02*
X119631500Y-124097800D01*
G75*
G02*
X119856500Y-123872800I225000J0D01*
G01*
X120306500Y-123872800D01*
G75*
G02*
X120531500Y-124097800I0J-225000D01*
G01*
X120531500Y-124597800D01*
G75*
G02*
X120306500Y-124822800I-225000J0D01*
G01*
X119856500Y-124822800D01*
G75*
G02*
X119631500Y-124597800I0J225000D01*
G01*
G37*
G36*
G01*
X118081500Y-124597800D02*
X118081500Y-124097800D01*
G75*
G02*
X118306500Y-123872800I225000J0D01*
G01*
X118756500Y-123872800D01*
G75*
G02*
X118981500Y-124097800I0J-225000D01*
G01*
X118981500Y-124597800D01*
G75*
G02*
X118756500Y-124822800I-225000J0D01*
G01*
X118306500Y-124822800D01*
G75*
G02*
X118081500Y-124597800I0J225000D01*
G01*
G37*
%TD*%
D11*
%TO.C,Y1*%
X132356500Y-124347800D03*
X123856500Y-124347800D03*
%TD*%
D12*
%TO.C,X14*%
X130906500Y-133687800D03*
X130906500Y-131147800D03*
D13*
X130906500Y-128607800D03*
%TD*%
D14*
%TO.C,X5*%
X155014480Y-122744467D03*
X153386249Y-121583061D03*
X151758018Y-120421655D03*
X150129787Y-119260249D03*
X148501556Y-118098843D03*
X146873325Y-116937437D03*
X145245094Y-115776031D03*
X156175886Y-121116235D03*
X154547655Y-119954830D03*
X152919424Y-118793424D03*
X151291193Y-117632018D03*
X149662962Y-116470612D03*
X148034731Y-115309206D03*
G36*
G01*
X145714784Y-114084320D02*
X146121277Y-113514437D01*
G75*
G02*
X146469980Y-113456084I203528J-145175D01*
G01*
X147039863Y-113862577D01*
G75*
G02*
X147098216Y-114211280I-145175J-203528D01*
G01*
X146691723Y-114781163D01*
G75*
G02*
X146343020Y-114839516I-203528J145175D01*
G01*
X145773137Y-114433023D01*
G75*
G02*
X145714784Y-114084320I145175J203528D01*
G01*
G37*
%TD*%
D15*
%TO.C,U2*%
X106506500Y-112727800D03*
X139526500Y-120347800D03*
X109046500Y-112727800D03*
X136986500Y-120347800D03*
X111586500Y-112727800D03*
X134446500Y-120347800D03*
X114126500Y-112727800D03*
X131906500Y-120347800D03*
X116666500Y-112727800D03*
X129366500Y-120347800D03*
X119206500Y-112727800D03*
X126826500Y-120347800D03*
X121746500Y-112727800D03*
X124286500Y-120347800D03*
X124286500Y-112727800D03*
X121746500Y-120347800D03*
X126826500Y-112727800D03*
X119206500Y-120347800D03*
X129366500Y-112727800D03*
X116666500Y-120347800D03*
X131906500Y-112727800D03*
X114126500Y-120347800D03*
X134446500Y-112727800D03*
X111586500Y-120347800D03*
X136986500Y-112727800D03*
X109046500Y-120347800D03*
X139526500Y-112727800D03*
D16*
X106506500Y-120347800D03*
%TD*%
D17*
%TO.C,U1*%
X152506500Y-137247800D03*
D18*
X146206500Y-139527800D03*
X146206500Y-137247800D03*
X146206500Y-134967800D03*
%TD*%
%TO.C,RV1*%
G36*
G01*
X140106500Y-129697801D02*
X140106500Y-128797799D01*
G75*
G02*
X140356499Y-128547800I249999J0D01*
G01*
X140881501Y-128547800D01*
G75*
G02*
X141131500Y-128797799I0J-249999D01*
G01*
X141131500Y-129697801D01*
G75*
G02*
X140881501Y-129947800I-249999J0D01*
G01*
X140356499Y-129947800D01*
G75*
G02*
X140106500Y-129697801I0J249999D01*
G01*
G37*
G36*
G01*
X138281500Y-129697801D02*
X138281500Y-128797799D01*
G75*
G02*
X138531499Y-128547800I249999J0D01*
G01*
X139056501Y-128547800D01*
G75*
G02*
X139306500Y-128797799I0J-249999D01*
G01*
X139306500Y-129697801D01*
G75*
G02*
X139056501Y-129947800I-249999J0D01*
G01*
X138531499Y-129947800D01*
G75*
G02*
X138281500Y-129697801I0J249999D01*
G01*
G37*
%TD*%
%TO.C,R12*%
G36*
G01*
X116281499Y-128947800D02*
X117531501Y-128947800D01*
G75*
G02*
X117781500Y-129197799I0J-249999D01*
G01*
X117781500Y-129822801D01*
G75*
G02*
X117531501Y-130072800I-249999J0D01*
G01*
X116281499Y-130072800D01*
G75*
G02*
X116031500Y-129822801I0J249999D01*
G01*
X116031500Y-129197799D01*
G75*
G02*
X116281499Y-128947800I249999J0D01*
G01*
G37*
G36*
G01*
X116281499Y-126022800D02*
X117531501Y-126022800D01*
G75*
G02*
X117781500Y-126272799I0J-249999D01*
G01*
X117781500Y-126897801D01*
G75*
G02*
X117531501Y-127147800I-249999J0D01*
G01*
X116281499Y-127147800D01*
G75*
G02*
X116031500Y-126897801I0J249999D01*
G01*
X116031500Y-126272799D01*
G75*
G02*
X116281499Y-126022800I249999J0D01*
G01*
G37*
%TD*%
%TO.C,R4*%
G36*
G01*
X101531501Y-126847800D02*
X100281499Y-126847800D01*
G75*
G02*
X100031500Y-126597801I0J249999D01*
G01*
X100031500Y-125972799D01*
G75*
G02*
X100281499Y-125722800I249999J0D01*
G01*
X101531501Y-125722800D01*
G75*
G02*
X101781500Y-125972799I0J-249999D01*
G01*
X101781500Y-126597801D01*
G75*
G02*
X101531501Y-126847800I-249999J0D01*
G01*
G37*
G36*
G01*
X101531501Y-129772800D02*
X100281499Y-129772800D01*
G75*
G02*
X100031500Y-129522801I0J249999D01*
G01*
X100031500Y-128897799D01*
G75*
G02*
X100281499Y-128647800I249999J0D01*
G01*
X101531501Y-128647800D01*
G75*
G02*
X101781500Y-128897799I0J-249999D01*
G01*
X101781500Y-129522801D01*
G75*
G02*
X101531501Y-129772800I-249999J0D01*
G01*
G37*
%TD*%
%TO.C,R3*%
G36*
G01*
X95131501Y-126847800D02*
X93881499Y-126847800D01*
G75*
G02*
X93631500Y-126597801I0J249999D01*
G01*
X93631500Y-125972799D01*
G75*
G02*
X93881499Y-125722800I249999J0D01*
G01*
X95131501Y-125722800D01*
G75*
G02*
X95381500Y-125972799I0J-249999D01*
G01*
X95381500Y-126597801D01*
G75*
G02*
X95131501Y-126847800I-249999J0D01*
G01*
G37*
G36*
G01*
X95131501Y-129772800D02*
X93881499Y-129772800D01*
G75*
G02*
X93631500Y-129522801I0J249999D01*
G01*
X93631500Y-128897799D01*
G75*
G02*
X93881499Y-128647800I249999J0D01*
G01*
X95131501Y-128647800D01*
G75*
G02*
X95381500Y-128897799I0J-249999D01*
G01*
X95381500Y-129522801D01*
G75*
G02*
X95131501Y-129772800I-249999J0D01*
G01*
G37*
%TD*%
%TO.C,R2*%
G36*
G01*
X141981500Y-138597800D02*
X141981500Y-139097800D01*
G75*
G02*
X141756500Y-139322800I-225000J0D01*
G01*
X141306500Y-139322800D01*
G75*
G02*
X141081500Y-139097800I0J225000D01*
G01*
X141081500Y-138597800D01*
G75*
G02*
X141306500Y-138372800I225000J0D01*
G01*
X141756500Y-138372800D01*
G75*
G02*
X141981500Y-138597800I0J-225000D01*
G01*
G37*
G36*
G01*
X143531500Y-138597800D02*
X143531500Y-139097800D01*
G75*
G02*
X143306500Y-139322800I-225000J0D01*
G01*
X142856500Y-139322800D01*
G75*
G02*
X142631500Y-139097800I0J225000D01*
G01*
X142631500Y-138597800D01*
G75*
G02*
X142856500Y-138372800I225000J0D01*
G01*
X143306500Y-138372800D01*
G75*
G02*
X143531500Y-138597800I0J-225000D01*
G01*
G37*
%TD*%
%TO.C,R1*%
G36*
G01*
X134406500Y-128422799D02*
X134406500Y-129672801D01*
G75*
G02*
X134156501Y-129922800I-249999J0D01*
G01*
X133531499Y-129922800D01*
G75*
G02*
X133281500Y-129672801I0J249999D01*
G01*
X133281500Y-128422799D01*
G75*
G02*
X133531499Y-128172800I249999J0D01*
G01*
X134156501Y-128172800D01*
G75*
G02*
X134406500Y-128422799I0J-249999D01*
G01*
G37*
G36*
G01*
X137331500Y-128422799D02*
X137331500Y-129672801D01*
G75*
G02*
X137081501Y-129922800I-249999J0D01*
G01*
X136456499Y-129922800D01*
G75*
G02*
X136206500Y-129672801I0J249999D01*
G01*
X136206500Y-128422799D01*
G75*
G02*
X136456499Y-128172800I249999J0D01*
G01*
X137081501Y-128172800D01*
G75*
G02*
X137331500Y-128422799I0J-249999D01*
G01*
G37*
%TD*%
D19*
%TO.C,Q3*%
X111306500Y-129247800D03*
X110356500Y-127247800D03*
X112256500Y-127247800D03*
%TD*%
%TO.C,Q2*%
X104106500Y-129447800D03*
X103156500Y-127447800D03*
X105056500Y-127447800D03*
%TD*%
%TO.C,Q1*%
X97606500Y-129347800D03*
X96656500Y-127347800D03*
X98556500Y-127347800D03*
%TD*%
D12*
%TO.C,J4*%
X127146500Y-138027800D03*
X124606500Y-138027800D03*
X127146500Y-135487800D03*
X124606500Y-135487800D03*
X127146500Y-132947800D03*
D13*
X124606500Y-132947800D03*
%TD*%
D20*
%TO.C,J3*%
X162006500Y-137947800D03*
%TD*%
%TO.C,J2*%
X104106500Y-134647800D03*
%TD*%
%TO.C,J1*%
X97206500Y-134647800D03*
%TD*%
D21*
%TO.C,H2*%
X84906500Y-131147800D03*
%TD*%
%TO.C,H1*%
X157906500Y-131147800D03*
%TD*%
D22*
%TO.C,D1*%
X137406500Y-131747800D03*
X137406500Y-135747800D03*
%TD*%
%TO.C,C22*%
G36*
G01*
X142281500Y-119997800D02*
X142281500Y-120497800D01*
G75*
G02*
X142056500Y-120722800I-225000J0D01*
G01*
X141606500Y-120722800D01*
G75*
G02*
X141381500Y-120497800I0J225000D01*
G01*
X141381500Y-119997800D01*
G75*
G02*
X141606500Y-119772800I225000J0D01*
G01*
X142056500Y-119772800D01*
G75*
G02*
X142281500Y-119997800I0J-225000D01*
G01*
G37*
G36*
G01*
X143831500Y-119997800D02*
X143831500Y-120497800D01*
G75*
G02*
X143606500Y-120722800I-225000J0D01*
G01*
X143156500Y-120722800D01*
G75*
G02*
X142931500Y-120497800I0J225000D01*
G01*
X142931500Y-119997800D01*
G75*
G02*
X143156500Y-119772800I225000J0D01*
G01*
X143606500Y-119772800D01*
G75*
G02*
X143831500Y-119997800I0J-225000D01*
G01*
G37*
%TD*%
%TO.C,C21*%
G36*
G01*
X142281500Y-122997800D02*
X142281500Y-123497800D01*
G75*
G02*
X142056500Y-123722800I-225000J0D01*
G01*
X141606500Y-123722800D01*
G75*
G02*
X141381500Y-123497800I0J225000D01*
G01*
X141381500Y-122997800D01*
G75*
G02*
X141606500Y-122772800I225000J0D01*
G01*
X142056500Y-122772800D01*
G75*
G02*
X142281500Y-122997800I0J-225000D01*
G01*
G37*
G36*
G01*
X143831500Y-122997800D02*
X143831500Y-123497800D01*
G75*
G02*
X143606500Y-123722800I-225000J0D01*
G01*
X143156500Y-123722800D01*
G75*
G02*
X142931500Y-123497800I0J225000D01*
G01*
X142931500Y-122997800D01*
G75*
G02*
X143156500Y-122772800I225000J0D01*
G01*
X143606500Y-122772800D01*
G75*
G02*
X143831500Y-122997800I0J-225000D01*
G01*
G37*
%TD*%
%TO.C,C20*%
G36*
G01*
X146556500Y-123372800D02*
X147056500Y-123372800D01*
G75*
G02*
X147281500Y-123597800I0J-225000D01*
G01*
X147281500Y-124047800D01*
G75*
G02*
X147056500Y-124272800I-225000J0D01*
G01*
X146556500Y-124272800D01*
G75*
G02*
X146331500Y-124047800I0J225000D01*
G01*
X146331500Y-123597800D01*
G75*
G02*
X146556500Y-123372800I225000J0D01*
G01*
G37*
G36*
G01*
X146556500Y-121822800D02*
X147056500Y-121822800D01*
G75*
G02*
X147281500Y-122047800I0J-225000D01*
G01*
X147281500Y-122497800D01*
G75*
G02*
X147056500Y-122722800I-225000J0D01*
G01*
X146556500Y-122722800D01*
G75*
G02*
X146331500Y-122497800I0J225000D01*
G01*
X146331500Y-122047800D01*
G75*
G02*
X146556500Y-121822800I225000J0D01*
G01*
G37*
%TD*%
%TO.C,C19*%
G36*
G01*
X147856500Y-126372800D02*
X148356500Y-126372800D01*
G75*
G02*
X148581500Y-126597800I0J-225000D01*
G01*
X148581500Y-127047800D01*
G75*
G02*
X148356500Y-127272800I-225000J0D01*
G01*
X147856500Y-127272800D01*
G75*
G02*
X147631500Y-127047800I0J225000D01*
G01*
X147631500Y-126597800D01*
G75*
G02*
X147856500Y-126372800I225000J0D01*
G01*
G37*
G36*
G01*
X147856500Y-124822800D02*
X148356500Y-124822800D01*
G75*
G02*
X148581500Y-125047800I0J-225000D01*
G01*
X148581500Y-125497800D01*
G75*
G02*
X148356500Y-125722800I-225000J0D01*
G01*
X147856500Y-125722800D01*
G75*
G02*
X147631500Y-125497800I0J225000D01*
G01*
X147631500Y-125047800D01*
G75*
G02*
X147856500Y-124822800I225000J0D01*
G01*
G37*
%TD*%
%TO.C,C18*%
G36*
G01*
X149981500Y-124697800D02*
X149981500Y-125197800D01*
G75*
G02*
X149756500Y-125422800I-225000J0D01*
G01*
X149306500Y-125422800D01*
G75*
G02*
X149081500Y-125197800I0J225000D01*
G01*
X149081500Y-124697800D01*
G75*
G02*
X149306500Y-124472800I225000J0D01*
G01*
X149756500Y-124472800D01*
G75*
G02*
X149981500Y-124697800I0J-225000D01*
G01*
G37*
G36*
G01*
X151531500Y-124697800D02*
X151531500Y-125197800D01*
G75*
G02*
X151306500Y-125422800I-225000J0D01*
G01*
X150856500Y-125422800D01*
G75*
G02*
X150631500Y-125197800I0J225000D01*
G01*
X150631500Y-124697800D01*
G75*
G02*
X150856500Y-124472800I225000J0D01*
G01*
X151306500Y-124472800D01*
G75*
G02*
X151531500Y-124697800I0J-225000D01*
G01*
G37*
%TD*%
%TO.C,C17*%
G36*
G01*
X153331500Y-128497800D02*
X153331500Y-127997800D01*
G75*
G02*
X153556500Y-127772800I225000J0D01*
G01*
X154006500Y-127772800D01*
G75*
G02*
X154231500Y-127997800I0J-225000D01*
G01*
X154231500Y-128497800D01*
G75*
G02*
X154006500Y-128722800I-225000J0D01*
G01*
X153556500Y-128722800D01*
G75*
G02*
X153331500Y-128497800I0J225000D01*
G01*
G37*
G36*
G01*
X151781500Y-128497800D02*
X151781500Y-127997800D01*
G75*
G02*
X152006500Y-127772800I225000J0D01*
G01*
X152456500Y-127772800D01*
G75*
G02*
X152681500Y-127997800I0J-225000D01*
G01*
X152681500Y-128497800D01*
G75*
G02*
X152456500Y-128722800I-225000J0D01*
G01*
X152006500Y-128722800D01*
G75*
G02*
X151781500Y-128497800I0J225000D01*
G01*
G37*
%TD*%
%TO.C,C16*%
G36*
G01*
X160031500Y-123597800D02*
X160031500Y-123097800D01*
G75*
G02*
X160256500Y-122872800I225000J0D01*
G01*
X160706500Y-122872800D01*
G75*
G02*
X160931500Y-123097800I0J-225000D01*
G01*
X160931500Y-123597800D01*
G75*
G02*
X160706500Y-123822800I-225000J0D01*
G01*
X160256500Y-123822800D01*
G75*
G02*
X160031500Y-123597800I0J225000D01*
G01*
G37*
G36*
G01*
X158481500Y-123597800D02*
X158481500Y-123097800D01*
G75*
G02*
X158706500Y-122872800I225000J0D01*
G01*
X159156500Y-122872800D01*
G75*
G02*
X159381500Y-123097800I0J-225000D01*
G01*
X159381500Y-123597800D01*
G75*
G02*
X159156500Y-123822800I-225000J0D01*
G01*
X158706500Y-123822800D01*
G75*
G02*
X158481500Y-123597800I0J225000D01*
G01*
G37*
%TD*%
%TO.C,C15*%
G36*
G01*
X154131500Y-126897800D02*
X154131500Y-126397800D01*
G75*
G02*
X154356500Y-126172800I225000J0D01*
G01*
X154806500Y-126172800D01*
G75*
G02*
X155031500Y-126397800I0J-225000D01*
G01*
X155031500Y-126897800D01*
G75*
G02*
X154806500Y-127122800I-225000J0D01*
G01*
X154356500Y-127122800D01*
G75*
G02*
X154131500Y-126897800I0J225000D01*
G01*
G37*
G36*
G01*
X152581500Y-126897800D02*
X152581500Y-126397800D01*
G75*
G02*
X152806500Y-126172800I225000J0D01*
G01*
X153256500Y-126172800D01*
G75*
G02*
X153481500Y-126397800I0J-225000D01*
G01*
X153481500Y-126897800D01*
G75*
G02*
X153256500Y-127122800I-225000J0D01*
G01*
X152806500Y-127122800D01*
G75*
G02*
X152581500Y-126897800I0J225000D01*
G01*
G37*
%TD*%
%TO.C,C14*%
G36*
G01*
X149981500Y-126197800D02*
X149981500Y-126697800D01*
G75*
G02*
X149756500Y-126922800I-225000J0D01*
G01*
X149306500Y-126922800D01*
G75*
G02*
X149081500Y-126697800I0J225000D01*
G01*
X149081500Y-126197800D01*
G75*
G02*
X149306500Y-125972800I225000J0D01*
G01*
X149756500Y-125972800D01*
G75*
G02*
X149981500Y-126197800I0J-225000D01*
G01*
G37*
G36*
G01*
X151531500Y-126197800D02*
X151531500Y-126697800D01*
G75*
G02*
X151306500Y-126922800I-225000J0D01*
G01*
X150856500Y-126922800D01*
G75*
G02*
X150631500Y-126697800I0J225000D01*
G01*
X150631500Y-126197800D01*
G75*
G02*
X150856500Y-125972800I225000J0D01*
G01*
X151306500Y-125972800D01*
G75*
G02*
X151531500Y-126197800I0J-225000D01*
G01*
G37*
%TD*%
%TO.C,C13*%
G36*
G01*
X146356500Y-126372800D02*
X146856500Y-126372800D01*
G75*
G02*
X147081500Y-126597800I0J-225000D01*
G01*
X147081500Y-127047800D01*
G75*
G02*
X146856500Y-127272800I-225000J0D01*
G01*
X146356500Y-127272800D01*
G75*
G02*
X146131500Y-127047800I0J225000D01*
G01*
X146131500Y-126597800D01*
G75*
G02*
X146356500Y-126372800I225000J0D01*
G01*
G37*
G36*
G01*
X146356500Y-124822800D02*
X146856500Y-124822800D01*
G75*
G02*
X147081500Y-125047800I0J-225000D01*
G01*
X147081500Y-125497800D01*
G75*
G02*
X146856500Y-125722800I-225000J0D01*
G01*
X146356500Y-125722800D01*
G75*
G02*
X146131500Y-125497800I0J225000D01*
G01*
X146131500Y-125047800D01*
G75*
G02*
X146356500Y-124822800I225000J0D01*
G01*
G37*
%TD*%
%TO.C,C12*%
G36*
G01*
X145056500Y-123372800D02*
X145556500Y-123372800D01*
G75*
G02*
X145781500Y-123597800I0J-225000D01*
G01*
X145781500Y-124047800D01*
G75*
G02*
X145556500Y-124272800I-225000J0D01*
G01*
X145056500Y-124272800D01*
G75*
G02*
X144831500Y-124047800I0J225000D01*
G01*
X144831500Y-123597800D01*
G75*
G02*
X145056500Y-123372800I225000J0D01*
G01*
G37*
G36*
G01*
X145056500Y-121822800D02*
X145556500Y-121822800D01*
G75*
G02*
X145781500Y-122047800I0J-225000D01*
G01*
X145781500Y-122497800D01*
G75*
G02*
X145556500Y-122722800I-225000J0D01*
G01*
X145056500Y-122722800D01*
G75*
G02*
X144831500Y-122497800I0J225000D01*
G01*
X144831500Y-122047800D01*
G75*
G02*
X145056500Y-121822800I225000J0D01*
G01*
G37*
%TD*%
%TO.C,C11*%
G36*
G01*
X142281500Y-121497800D02*
X142281500Y-121997800D01*
G75*
G02*
X142056500Y-122222800I-225000J0D01*
G01*
X141606500Y-122222800D01*
G75*
G02*
X141381500Y-121997800I0J225000D01*
G01*
X141381500Y-121497800D01*
G75*
G02*
X141606500Y-121272800I225000J0D01*
G01*
X142056500Y-121272800D01*
G75*
G02*
X142281500Y-121497800I0J-225000D01*
G01*
G37*
G36*
G01*
X143831500Y-121497800D02*
X143831500Y-121997800D01*
G75*
G02*
X143606500Y-122222800I-225000J0D01*
G01*
X143156500Y-122222800D01*
G75*
G02*
X142931500Y-121997800I0J225000D01*
G01*
X142931500Y-121497800D01*
G75*
G02*
X143156500Y-121272800I225000J0D01*
G01*
X143606500Y-121272800D01*
G75*
G02*
X143831500Y-121497800I0J-225000D01*
G01*
G37*
%TD*%
%TO.C,C10*%
G36*
G01*
X142281500Y-118497800D02*
X142281500Y-118997800D01*
G75*
G02*
X142056500Y-119222800I-225000J0D01*
G01*
X141606500Y-119222800D01*
G75*
G02*
X141381500Y-118997800I0J225000D01*
G01*
X141381500Y-118497800D01*
G75*
G02*
X141606500Y-118272800I225000J0D01*
G01*
X142056500Y-118272800D01*
G75*
G02*
X142281500Y-118497800I0J-225000D01*
G01*
G37*
G36*
G01*
X143831500Y-118497800D02*
X143831500Y-118997800D01*
G75*
G02*
X143606500Y-119222800I-225000J0D01*
G01*
X143156500Y-119222800D01*
G75*
G02*
X142931500Y-118997800I0J225000D01*
G01*
X142931500Y-118497800D01*
G75*
G02*
X143156500Y-118272800I225000J0D01*
G01*
X143606500Y-118272800D01*
G75*
G02*
X143831500Y-118497800I0J-225000D01*
G01*
G37*
%TD*%
%TO.C,C5*%
G36*
G01*
X141981500Y-140097800D02*
X141981500Y-140597800D01*
G75*
G02*
X141756500Y-140822800I-225000J0D01*
G01*
X141306500Y-140822800D01*
G75*
G02*
X141081500Y-140597800I0J225000D01*
G01*
X141081500Y-140097800D01*
G75*
G02*
X141306500Y-139872800I225000J0D01*
G01*
X141756500Y-139872800D01*
G75*
G02*
X141981500Y-140097800I0J-225000D01*
G01*
G37*
G36*
G01*
X143531500Y-140097800D02*
X143531500Y-140597800D01*
G75*
G02*
X143306500Y-140822800I-225000J0D01*
G01*
X142856500Y-140822800D01*
G75*
G02*
X142631500Y-140597800I0J225000D01*
G01*
X142631500Y-140097800D01*
G75*
G02*
X142856500Y-139872800I225000J0D01*
G01*
X143306500Y-139872800D01*
G75*
G02*
X143531500Y-140097800I0J-225000D01*
G01*
G37*
%TD*%
%TO.C,C4*%
G36*
G01*
X141681500Y-132297800D02*
X140731500Y-132297800D01*
G75*
G02*
X140481500Y-132047800I0J250000D01*
G01*
X140481500Y-131547800D01*
G75*
G02*
X140731500Y-131297800I250000J0D01*
G01*
X141681500Y-131297800D01*
G75*
G02*
X141931500Y-131547800I0J-250000D01*
G01*
X141931500Y-132047800D01*
G75*
G02*
X141681500Y-132297800I-250000J0D01*
G01*
G37*
G36*
G01*
X141681500Y-134197800D02*
X140731500Y-134197800D01*
G75*
G02*
X140481500Y-133947800I0J250000D01*
G01*
X140481500Y-133447800D01*
G75*
G02*
X140731500Y-133197800I250000J0D01*
G01*
X141681500Y-133197800D01*
G75*
G02*
X141931500Y-133447800I0J-250000D01*
G01*
X141931500Y-133947800D01*
G75*
G02*
X141681500Y-134197800I-250000J0D01*
G01*
G37*
%TD*%
%TO.C,C3*%
G36*
G01*
X142831500Y-136697800D02*
X143781500Y-136697800D01*
G75*
G02*
X144031500Y-136947800I0J-250000D01*
G01*
X144031500Y-137447800D01*
G75*
G02*
X143781500Y-137697800I-250000J0D01*
G01*
X142831500Y-137697800D01*
G75*
G02*
X142581500Y-137447800I0J250000D01*
G01*
X142581500Y-136947800D01*
G75*
G02*
X142831500Y-136697800I250000J0D01*
G01*
G37*
G36*
G01*
X142831500Y-134797800D02*
X143781500Y-134797800D01*
G75*
G02*
X144031500Y-135047800I0J-250000D01*
G01*
X144031500Y-135547800D01*
G75*
G02*
X143781500Y-135797800I-250000J0D01*
G01*
X142831500Y-135797800D01*
G75*
G02*
X142581500Y-135547800I0J250000D01*
G01*
X142581500Y-135047800D01*
G75*
G02*
X142831500Y-134797800I250000J0D01*
G01*
G37*
%TD*%
%TO.C,C2*%
G36*
G01*
X140731500Y-136697800D02*
X141681500Y-136697800D01*
G75*
G02*
X141931500Y-136947800I0J-250000D01*
G01*
X141931500Y-137447800D01*
G75*
G02*
X141681500Y-137697800I-250000J0D01*
G01*
X140731500Y-137697800D01*
G75*
G02*
X140481500Y-137447800I0J250000D01*
G01*
X140481500Y-136947800D01*
G75*
G02*
X140731500Y-136697800I250000J0D01*
G01*
G37*
G36*
G01*
X140731500Y-134797800D02*
X141681500Y-134797800D01*
G75*
G02*
X141931500Y-135047800I0J-250000D01*
G01*
X141931500Y-135547800D01*
G75*
G02*
X141681500Y-135797800I-250000J0D01*
G01*
X140731500Y-135797800D01*
G75*
G02*
X140481500Y-135547800I0J250000D01*
G01*
X140481500Y-135047800D01*
G75*
G02*
X140731500Y-134797800I250000J0D01*
G01*
G37*
%TD*%
%TO.C,C1*%
G36*
G01*
X143781500Y-132297800D02*
X142831500Y-132297800D01*
G75*
G02*
X142581500Y-132047800I0J250000D01*
G01*
X142581500Y-131547800D01*
G75*
G02*
X142831500Y-131297800I250000J0D01*
G01*
X143781500Y-131297800D01*
G75*
G02*
X144031500Y-131547800I0J-250000D01*
G01*
X144031500Y-132047800D01*
G75*
G02*
X143781500Y-132297800I-250000J0D01*
G01*
G37*
G36*
G01*
X143781500Y-134197800D02*
X142831500Y-134197800D01*
G75*
G02*
X142581500Y-133947800I0J250000D01*
G01*
X142581500Y-133447800D01*
G75*
G02*
X142831500Y-133197800I250000J0D01*
G01*
X143781500Y-133197800D01*
G75*
G02*
X144031500Y-133447800I0J-250000D01*
G01*
X144031500Y-133947800D01*
G75*
G02*
X143781500Y-134197800I-250000J0D01*
G01*
G37*
%TD*%
D23*
%TO.C,BZ1*%
X112206500Y-132147800D03*
X112206500Y-139147800D03*
X119206500Y-139147800D03*
X119206500Y-132147800D03*
%TD*%
M02*
