%TF.GenerationSoftware,KiCad,Pcbnew,(5.1.9)-1*%
%TF.CreationDate,2021-10-08T19:18:35+02:00*%
%TF.ProjectId,multi_steering_kenwood_K24MSWK1MA,6d756c74-695f-4737-9465-6572696e675f,rev?*%
%TF.SameCoordinates,Original*%
%TF.FileFunction,Copper,L2,Bot*%
%TF.FilePolarity,Positive*%
%FSLAX46Y46*%
G04 Gerber Fmt 4.6, Leading zero omitted, Abs format (unit mm)*
G04 Created by KiCad (PCBNEW (5.1.9)-1) date 2021-10-08 19:18:35*
%MOMM*%
%LPD*%
G01*
G04 APERTURE LIST*
%TA.AperFunction,ComponentPad*%
%ADD10O,1.700000X1.700000*%
%TD*%
%TA.AperFunction,ComponentPad*%
%ADD11R,1.700000X1.700000*%
%TD*%
%TA.AperFunction,ComponentPad*%
%ADD12C,1.200000*%
%TD*%
%TA.AperFunction,ComponentPad*%
%ADD13O,1.600000X1.600000*%
%TD*%
%TA.AperFunction,ComponentPad*%
%ADD14R,1.600000X1.600000*%
%TD*%
%TA.AperFunction,ViaPad*%
%ADD15C,0.600000*%
%TD*%
%TA.AperFunction,ViaPad*%
%ADD16C,0.800000*%
%TD*%
%TA.AperFunction,Conductor*%
%ADD17C,0.400000*%
%TD*%
%TA.AperFunction,Conductor*%
%ADD18C,1.000000*%
%TD*%
%TA.AperFunction,Conductor*%
%ADD19C,0.200000*%
%TD*%
%TA.AperFunction,Conductor*%
%ADD20C,0.150000*%
%TD*%
%TA.AperFunction,Conductor*%
%ADD21C,0.250000*%
%TD*%
%TA.AperFunction,Conductor*%
%ADD22C,0.254000*%
%TD*%
%TA.AperFunction,Conductor*%
%ADD23C,0.100000*%
%TD*%
%TA.AperFunction,Conductor*%
%ADD24C,0.300000*%
%TD*%
G04 APERTURE END LIST*
D10*
%TO.P,X14,3*%
%TO.N,GND*%
X130906500Y-133687800D03*
%TO.P,X14,2*%
X130906500Y-131147800D03*
D11*
%TO.P,X14,1*%
%TO.N,+12VA*%
X130906500Y-128607800D03*
%TD*%
D12*
%TO.P,X5,14*%
%TO.N,GND*%
X155014480Y-122744467D03*
%TO.P,X5,12*%
%TO.N,/UP*%
X153386249Y-121583061D03*
%TO.P,X5,10*%
%TO.N,/RIGHT*%
X151758018Y-120421655D03*
%TO.P,X5,8*%
%TO.N,/RSVD8*%
X150129787Y-119260249D03*
%TO.P,X5,6*%
%TO.N,/RSVD6*%
X148501556Y-118098843D03*
%TO.P,X5,4*%
%TO.N,/RSVD4*%
X146873325Y-116937437D03*
%TO.P,X5,2*%
%TO.N,/LEFT*%
X145245094Y-115776031D03*
%TO.P,X5,13*%
%TO.N,/HORN*%
X156175886Y-121116235D03*
%TO.P,X5,11*%
%TO.N,/DOWN*%
X154547655Y-119954830D03*
%TO.P,X5,9*%
%TO.N,/VOLM*%
X152919424Y-118793424D03*
%TO.P,X5,7*%
%TO.N,/RSVD7*%
X151291193Y-117632018D03*
%TO.P,X5,5*%
%TO.N,/RSVD5*%
X149662962Y-116470612D03*
%TO.P,X5,3*%
%TO.N,/VOLP*%
X148034731Y-115309206D03*
%TO.P,X5,1*%
%TO.N,/RSVD1*%
%TA.AperFunction,ComponentPad*%
G36*
G01*
X145714784Y-114084320D02*
X146121277Y-113514437D01*
G75*
G02*
X146469980Y-113456084I203528J-145175D01*
G01*
X147039863Y-113862577D01*
G75*
G02*
X147098216Y-114211280I-145175J-203528D01*
G01*
X146691723Y-114781163D01*
G75*
G02*
X146343020Y-114839516I-203528J145175D01*
G01*
X145773137Y-114433023D01*
G75*
G02*
X145714784Y-114084320I145175J203528D01*
G01*
G37*
%TD.AperFunction*%
%TD*%
D13*
%TO.P,U2,28*%
%TO.N,Net-(R11-Pad2)*%
X106506500Y-112727800D03*
%TO.P,U2,14*%
%TO.N,/BUZ_EN*%
X139526500Y-120347800D03*
%TO.P,U2,27*%
%TO.N,Net-(R9-Pad2)*%
X109046500Y-112727800D03*
%TO.P,U2,13*%
%TO.N,/UP*%
X136986500Y-120347800D03*
%TO.P,U2,26*%
%TO.N,Net-(R8-Pad2)*%
X111586500Y-112727800D03*
%TO.P,U2,12*%
%TO.N,/RIGHT*%
X134446500Y-120347800D03*
%TO.P,U2,25*%
%TO.N,Net-(R7-Pad2)*%
X114126500Y-112727800D03*
%TO.P,U2,11*%
%TO.N,/VOLM*%
X131906500Y-120347800D03*
%TO.P,U2,24*%
%TO.N,Net-(R6-Pad2)*%
X116666500Y-112727800D03*
%TO.P,U2,10*%
%TO.N,Net-(C9-Pad2)*%
X129366500Y-120347800D03*
%TO.P,U2,23*%
%TO.N,Net-(R5-Pad2)*%
X119206500Y-112727800D03*
%TO.P,U2,9*%
%TO.N,Net-(C8-Pad2)*%
X126826500Y-120347800D03*
%TO.P,U2,22*%
%TO.N,GND*%
X121746500Y-112727800D03*
%TO.P,U2,8*%
X124286500Y-120347800D03*
%TO.P,U2,21*%
%TO.N,Net-(U2-Pad21)*%
X124286500Y-112727800D03*
%TO.P,U2,7*%
%TO.N,+5V*%
X121746500Y-120347800D03*
%TO.P,U2,20*%
X126826500Y-112727800D03*
%TO.P,U2,6*%
%TO.N,/DOWN*%
X119206500Y-120347800D03*
%TO.P,U2,19*%
%TO.N,/SCK*%
X129366500Y-112727800D03*
%TO.P,U2,5*%
%TO.N,/VOLP*%
X116666500Y-120347800D03*
%TO.P,U2,18*%
%TO.N,/MISO*%
X131906500Y-112727800D03*
%TO.P,U2,4*%
%TO.N,/LEFT*%
X114126500Y-120347800D03*
%TO.P,U2,17*%
%TO.N,/MOSI*%
X134446500Y-112727800D03*
%TO.P,U2,3*%
%TO.N,/MUTE*%
X111586500Y-120347800D03*
%TO.P,U2,16*%
%TO.N,Net-(U2-Pad16)*%
X136986500Y-112727800D03*
%TO.P,U2,2*%
%TO.N,/REM*%
X109046500Y-120347800D03*
%TO.P,U2,15*%
%TO.N,Net-(U2-Pad15)*%
X139526500Y-112727800D03*
D14*
%TO.P,U2,1*%
%TO.N,/RST*%
X106506500Y-120347800D03*
%TD*%
%TO.P,R11,2*%
%TO.N,Net-(R11-Pad2)*%
%TA.AperFunction,SMDPad,CuDef*%
G36*
G01*
X107031500Y-114872800D02*
X107031500Y-115422800D01*
G75*
G02*
X106831500Y-115622800I-200000J0D01*
G01*
X106431500Y-115622800D01*
G75*
G02*
X106231500Y-115422800I0J200000D01*
G01*
X106231500Y-114872800D01*
G75*
G02*
X106431500Y-114672800I200000J0D01*
G01*
X106831500Y-114672800D01*
G75*
G02*
X107031500Y-114872800I0J-200000D01*
G01*
G37*
%TD.AperFunction*%
%TO.P,R11,1*%
%TO.N,/RSVD8*%
%TA.AperFunction,SMDPad,CuDef*%
G36*
G01*
X108681500Y-114872800D02*
X108681500Y-115422800D01*
G75*
G02*
X108481500Y-115622800I-200000J0D01*
G01*
X108081500Y-115622800D01*
G75*
G02*
X107881500Y-115422800I0J200000D01*
G01*
X107881500Y-114872800D01*
G75*
G02*
X108081500Y-114672800I200000J0D01*
G01*
X108481500Y-114672800D01*
G75*
G02*
X108681500Y-114872800I0J-200000D01*
G01*
G37*
%TD.AperFunction*%
%TD*%
%TO.P,R10,2*%
%TO.N,/RST*%
%TA.AperFunction,SMDPad,CuDef*%
G36*
G01*
X106981500Y-117897800D02*
X106981500Y-118397800D01*
G75*
G02*
X106756500Y-118622800I-225000J0D01*
G01*
X106306500Y-118622800D01*
G75*
G02*
X106081500Y-118397800I0J225000D01*
G01*
X106081500Y-117897800D01*
G75*
G02*
X106306500Y-117672800I225000J0D01*
G01*
X106756500Y-117672800D01*
G75*
G02*
X106981500Y-117897800I0J-225000D01*
G01*
G37*
%TD.AperFunction*%
%TO.P,R10,1*%
%TO.N,+5V*%
%TA.AperFunction,SMDPad,CuDef*%
G36*
G01*
X108531500Y-117897800D02*
X108531500Y-118397800D01*
G75*
G02*
X108306500Y-118622800I-225000J0D01*
G01*
X107856500Y-118622800D01*
G75*
G02*
X107631500Y-118397800I0J225000D01*
G01*
X107631500Y-117897800D01*
G75*
G02*
X107856500Y-117672800I225000J0D01*
G01*
X108306500Y-117672800D01*
G75*
G02*
X108531500Y-117897800I0J-225000D01*
G01*
G37*
%TD.AperFunction*%
%TD*%
%TO.P,R9,2*%
%TO.N,Net-(R9-Pad2)*%
%TA.AperFunction,SMDPad,CuDef*%
G36*
G01*
X109981500Y-115222800D02*
X109431500Y-115222800D01*
G75*
G02*
X109231500Y-115022800I0J200000D01*
G01*
X109231500Y-114622800D01*
G75*
G02*
X109431500Y-114422800I200000J0D01*
G01*
X109981500Y-114422800D01*
G75*
G02*
X110181500Y-114622800I0J-200000D01*
G01*
X110181500Y-115022800D01*
G75*
G02*
X109981500Y-115222800I-200000J0D01*
G01*
G37*
%TD.AperFunction*%
%TO.P,R9,1*%
%TO.N,/RSVD6*%
%TA.AperFunction,SMDPad,CuDef*%
G36*
G01*
X109981500Y-116872800D02*
X109431500Y-116872800D01*
G75*
G02*
X109231500Y-116672800I0J200000D01*
G01*
X109231500Y-116272800D01*
G75*
G02*
X109431500Y-116072800I200000J0D01*
G01*
X109981500Y-116072800D01*
G75*
G02*
X110181500Y-116272800I0J-200000D01*
G01*
X110181500Y-116672800D01*
G75*
G02*
X109981500Y-116872800I-200000J0D01*
G01*
G37*
%TD.AperFunction*%
%TD*%
%TO.P,R8,2*%
%TO.N,Net-(R8-Pad2)*%
%TA.AperFunction,SMDPad,CuDef*%
G36*
G01*
X111981500Y-115222800D02*
X111431500Y-115222800D01*
G75*
G02*
X111231500Y-115022800I0J200000D01*
G01*
X111231500Y-114622800D01*
G75*
G02*
X111431500Y-114422800I200000J0D01*
G01*
X111981500Y-114422800D01*
G75*
G02*
X112181500Y-114622800I0J-200000D01*
G01*
X112181500Y-115022800D01*
G75*
G02*
X111981500Y-115222800I-200000J0D01*
G01*
G37*
%TD.AperFunction*%
%TO.P,R8,1*%
%TO.N,/RSVD4*%
%TA.AperFunction,SMDPad,CuDef*%
G36*
G01*
X111981500Y-116872800D02*
X111431500Y-116872800D01*
G75*
G02*
X111231500Y-116672800I0J200000D01*
G01*
X111231500Y-116272800D01*
G75*
G02*
X111431500Y-116072800I200000J0D01*
G01*
X111981500Y-116072800D01*
G75*
G02*
X112181500Y-116272800I0J-200000D01*
G01*
X112181500Y-116672800D01*
G75*
G02*
X111981500Y-116872800I-200000J0D01*
G01*
G37*
%TD.AperFunction*%
%TD*%
%TO.P,R7,2*%
%TO.N,Net-(R7-Pad2)*%
%TA.AperFunction,SMDPad,CuDef*%
G36*
G01*
X114481500Y-115222800D02*
X113931500Y-115222800D01*
G75*
G02*
X113731500Y-115022800I0J200000D01*
G01*
X113731500Y-114622800D01*
G75*
G02*
X113931500Y-114422800I200000J0D01*
G01*
X114481500Y-114422800D01*
G75*
G02*
X114681500Y-114622800I0J-200000D01*
G01*
X114681500Y-115022800D01*
G75*
G02*
X114481500Y-115222800I-200000J0D01*
G01*
G37*
%TD.AperFunction*%
%TO.P,R7,1*%
%TO.N,/RSVD5*%
%TA.AperFunction,SMDPad,CuDef*%
G36*
G01*
X114481500Y-116872800D02*
X113931500Y-116872800D01*
G75*
G02*
X113731500Y-116672800I0J200000D01*
G01*
X113731500Y-116272800D01*
G75*
G02*
X113931500Y-116072800I200000J0D01*
G01*
X114481500Y-116072800D01*
G75*
G02*
X114681500Y-116272800I0J-200000D01*
G01*
X114681500Y-116672800D01*
G75*
G02*
X114481500Y-116872800I-200000J0D01*
G01*
G37*
%TD.AperFunction*%
%TD*%
%TO.P,R6,2*%
%TO.N,Net-(R6-Pad2)*%
%TA.AperFunction,SMDPad,CuDef*%
G36*
G01*
X117231500Y-115222800D02*
X116681500Y-115222800D01*
G75*
G02*
X116481500Y-115022800I0J200000D01*
G01*
X116481500Y-114622800D01*
G75*
G02*
X116681500Y-114422800I200000J0D01*
G01*
X117231500Y-114422800D01*
G75*
G02*
X117431500Y-114622800I0J-200000D01*
G01*
X117431500Y-115022800D01*
G75*
G02*
X117231500Y-115222800I-200000J0D01*
G01*
G37*
%TD.AperFunction*%
%TO.P,R6,1*%
%TO.N,/RSVD7*%
%TA.AperFunction,SMDPad,CuDef*%
G36*
G01*
X117231500Y-116872800D02*
X116681500Y-116872800D01*
G75*
G02*
X116481500Y-116672800I0J200000D01*
G01*
X116481500Y-116272800D01*
G75*
G02*
X116681500Y-116072800I200000J0D01*
G01*
X117231500Y-116072800D01*
G75*
G02*
X117431500Y-116272800I0J-200000D01*
G01*
X117431500Y-116672800D01*
G75*
G02*
X117231500Y-116872800I-200000J0D01*
G01*
G37*
%TD.AperFunction*%
%TD*%
%TO.P,R5,2*%
%TO.N,Net-(R5-Pad2)*%
%TA.AperFunction,SMDPad,CuDef*%
G36*
G01*
X118681500Y-115222800D02*
X118131500Y-115222800D01*
G75*
G02*
X117931500Y-115022800I0J200000D01*
G01*
X117931500Y-114622800D01*
G75*
G02*
X118131500Y-114422800I200000J0D01*
G01*
X118681500Y-114422800D01*
G75*
G02*
X118881500Y-114622800I0J-200000D01*
G01*
X118881500Y-115022800D01*
G75*
G02*
X118681500Y-115222800I-200000J0D01*
G01*
G37*
%TD.AperFunction*%
%TO.P,R5,1*%
%TO.N,/RSVD1*%
%TA.AperFunction,SMDPad,CuDef*%
G36*
G01*
X118681500Y-116872800D02*
X118131500Y-116872800D01*
G75*
G02*
X117931500Y-116672800I0J200000D01*
G01*
X117931500Y-116272800D01*
G75*
G02*
X118131500Y-116072800I200000J0D01*
G01*
X118681500Y-116072800D01*
G75*
G02*
X118881500Y-116272800I0J-200000D01*
G01*
X118881500Y-116672800D01*
G75*
G02*
X118681500Y-116872800I-200000J0D01*
G01*
G37*
%TD.AperFunction*%
%TD*%
D10*
%TO.P,J4,6*%
%TO.N,GND*%
X127146500Y-138027800D03*
%TO.P,J4,5*%
%TO.N,/RST*%
X124606500Y-138027800D03*
%TO.P,J4,4*%
%TO.N,/MOSI*%
X127146500Y-135487800D03*
%TO.P,J4,3*%
%TO.N,/SCK*%
X124606500Y-135487800D03*
%TO.P,J4,2*%
%TO.N,+5V*%
X127146500Y-132947800D03*
D11*
%TO.P,J4,1*%
%TO.N,/MISO*%
X124606500Y-132947800D03*
%TD*%
%TO.P,C7,2*%
%TO.N,GND*%
%TA.AperFunction,SMDPad,CuDef*%
G36*
G01*
X123531500Y-118647800D02*
X123531500Y-118147800D01*
G75*
G02*
X123756500Y-117922800I225000J0D01*
G01*
X124206500Y-117922800D01*
G75*
G02*
X124431500Y-118147800I0J-225000D01*
G01*
X124431500Y-118647800D01*
G75*
G02*
X124206500Y-118872800I-225000J0D01*
G01*
X123756500Y-118872800D01*
G75*
G02*
X123531500Y-118647800I0J225000D01*
G01*
G37*
%TD.AperFunction*%
%TO.P,C7,1*%
%TO.N,+5V*%
%TA.AperFunction,SMDPad,CuDef*%
G36*
G01*
X121981500Y-118647800D02*
X121981500Y-118147800D01*
G75*
G02*
X122206500Y-117922800I225000J0D01*
G01*
X122656500Y-117922800D01*
G75*
G02*
X122881500Y-118147800I0J-225000D01*
G01*
X122881500Y-118647800D01*
G75*
G02*
X122656500Y-118872800I-225000J0D01*
G01*
X122206500Y-118872800D01*
G75*
G02*
X121981500Y-118647800I0J225000D01*
G01*
G37*
%TD.AperFunction*%
%TD*%
%TO.P,C6,2*%
%TO.N,GND*%
%TA.AperFunction,SMDPad,CuDef*%
G36*
G01*
X127831500Y-114897800D02*
X127831500Y-114397800D01*
G75*
G02*
X128056500Y-114172800I225000J0D01*
G01*
X128506500Y-114172800D01*
G75*
G02*
X128731500Y-114397800I0J-225000D01*
G01*
X128731500Y-114897800D01*
G75*
G02*
X128506500Y-115122800I-225000J0D01*
G01*
X128056500Y-115122800D01*
G75*
G02*
X127831500Y-114897800I0J225000D01*
G01*
G37*
%TD.AperFunction*%
%TO.P,C6,1*%
%TO.N,+5V*%
%TA.AperFunction,SMDPad,CuDef*%
G36*
G01*
X126281500Y-114897800D02*
X126281500Y-114397800D01*
G75*
G02*
X126506500Y-114172800I225000J0D01*
G01*
X126956500Y-114172800D01*
G75*
G02*
X127181500Y-114397800I0J-225000D01*
G01*
X127181500Y-114897800D01*
G75*
G02*
X126956500Y-115122800I-225000J0D01*
G01*
X126506500Y-115122800D01*
G75*
G02*
X126281500Y-114897800I0J225000D01*
G01*
G37*
%TD.AperFunction*%
%TD*%
D15*
%TO.N,GND*%
X118606500Y-123247800D03*
X117406500Y-124347800D03*
X117506500Y-123347800D03*
X128206500Y-113547800D03*
D16*
X127406500Y-126047800D03*
X128206500Y-124247800D03*
X128006500Y-122747800D03*
X125906500Y-128547800D03*
X127606500Y-129947800D03*
X116206500Y-133647800D03*
X116106500Y-138547800D03*
X113406500Y-136247800D03*
X119606500Y-136047800D03*
X80606500Y-135947800D03*
X84006500Y-139047800D03*
X88506500Y-135747800D03*
X91406500Y-139347800D03*
X91806500Y-133547800D03*
X90406500Y-130347800D03*
X79806500Y-130947800D03*
X81606500Y-125547800D03*
X86706500Y-123947800D03*
X90006500Y-126047800D03*
X88106500Y-120147800D03*
X92006500Y-124047800D03*
X90406500Y-117047800D03*
X95506500Y-121347800D03*
X93106500Y-119047800D03*
X94406500Y-115147800D03*
X99106500Y-121947800D03*
X97706500Y-117547800D03*
X103806500Y-121347800D03*
X99006500Y-113047800D03*
X102506500Y-117747800D03*
X103106500Y-113847800D03*
X120406500Y-114047800D03*
X107806500Y-125947800D03*
X108506500Y-129047800D03*
X111206500Y-125247800D03*
X113906500Y-125847800D03*
X113006500Y-121847800D03*
X113006500Y-115647800D03*
X115606500Y-115647800D03*
X123006500Y-114047800D03*
X142606500Y-112347800D03*
X144206500Y-125847800D03*
X141506500Y-126547800D03*
X143006500Y-129047800D03*
X145006500Y-127447800D03*
X136806500Y-125747800D03*
X138106500Y-125647800D03*
X139006500Y-124447800D03*
X138306500Y-122947800D03*
X136706500Y-122747800D03*
X133006500Y-122647800D03*
X134806500Y-122647800D03*
X123506500Y-126147800D03*
X129606500Y-126047800D03*
X133406500Y-131847800D03*
X134806500Y-136247800D03*
X130206500Y-140147800D03*
X130006500Y-138447800D03*
X122906500Y-140147800D03*
X121806500Y-137347800D03*
X121806500Y-134247800D03*
X122106500Y-131347800D03*
X119706500Y-129547800D03*
X146106500Y-131547800D03*
X148006500Y-129547800D03*
X148506500Y-132947800D03*
X152206500Y-130347800D03*
X152906500Y-133147800D03*
X157506500Y-135847800D03*
X157306500Y-140047800D03*
X164306500Y-133647800D03*
X164006500Y-130747800D03*
X163506500Y-126547800D03*
X162506500Y-125047800D03*
X157506500Y-125647800D03*
X105206500Y-138847800D03*
X97706500Y-138847800D03*
X100006500Y-130847800D03*
X102106500Y-130747800D03*
X101806500Y-124347800D03*
X104106500Y-123847800D03*
X113706500Y-129647800D03*
X120506500Y-127747800D03*
D15*
X119206500Y-125447800D03*
X120706500Y-125447800D03*
D16*
%TO.N,+5V*%
X144306500Y-139647800D03*
X144306500Y-140447800D03*
X144306500Y-138847800D03*
X137406500Y-139447800D03*
X136606500Y-139447800D03*
X135806500Y-139447800D03*
X115506500Y-122747800D03*
D15*
%TO.N,/VOLP*%
X129597868Y-115114494D03*
X128106496Y-118572788D03*
%TO.N,/RSVD7*%
X133306500Y-117947800D03*
X131706500Y-116222759D03*
%TO.N,/DOWN*%
X136806500Y-118447800D03*
X130606500Y-118647800D03*
%TO.N,/RSVD4*%
X133333505Y-116574805D03*
X132373474Y-115583390D03*
%TO.N,/LEFT*%
X130396016Y-115059916D03*
X129040851Y-118572790D03*
%TO.N,/MOSI*%
X130706500Y-121747800D03*
%TO.N,/SCK*%
X124506500Y-121847800D03*
%TO.N,/MISO*%
X125606500Y-121847800D03*
D16*
%TO.N,/BUZ_EN*%
X133106500Y-127347800D03*
D15*
X121206500Y-128847800D03*
X128606500Y-127347800D03*
%TD*%
D17*
%TO.N,GND*%
X128206500Y-114572800D02*
X128281500Y-114647800D01*
X128206500Y-113547800D02*
X128206500Y-114572800D01*
X123981500Y-120042800D02*
X124286500Y-120347800D01*
X123981500Y-118397800D02*
X123981500Y-120042800D01*
D18*
%TO.N,+5V*%
X121746500Y-119107800D02*
X122431500Y-118422800D01*
X121746500Y-120347800D02*
X121746500Y-119107800D01*
X126826500Y-114527800D02*
X126731500Y-114622800D01*
X126826500Y-112727800D02*
X126826500Y-114527800D01*
D19*
X111506500Y-122747800D02*
X115506500Y-122747800D01*
X110306500Y-121547800D02*
X111506500Y-122747800D01*
X110306500Y-119585300D02*
X110306500Y-121547800D01*
X108869000Y-118147800D02*
X110306500Y-119585300D01*
X108081500Y-118147800D02*
X108869000Y-118147800D01*
D20*
%TO.N,/RSVD1*%
X118406500Y-116472800D02*
X120031590Y-114847710D01*
X129006510Y-115104914D02*
X129006510Y-114854850D01*
X129713560Y-114147800D02*
X145683300Y-114147800D01*
X145683300Y-114147800D02*
X146406500Y-114147800D01*
X125701400Y-114847710D02*
X126251500Y-115397810D01*
X128713614Y-115397810D02*
X129006510Y-115104914D01*
X120031590Y-114847710D02*
X125701400Y-114847710D01*
X129006510Y-114854850D02*
X129713560Y-114147800D01*
X126251500Y-115397810D02*
X128713614Y-115397810D01*
%TO.N,/VOLP*%
X131298545Y-115008389D02*
X130672017Y-115634917D01*
X147006921Y-115309206D02*
X145665095Y-116651032D01*
X145665095Y-116651032D02*
X144825093Y-116651032D01*
X132649475Y-115008389D02*
X131298545Y-115008389D01*
X148034731Y-115309206D02*
X147006921Y-115309206D01*
X144825093Y-116651032D02*
X143246808Y-115072747D01*
X130672017Y-115634917D02*
X130118291Y-115634917D01*
X130118291Y-115634917D02*
X129597868Y-115114494D01*
X143246808Y-115072747D02*
X132713833Y-115072747D01*
X132713833Y-115072747D02*
X132649475Y-115008389D01*
X118690499Y-119272799D02*
X119786511Y-119272799D01*
X121761530Y-117297780D02*
X124558595Y-117297781D01*
X119786511Y-119272799D02*
X121761530Y-117297780D01*
X117615498Y-120347800D02*
X118690499Y-119272799D01*
X124558595Y-117297781D02*
X125833602Y-118572788D01*
X116666500Y-120347800D02*
X117615498Y-120347800D01*
X125833602Y-118572788D02*
X128106496Y-118572788D01*
%TO.N,/RSVD5*%
X119013577Y-117522744D02*
X120988591Y-115547730D01*
X125411444Y-115547730D02*
X126461460Y-116597746D01*
X126461460Y-116597746D02*
X128962418Y-116597746D01*
X132156531Y-116797768D02*
X133006460Y-115947840D01*
X148814434Y-116470612D02*
X149662962Y-116470612D01*
X145051158Y-117887446D02*
X147397600Y-117887446D01*
X143111552Y-115947840D02*
X145051158Y-117887446D01*
X133006460Y-115947840D02*
X143111552Y-115947840D01*
X115256444Y-117522744D02*
X119013577Y-117522744D01*
X129162440Y-116797768D02*
X132156531Y-116797768D01*
X147397600Y-117887446D02*
X148814434Y-116470612D01*
X114206500Y-116472800D02*
X115256444Y-117522744D01*
X128962418Y-116597746D02*
X129162440Y-116797768D01*
X120988591Y-115547730D02*
X125411444Y-115547730D01*
%TO.N,/RSVD7*%
X134106500Y-117947800D02*
X133306500Y-117947800D01*
X135406440Y-116647860D02*
X134106500Y-117947800D01*
X141806560Y-116647860D02*
X135406440Y-116647860D01*
X142056550Y-116897850D02*
X141806560Y-116647860D01*
X143071586Y-116897850D02*
X142056550Y-116897850D01*
X148921557Y-118973844D02*
X145147580Y-118973844D01*
X145147580Y-118973844D02*
X143071586Y-116897850D01*
X150263383Y-117632018D02*
X148921557Y-118973844D01*
X151291193Y-117632018D02*
X150263383Y-117632018D01*
X120840979Y-115197720D02*
X125556424Y-115197720D01*
X118865966Y-117172733D02*
X120840979Y-115197720D01*
X126581463Y-116222759D02*
X131706500Y-116222759D01*
X117656433Y-117172733D02*
X118865966Y-117172733D01*
X116956500Y-116472800D02*
X117656433Y-117172733D01*
X125556424Y-115197720D02*
X126581463Y-116222759D01*
%TO.N,/VOLM*%
X132752492Y-120347800D02*
X131906500Y-120347800D01*
X141516604Y-117347880D02*
X135752412Y-117347880D01*
X135752412Y-117347880D02*
X132752492Y-120347800D01*
X141766594Y-117597870D02*
X141516604Y-117347880D01*
X150729070Y-120135250D02*
X145293950Y-120135250D01*
X145293950Y-120135250D02*
X142756570Y-117597870D01*
X152919424Y-118793424D02*
X152070896Y-118793424D01*
X152070896Y-118793424D02*
X150729070Y-120135250D01*
X142756570Y-117597870D02*
X141766594Y-117597870D01*
%TO.N,/DOWN*%
X153519845Y-119954830D02*
X152026875Y-121447800D01*
X154547655Y-119954830D02*
X153519845Y-119954830D01*
X145106500Y-121447800D02*
X141956590Y-118297890D01*
X141461602Y-118297890D02*
X141211612Y-118047900D01*
X141956590Y-118297890D02*
X141461602Y-118297890D01*
X152026875Y-121447800D02*
X145106500Y-121447800D01*
X141211612Y-118047900D02*
X138006500Y-118047900D01*
X138006500Y-118047900D02*
X137206400Y-118047900D01*
X137206400Y-118047900D02*
X136806500Y-118447800D01*
X136806500Y-118447800D02*
X136806500Y-118447800D01*
X124413615Y-117647791D02*
X125913624Y-119147800D01*
X119206500Y-120347800D02*
X121906509Y-117647791D01*
X130106500Y-119147800D02*
X130606500Y-118647800D01*
X125913624Y-119147800D02*
X130106500Y-119147800D01*
X121906509Y-117647791D02*
X124413615Y-117647791D01*
%TO.N,/UP*%
X144466534Y-121797810D02*
X141066634Y-118397910D01*
X153171500Y-121797810D02*
X144466534Y-121797810D01*
X153386249Y-121583061D02*
X153171500Y-121797810D01*
X138936390Y-118397910D02*
X136986500Y-120347800D01*
X141066634Y-118397910D02*
X138936390Y-118397910D01*
%TO.N,/RIGHT*%
X135965039Y-117697891D02*
X134446500Y-119216430D01*
X141356591Y-117697891D02*
X135965039Y-117697891D01*
X141606580Y-117947880D02*
X141356591Y-117697891D01*
X142606581Y-117947881D02*
X141606580Y-117947880D01*
X145680354Y-121021654D02*
X142606581Y-117947881D01*
X151158019Y-121021654D02*
X145680354Y-121021654D01*
X151758018Y-120421655D02*
X151158019Y-121021654D01*
X134446500Y-119216430D02*
X134446500Y-120347800D01*
%TO.N,/RSVD8*%
X150066182Y-119323854D02*
X145002602Y-119323854D01*
X150129787Y-119260249D02*
X150066182Y-119323854D01*
X141911572Y-117247860D02*
X141661582Y-116997870D01*
X142926608Y-117247860D02*
X141911572Y-117247860D01*
X145002602Y-119323854D02*
X142926608Y-117247860D01*
X141661582Y-116997870D02*
X137956570Y-116997870D01*
X137956570Y-116997870D02*
X137906500Y-116997870D01*
X137856430Y-116997870D02*
X137956570Y-116997870D01*
X135607430Y-116997872D02*
X137856428Y-116997872D01*
X133030499Y-118522801D02*
X134082501Y-118522801D01*
X137856428Y-116997872D02*
X137856430Y-116997870D01*
X132355498Y-117847800D02*
X133030499Y-118522801D01*
X124848555Y-116597761D02*
X125898570Y-117647776D01*
X108281500Y-115147800D02*
X108281500Y-116822800D01*
X110006500Y-118547800D02*
X111286510Y-118547800D01*
X108281500Y-116822800D02*
X110006500Y-118547800D01*
X119496561Y-118572777D02*
X121471580Y-116597758D01*
X111636521Y-118897811D02*
X118075507Y-118897811D01*
X118075507Y-118897811D02*
X118400541Y-118572777D01*
X111286510Y-118547800D02*
X111636521Y-118897811D01*
X121471580Y-116597758D02*
X124848555Y-116597761D01*
X134082501Y-118522801D02*
X135607430Y-116997872D01*
X128727502Y-117847800D02*
X132355498Y-117847800D01*
X125898570Y-117647776D02*
X128527478Y-117647776D01*
X118400541Y-118572777D02*
X119496561Y-118572777D01*
X128527478Y-117647776D02*
X128727502Y-117847800D01*
%TO.N,/RSVD6*%
X132905508Y-117497790D02*
X133030499Y-117372799D01*
X128672458Y-117297766D02*
X128872481Y-117497789D01*
X142966574Y-116297850D02*
X144906180Y-118237456D01*
X144906180Y-118237456D02*
X148362943Y-118237456D01*
X148362943Y-118237456D02*
X148501556Y-118098843D01*
X135261462Y-116297850D02*
X142966574Y-116297850D01*
X134186513Y-117372799D02*
X135261462Y-116297850D01*
X133030499Y-117372799D02*
X134186513Y-117372799D01*
X128872481Y-117497789D02*
X132905508Y-117497790D01*
X126043550Y-117297766D02*
X128672458Y-117297766D01*
X124993535Y-116247751D02*
X126043550Y-117297766D01*
X121326602Y-116247748D02*
X124993535Y-116247751D01*
X119351584Y-118222766D02*
X121326602Y-116247748D01*
X111456466Y-118222766D02*
X119351584Y-118222766D01*
X109706500Y-116472800D02*
X111456466Y-118222766D01*
%TO.N,/RSVD4*%
X133333505Y-116574805D02*
X133360510Y-116547800D01*
X145196136Y-117537436D02*
X143242090Y-115583390D01*
X143242090Y-115583390D02*
X132373474Y-115583390D01*
X146273326Y-117537436D02*
X145196136Y-117537436D01*
X146873325Y-116937437D02*
X146273326Y-117537436D01*
X113106455Y-117872755D02*
X119206607Y-117872755D01*
X125266464Y-115897740D02*
X126316480Y-116947756D01*
X129017461Y-117147779D02*
X132760531Y-117147779D01*
X121181624Y-115897738D02*
X125266464Y-115897740D01*
X128817438Y-116947756D02*
X129017461Y-117147779D01*
X126316480Y-116947756D02*
X128817438Y-116947756D01*
X132760531Y-117147779D02*
X133333505Y-116574805D01*
X119206607Y-117872755D02*
X121181624Y-115897738D01*
X111706500Y-116472800D02*
X113106455Y-117872755D01*
%TO.N,/LEFT*%
X144127441Y-114658378D02*
X130797554Y-114658378D01*
X130797554Y-114658378D02*
X130396016Y-115059916D01*
X145245094Y-115776031D02*
X144127441Y-114658378D01*
X118545520Y-118922788D02*
X119641532Y-118922788D01*
X115201501Y-119272799D02*
X118195509Y-119272799D01*
X119641532Y-118922788D02*
X121616550Y-116947770D01*
X125753590Y-117997786D02*
X128382498Y-117997786D01*
X114126500Y-120347800D02*
X115201501Y-119272799D01*
X121616550Y-116947770D02*
X124703575Y-116947771D01*
X118195509Y-119272799D02*
X118545520Y-118922788D01*
X128382498Y-117997786D02*
X128957502Y-118572790D01*
X128957502Y-118572790D02*
X129040851Y-118572790D01*
X124703575Y-116947771D02*
X125753590Y-117997786D01*
D17*
%TO.N,/RST*%
X106506500Y-118172800D02*
X106481500Y-118147800D01*
X106506500Y-120347800D02*
X106506500Y-118172800D01*
D19*
X113882162Y-123647800D02*
X108806500Y-123647800D01*
X108806500Y-123647800D02*
X106506500Y-121347800D01*
X118506479Y-128272117D02*
X113882162Y-123647800D01*
X118506479Y-132647779D02*
X118506479Y-128272117D01*
X106506500Y-121347800D02*
X106506500Y-120347800D01*
X123886500Y-138027800D02*
X118506479Y-132647779D01*
X124606500Y-138027800D02*
X123886500Y-138027800D01*
D20*
%TO.N,/MOSI*%
X130706500Y-121747800D02*
X138706500Y-121747800D01*
X138706500Y-121747800D02*
X139706500Y-122747800D01*
X139706500Y-122747800D02*
X139706500Y-125347800D01*
X139706500Y-125347800D02*
X138406500Y-126647800D01*
X138406500Y-126647800D02*
X130406500Y-126647800D01*
X130406500Y-126647800D02*
X128806500Y-128247800D01*
X128806500Y-133827800D02*
X127146500Y-135487800D01*
X128806500Y-128247800D02*
X128806500Y-133827800D01*
%TO.N,/SCK*%
X123706500Y-135247800D02*
X124366500Y-135247800D01*
X122481501Y-133923799D02*
X122481501Y-134022801D01*
X122130501Y-133572799D02*
X122481501Y-133923799D01*
X122481501Y-134022801D02*
X123706500Y-135247800D01*
X122031499Y-133572799D02*
X122130501Y-133572799D01*
X118881488Y-128116782D02*
X118881488Y-130422788D01*
X124366500Y-135247800D02*
X124606500Y-135487800D01*
X116406500Y-125641794D02*
X118881488Y-128116782D01*
X118881488Y-130422788D02*
X122031499Y-133572799D01*
X116406500Y-122852810D02*
X116406500Y-125641794D01*
X117411510Y-121847800D02*
X116406500Y-122852810D01*
X124506500Y-121847800D02*
X117411510Y-121847800D01*
%TO.N,/MISO*%
X124606500Y-131947800D02*
X124606500Y-132947800D01*
X122181502Y-129522802D02*
X124606500Y-131947800D01*
X125031499Y-122422801D02*
X117331499Y-122422801D01*
X125606500Y-121847800D02*
X125031499Y-122422801D01*
X117331499Y-122422801D02*
X116806500Y-122947800D01*
X116806500Y-122947800D02*
X116806500Y-125446804D01*
X116806500Y-125446804D02*
X120882498Y-129522802D01*
X120882498Y-129522802D02*
X122181502Y-129522802D01*
D21*
%TO.N,/BUZ_EN*%
X139526500Y-120347800D02*
X140326499Y-121147799D01*
X140326499Y-121147799D02*
X140326499Y-125293500D01*
X138272199Y-127347800D02*
X133106500Y-127347800D01*
X140326499Y-125293500D02*
X138272199Y-127347800D01*
X128606500Y-127347800D02*
X128606500Y-127347800D01*
X122706500Y-127347800D02*
X121206500Y-128847800D01*
X121206500Y-128847800D02*
X121206500Y-128847800D01*
X128606500Y-127347800D02*
X122706500Y-127347800D01*
D17*
%TO.N,Net-(R5-Pad2)*%
X118406501Y-113527799D02*
X119206500Y-112727800D01*
X118406500Y-114822800D02*
X118406501Y-113527799D01*
%TO.N,Net-(R6-Pad2)*%
X116956500Y-114822800D02*
X116956500Y-114297800D01*
X116666500Y-114007800D02*
X116666500Y-112727800D01*
X116956500Y-114297800D02*
X116666500Y-114007800D01*
%TO.N,Net-(R7-Pad2)*%
X114206500Y-112807800D02*
X114126500Y-112727800D01*
X114206500Y-114822800D02*
X114206500Y-112807800D01*
%TO.N,Net-(R8-Pad2)*%
X111706500Y-114822800D02*
X111706500Y-114047800D01*
X111586500Y-113927800D02*
X111586500Y-112727800D01*
X111706500Y-114047800D02*
X111586500Y-113927800D01*
%TO.N,Net-(R9-Pad2)*%
X109706500Y-113387800D02*
X109046500Y-112727800D01*
X109706500Y-114822800D02*
X109706500Y-113387800D01*
%TO.N,Net-(R11-Pad2)*%
X106631500Y-115147800D02*
X106631500Y-114372800D01*
X106506500Y-114247800D02*
X106506500Y-112727800D01*
X106631500Y-114372800D02*
X106506500Y-114247800D01*
%TD*%
D22*
%TO.N,+5V*%
X144395650Y-138388569D02*
X144485345Y-138425722D01*
X144569028Y-138489934D01*
X144664366Y-138585272D01*
X144728578Y-138668955D01*
X144765731Y-138758650D01*
X144779500Y-138863235D01*
X144779500Y-140493870D01*
X144760880Y-140587481D01*
X144714938Y-140656238D01*
X144646181Y-140702180D01*
X144552570Y-140720800D01*
X137983863Y-140720800D01*
X137866242Y-140704644D01*
X135813875Y-140129981D01*
X135717659Y-140088985D01*
X135641747Y-140029783D01*
X135583574Y-139953085D01*
X135547035Y-139864026D01*
X135533500Y-139760317D01*
X135533500Y-139166435D01*
X135548645Y-139056859D01*
X135589414Y-138963573D01*
X135653956Y-138884845D01*
X135737433Y-138826574D01*
X135841911Y-138790234D01*
X137876710Y-138383274D01*
X137962284Y-138374800D01*
X144291065Y-138374800D01*
X144395650Y-138388569D01*
%TA.AperFunction,Conductor*%
D23*
G36*
X144395650Y-138388569D02*
G01*
X144485345Y-138425722D01*
X144569028Y-138489934D01*
X144664366Y-138585272D01*
X144728578Y-138668955D01*
X144765731Y-138758650D01*
X144779500Y-138863235D01*
X144779500Y-140493870D01*
X144760880Y-140587481D01*
X144714938Y-140656238D01*
X144646181Y-140702180D01*
X144552570Y-140720800D01*
X137983863Y-140720800D01*
X137866242Y-140704644D01*
X135813875Y-140129981D01*
X135717659Y-140088985D01*
X135641747Y-140029783D01*
X135583574Y-139953085D01*
X135547035Y-139864026D01*
X135533500Y-139760317D01*
X135533500Y-139166435D01*
X135548645Y-139056859D01*
X135589414Y-138963573D01*
X135653956Y-138884845D01*
X135737433Y-138826574D01*
X135841911Y-138790234D01*
X137876710Y-138383274D01*
X137962284Y-138374800D01*
X144291065Y-138374800D01*
X144395650Y-138388569D01*
G37*
%TD.AperFunction*%
%TD*%
D24*
%TO.N,GND*%
X105936192Y-111660829D02*
X105738995Y-111792592D01*
X105571292Y-111960295D01*
X105439529Y-112157492D01*
X105348769Y-112376606D01*
X105302500Y-112609216D01*
X105302500Y-112846384D01*
X105348769Y-113078994D01*
X105439529Y-113298108D01*
X105571292Y-113495305D01*
X105738995Y-113663008D01*
X105902500Y-113772259D01*
X105902500Y-114218133D01*
X105899578Y-114247800D01*
X105902500Y-114277466D01*
X105911240Y-114366204D01*
X105945777Y-114480058D01*
X105956791Y-114500664D01*
X105927668Y-114536150D01*
X105871672Y-114640911D01*
X105837189Y-114754584D01*
X105825546Y-114872800D01*
X105825546Y-115422800D01*
X105837189Y-115541016D01*
X105871672Y-115654689D01*
X105927668Y-115759450D01*
X106003026Y-115851274D01*
X106094850Y-115926632D01*
X106199611Y-115982628D01*
X106313284Y-116017111D01*
X106431500Y-116028754D01*
X106831500Y-116028754D01*
X106949716Y-116017111D01*
X107063389Y-115982628D01*
X107168150Y-115926632D01*
X107259974Y-115851274D01*
X107335332Y-115759450D01*
X107391328Y-115654689D01*
X107425811Y-115541016D01*
X107437454Y-115422800D01*
X107437454Y-114872800D01*
X107425811Y-114754584D01*
X107391328Y-114640911D01*
X107335332Y-114536150D01*
X107259974Y-114444326D01*
X107235500Y-114424241D01*
X107235500Y-114402467D01*
X107238422Y-114372800D01*
X107226760Y-114254395D01*
X107206106Y-114186309D01*
X107192223Y-114140541D01*
X107136137Y-114035612D01*
X107110500Y-114004373D01*
X107110500Y-113772259D01*
X107274005Y-113663008D01*
X107441708Y-113495305D01*
X107573471Y-113298108D01*
X107664231Y-113078994D01*
X107710500Y-112846384D01*
X107710500Y-112609216D01*
X107664231Y-112376606D01*
X107573471Y-112157492D01*
X107441708Y-111960295D01*
X107274005Y-111792592D01*
X107076808Y-111660829D01*
X106873944Y-111576800D01*
X108679056Y-111576800D01*
X108476192Y-111660829D01*
X108278995Y-111792592D01*
X108111292Y-111960295D01*
X107979529Y-112157492D01*
X107888769Y-112376606D01*
X107842500Y-112609216D01*
X107842500Y-112846384D01*
X107888769Y-113078994D01*
X107979529Y-113298108D01*
X108111292Y-113495305D01*
X108278995Y-113663008D01*
X108476192Y-113794771D01*
X108695306Y-113885531D01*
X108927916Y-113931800D01*
X109102501Y-113931800D01*
X109102500Y-114114879D01*
X109094850Y-114118968D01*
X109003026Y-114194326D01*
X108927668Y-114286150D01*
X108871672Y-114390911D01*
X108866333Y-114408511D01*
X108818150Y-114368968D01*
X108713389Y-114312972D01*
X108599716Y-114278489D01*
X108481500Y-114266846D01*
X108081500Y-114266846D01*
X107963284Y-114278489D01*
X107849611Y-114312972D01*
X107744850Y-114368968D01*
X107653026Y-114444326D01*
X107577668Y-114536150D01*
X107521672Y-114640911D01*
X107487189Y-114754584D01*
X107475546Y-114872800D01*
X107475546Y-115422800D01*
X107487189Y-115541016D01*
X107521672Y-115654689D01*
X107577668Y-115759450D01*
X107653026Y-115851274D01*
X107744850Y-115926632D01*
X107802500Y-115957447D01*
X107802501Y-116799267D01*
X107800183Y-116822800D01*
X107809432Y-116916700D01*
X107836822Y-117006992D01*
X107881300Y-117090205D01*
X107904825Y-117118870D01*
X107941158Y-117163143D01*
X107959436Y-117178143D01*
X108048139Y-117266846D01*
X107856500Y-117266846D01*
X107733407Y-117278970D01*
X107615044Y-117314875D01*
X107505961Y-117373181D01*
X107410348Y-117451648D01*
X107331881Y-117547261D01*
X107306500Y-117594746D01*
X107281119Y-117547261D01*
X107202652Y-117451648D01*
X107107039Y-117373181D01*
X106997956Y-117314875D01*
X106879593Y-117278970D01*
X106756500Y-117266846D01*
X106306500Y-117266846D01*
X106183407Y-117278970D01*
X106065044Y-117314875D01*
X105955961Y-117373181D01*
X105860348Y-117451648D01*
X105781881Y-117547261D01*
X105723575Y-117656344D01*
X105687670Y-117774707D01*
X105675546Y-117897800D01*
X105675546Y-118397800D01*
X105687670Y-118520893D01*
X105723575Y-118639256D01*
X105781881Y-118748339D01*
X105860348Y-118843952D01*
X105902501Y-118878546D01*
X105902501Y-119141846D01*
X105706500Y-119141846D01*
X105627302Y-119149646D01*
X105551148Y-119172747D01*
X105480964Y-119210262D01*
X105419447Y-119260747D01*
X105368962Y-119322264D01*
X105331447Y-119392448D01*
X105308346Y-119468602D01*
X105300546Y-119547800D01*
X105300546Y-121147800D01*
X105308346Y-121226998D01*
X105331447Y-121303152D01*
X105368962Y-121373336D01*
X105419447Y-121434853D01*
X105480964Y-121485338D01*
X105551148Y-121522853D01*
X105627302Y-121545954D01*
X105706500Y-121553754D01*
X106045106Y-121553754D01*
X106085412Y-121629162D01*
X106148394Y-121705906D01*
X106167627Y-121721690D01*
X108432614Y-123986678D01*
X108448394Y-124005906D01*
X108525138Y-124068888D01*
X108612695Y-124115688D01*
X108666330Y-124131958D01*
X108707698Y-124144507D01*
X108806499Y-124154238D01*
X108831253Y-124151800D01*
X113673399Y-124151800D01*
X118002480Y-128480881D01*
X118002479Y-132623025D01*
X118000041Y-132647779D01*
X118005619Y-132704408D01*
X118009772Y-132746579D01*
X118038591Y-132841583D01*
X118085391Y-132929141D01*
X118148373Y-133005885D01*
X118167606Y-133021669D01*
X123366220Y-138220283D01*
X123400690Y-138393578D01*
X123495219Y-138621792D01*
X123632454Y-138827179D01*
X123807121Y-139001846D01*
X124012508Y-139139081D01*
X124240722Y-139233610D01*
X124482992Y-139281800D01*
X124730008Y-139281800D01*
X124972278Y-139233610D01*
X125200492Y-139139081D01*
X125405879Y-139001846D01*
X125580546Y-138827179D01*
X125717781Y-138621792D01*
X125812310Y-138393578D01*
X125837002Y-138269440D01*
X125940470Y-138269440D01*
X126009473Y-138496920D01*
X126122841Y-138709729D01*
X126275548Y-138896332D01*
X126461725Y-139049558D01*
X126674218Y-139163518D01*
X126904860Y-139233833D01*
X127096500Y-139161786D01*
X127096500Y-138077800D01*
X127196500Y-138077800D01*
X127196500Y-139161786D01*
X127388140Y-139233833D01*
X127618782Y-139163518D01*
X127831275Y-139049558D01*
X128017452Y-138896332D01*
X128170159Y-138709729D01*
X128283527Y-138496920D01*
X128352530Y-138269440D01*
X128280398Y-138077800D01*
X127196500Y-138077800D01*
X127096500Y-138077800D01*
X126012602Y-138077800D01*
X125940470Y-138269440D01*
X125837002Y-138269440D01*
X125860500Y-138151308D01*
X125860500Y-137904292D01*
X125837003Y-137786160D01*
X125940470Y-137786160D01*
X126012602Y-137977800D01*
X127096500Y-137977800D01*
X127096500Y-136893814D01*
X127196500Y-136893814D01*
X127196500Y-137977800D01*
X128280398Y-137977800D01*
X128352530Y-137786160D01*
X128283527Y-137558680D01*
X128170159Y-137345871D01*
X128017452Y-137159268D01*
X127831275Y-137006042D01*
X127618782Y-136892082D01*
X127388140Y-136821767D01*
X127196500Y-136893814D01*
X127096500Y-136893814D01*
X126904860Y-136821767D01*
X126674218Y-136892082D01*
X126461725Y-137006042D01*
X126275548Y-137159268D01*
X126122841Y-137345871D01*
X126009473Y-137558680D01*
X125940470Y-137786160D01*
X125837003Y-137786160D01*
X125812310Y-137662022D01*
X125717781Y-137433808D01*
X125580546Y-137228421D01*
X125405879Y-137053754D01*
X125200492Y-136916519D01*
X124972278Y-136821990D01*
X124730008Y-136773800D01*
X124482992Y-136773800D01*
X124240722Y-136821990D01*
X124012508Y-136916519D01*
X123807121Y-137053754D01*
X123716169Y-137144706D01*
X119010479Y-132439016D01*
X119010479Y-131229186D01*
X121676156Y-133894864D01*
X121691156Y-133913142D01*
X121711016Y-133929440D01*
X121764092Y-133972999D01*
X121822064Y-134003985D01*
X121847307Y-134017478D01*
X121919747Y-134039453D01*
X122014847Y-134134553D01*
X122036822Y-134206993D01*
X122081301Y-134290206D01*
X122141158Y-134363144D01*
X122159440Y-134378147D01*
X123351157Y-135569865D01*
X123352500Y-135571501D01*
X123352500Y-135611308D01*
X123400690Y-135853578D01*
X123495219Y-136081792D01*
X123632454Y-136287179D01*
X123807121Y-136461846D01*
X124012508Y-136599081D01*
X124240722Y-136693610D01*
X124482992Y-136741800D01*
X124730008Y-136741800D01*
X124972278Y-136693610D01*
X125200492Y-136599081D01*
X125405879Y-136461846D01*
X125580546Y-136287179D01*
X125717781Y-136081792D01*
X125812310Y-135853578D01*
X125860500Y-135611308D01*
X125860500Y-135364292D01*
X125812310Y-135122022D01*
X125717781Y-134893808D01*
X125580546Y-134688421D01*
X125405879Y-134513754D01*
X125200492Y-134376519D01*
X124972278Y-134281990D01*
X124730008Y-134233800D01*
X124482992Y-134233800D01*
X124240722Y-134281990D01*
X124012508Y-134376519D01*
X123807121Y-134513754D01*
X123728491Y-134592384D01*
X122948155Y-133812048D01*
X122926180Y-133739607D01*
X122887617Y-133667462D01*
X122881701Y-133656393D01*
X122856936Y-133626216D01*
X122821844Y-133583456D01*
X122803566Y-133568456D01*
X122485848Y-133250739D01*
X122470844Y-133232456D01*
X122397906Y-133172599D01*
X122314693Y-133128120D01*
X122242253Y-133106146D01*
X119360488Y-130224381D01*
X119360488Y-128678200D01*
X120527155Y-129844867D01*
X120542155Y-129863145D01*
X120584915Y-129898237D01*
X120615092Y-129923002D01*
X120650199Y-129941767D01*
X120698306Y-129967481D01*
X120788598Y-129994871D01*
X120858972Y-130001802D01*
X120858975Y-130001802D01*
X120882498Y-130004119D01*
X120906021Y-130001802D01*
X121983095Y-130001802D01*
X123680612Y-131699320D01*
X123677302Y-131699646D01*
X123601148Y-131722747D01*
X123530964Y-131760262D01*
X123469447Y-131810747D01*
X123418962Y-131872264D01*
X123381447Y-131942448D01*
X123358346Y-132018602D01*
X123350546Y-132097800D01*
X123350546Y-133797800D01*
X123358346Y-133876998D01*
X123381447Y-133953152D01*
X123418962Y-134023336D01*
X123469447Y-134084853D01*
X123530964Y-134135338D01*
X123601148Y-134172853D01*
X123677302Y-134195954D01*
X123756500Y-134203754D01*
X125456500Y-134203754D01*
X125535698Y-134195954D01*
X125611852Y-134172853D01*
X125682036Y-134135338D01*
X125743553Y-134084853D01*
X125794038Y-134023336D01*
X125831553Y-133953152D01*
X125854654Y-133876998D01*
X125862454Y-133797800D01*
X125862454Y-132097800D01*
X125854654Y-132018602D01*
X125831553Y-131942448D01*
X125794038Y-131872264D01*
X125743553Y-131810747D01*
X125682036Y-131760262D01*
X125611852Y-131722747D01*
X125535698Y-131699646D01*
X125456500Y-131691846D01*
X125012821Y-131691846D01*
X125006700Y-131680394D01*
X124981935Y-131650217D01*
X124946843Y-131607457D01*
X124928565Y-131592457D01*
X122536849Y-129200742D01*
X122521845Y-129182459D01*
X122448907Y-129122602D01*
X122365694Y-129078123D01*
X122275402Y-129050733D01*
X122205028Y-129043802D01*
X122205025Y-129043802D01*
X122181502Y-129041485D01*
X122157979Y-129043802D01*
X121885304Y-129043802D01*
X121910500Y-128917138D01*
X121910500Y-128891918D01*
X122925619Y-127876800D01*
X128139894Y-127876800D01*
X128157726Y-127894632D01*
X128273031Y-127971676D01*
X128385958Y-128018452D01*
X128361821Y-128063609D01*
X128334431Y-128153901D01*
X128328839Y-128210682D01*
X128325183Y-128247800D01*
X128327500Y-128271323D01*
X128327501Y-132522127D01*
X128257781Y-132353808D01*
X128120546Y-132148421D01*
X127945879Y-131973754D01*
X127740492Y-131836519D01*
X127512278Y-131741990D01*
X127270008Y-131693800D01*
X127022992Y-131693800D01*
X126780722Y-131741990D01*
X126552508Y-131836519D01*
X126347121Y-131973754D01*
X126172454Y-132148421D01*
X126035219Y-132353808D01*
X125940690Y-132582022D01*
X125892500Y-132824292D01*
X125892500Y-133071308D01*
X125940690Y-133313578D01*
X126035219Y-133541792D01*
X126172454Y-133747179D01*
X126347121Y-133921846D01*
X126552508Y-134059081D01*
X126780722Y-134153610D01*
X127022992Y-134201800D01*
X127270008Y-134201800D01*
X127512278Y-134153610D01*
X127740492Y-134059081D01*
X127945879Y-133921846D01*
X128120546Y-133747179D01*
X128257781Y-133541792D01*
X128327501Y-133373473D01*
X128327501Y-133629391D01*
X127627271Y-134329621D01*
X127512278Y-134281990D01*
X127270008Y-134233800D01*
X127022992Y-134233800D01*
X126780722Y-134281990D01*
X126552508Y-134376519D01*
X126347121Y-134513754D01*
X126172454Y-134688421D01*
X126035219Y-134893808D01*
X125940690Y-135122022D01*
X125892500Y-135364292D01*
X125892500Y-135611308D01*
X125940690Y-135853578D01*
X126035219Y-136081792D01*
X126172454Y-136287179D01*
X126347121Y-136461846D01*
X126552508Y-136599081D01*
X126780722Y-136693610D01*
X127022992Y-136741800D01*
X127270008Y-136741800D01*
X127512278Y-136693610D01*
X127740492Y-136599081D01*
X127945879Y-136461846D01*
X128120546Y-136287179D01*
X128257781Y-136081792D01*
X128352310Y-135853578D01*
X128400500Y-135611308D01*
X128400500Y-135364292D01*
X128352310Y-135122022D01*
X128304679Y-135007029D01*
X129128565Y-134183143D01*
X129146843Y-134168143D01*
X129189060Y-134116700D01*
X129206700Y-134095206D01*
X129251179Y-134011992D01*
X129263007Y-133972999D01*
X129276221Y-133929440D01*
X129700470Y-133929440D01*
X129769473Y-134156920D01*
X129882841Y-134369729D01*
X130035548Y-134556332D01*
X130221725Y-134709558D01*
X130434218Y-134823518D01*
X130664860Y-134893833D01*
X130856500Y-134821786D01*
X130856500Y-133737800D01*
X130956500Y-133737800D01*
X130956500Y-134821786D01*
X131148140Y-134893833D01*
X131378782Y-134823518D01*
X131591275Y-134709558D01*
X131777452Y-134556332D01*
X131930159Y-134369729D01*
X132043527Y-134156920D01*
X132112530Y-133929440D01*
X132040398Y-133737800D01*
X130956500Y-133737800D01*
X130856500Y-133737800D01*
X129772602Y-133737800D01*
X129700470Y-133929440D01*
X129276221Y-133929440D01*
X129278569Y-133921700D01*
X129285500Y-133851326D01*
X129287818Y-133827800D01*
X129285500Y-133804269D01*
X129285500Y-133446160D01*
X129700470Y-133446160D01*
X129772602Y-133637800D01*
X130856500Y-133637800D01*
X130856500Y-132553814D01*
X130956500Y-132553814D01*
X130956500Y-133637800D01*
X132040398Y-133637800D01*
X132112530Y-133446160D01*
X132043527Y-133218680D01*
X131930159Y-133005871D01*
X131777452Y-132819268D01*
X131591275Y-132666042D01*
X131378782Y-132552082D01*
X131148140Y-132481767D01*
X130956500Y-132553814D01*
X130856500Y-132553814D01*
X130664860Y-132481767D01*
X130434218Y-132552082D01*
X130221725Y-132666042D01*
X130035548Y-132819268D01*
X129882841Y-133005871D01*
X129769473Y-133218680D01*
X129700470Y-133446160D01*
X129285500Y-133446160D01*
X129285500Y-131389440D01*
X129700470Y-131389440D01*
X129769473Y-131616920D01*
X129882841Y-131829729D01*
X130035548Y-132016332D01*
X130221725Y-132169558D01*
X130434218Y-132283518D01*
X130664860Y-132353833D01*
X130856500Y-132281786D01*
X130856500Y-131197800D01*
X130956500Y-131197800D01*
X130956500Y-132281786D01*
X131148140Y-132353833D01*
X131378782Y-132283518D01*
X131591275Y-132169558D01*
X131777452Y-132016332D01*
X131930159Y-131829729D01*
X132043527Y-131616920D01*
X132112530Y-131389440D01*
X132040398Y-131197800D01*
X130956500Y-131197800D01*
X130856500Y-131197800D01*
X129772602Y-131197800D01*
X129700470Y-131389440D01*
X129285500Y-131389440D01*
X129285500Y-130906160D01*
X129700470Y-130906160D01*
X129772602Y-131097800D01*
X130856500Y-131097800D01*
X130856500Y-130013814D01*
X130956500Y-130013814D01*
X130956500Y-131097800D01*
X132040398Y-131097800D01*
X132095869Y-130950423D01*
X155902500Y-130950423D01*
X155902500Y-131345177D01*
X155979513Y-131732345D01*
X156130579Y-132097050D01*
X156349892Y-132425275D01*
X156629025Y-132704408D01*
X156957250Y-132923721D01*
X157321955Y-133074787D01*
X157709123Y-133151800D01*
X158103877Y-133151800D01*
X158491045Y-133074787D01*
X158855750Y-132923721D01*
X159183975Y-132704408D01*
X159463108Y-132425275D01*
X159682421Y-132097050D01*
X159833487Y-131732345D01*
X159910500Y-131345177D01*
X159910500Y-130950423D01*
X159833487Y-130563255D01*
X159682421Y-130198550D01*
X159463108Y-129870325D01*
X159183975Y-129591192D01*
X158855750Y-129371879D01*
X158491045Y-129220813D01*
X158103877Y-129143800D01*
X157709123Y-129143800D01*
X157321955Y-129220813D01*
X156957250Y-129371879D01*
X156629025Y-129591192D01*
X156349892Y-129870325D01*
X156130579Y-130198550D01*
X155979513Y-130563255D01*
X155902500Y-130950423D01*
X132095869Y-130950423D01*
X132112530Y-130906160D01*
X132043527Y-130678680D01*
X131930159Y-130465871D01*
X131777452Y-130279268D01*
X131591275Y-130126042D01*
X131378782Y-130012082D01*
X131148140Y-129941767D01*
X130956500Y-130013814D01*
X130856500Y-130013814D01*
X130664860Y-129941767D01*
X130434218Y-130012082D01*
X130221725Y-130126042D01*
X130035548Y-130279268D01*
X129882841Y-130465871D01*
X129769473Y-130678680D01*
X129700470Y-130906160D01*
X129285500Y-130906160D01*
X129285500Y-128446207D01*
X129650546Y-128081161D01*
X129650546Y-129457800D01*
X129658346Y-129536998D01*
X129681447Y-129613152D01*
X129718962Y-129683336D01*
X129769447Y-129744853D01*
X129830964Y-129795338D01*
X129901148Y-129832853D01*
X129977302Y-129855954D01*
X130056500Y-129863754D01*
X131756500Y-129863754D01*
X131835698Y-129855954D01*
X131911852Y-129832853D01*
X131982036Y-129795338D01*
X132043553Y-129744853D01*
X132094038Y-129683336D01*
X132131553Y-129613152D01*
X132154654Y-129536998D01*
X132162454Y-129457800D01*
X132162454Y-127757800D01*
X132154654Y-127678602D01*
X132131553Y-127602448D01*
X132094038Y-127532264D01*
X132043553Y-127470747D01*
X131982036Y-127420262D01*
X131911852Y-127382747D01*
X131835698Y-127359646D01*
X131756500Y-127351846D01*
X130379862Y-127351846D01*
X130604908Y-127126800D01*
X132330708Y-127126800D01*
X132302500Y-127268613D01*
X132302500Y-127426987D01*
X132333397Y-127582318D01*
X132394005Y-127728637D01*
X132481993Y-127860320D01*
X132593980Y-127972307D01*
X132725663Y-128060295D01*
X132871982Y-128120903D01*
X133027313Y-128151800D01*
X133185687Y-128151800D01*
X133341018Y-128120903D01*
X133487337Y-128060295D01*
X133619020Y-127972307D01*
X133714527Y-127876800D01*
X138246220Y-127876800D01*
X138272199Y-127879359D01*
X138298178Y-127876800D01*
X138298180Y-127876800D01*
X138375901Y-127869145D01*
X138475618Y-127838896D01*
X138567517Y-127789775D01*
X138648068Y-127723669D01*
X138664634Y-127703483D01*
X140682187Y-125685931D01*
X140702368Y-125669369D01*
X140746819Y-125615205D01*
X140768474Y-125588819D01*
X140817595Y-125496919D01*
X140825661Y-125470330D01*
X140847844Y-125397202D01*
X140855499Y-125319481D01*
X140855499Y-125319479D01*
X140858058Y-125293500D01*
X140855499Y-125267521D01*
X140855499Y-123103943D01*
X154097696Y-123103943D01*
X154185442Y-123275892D01*
X154305047Y-123427418D01*
X154451916Y-123552699D01*
X154620403Y-123646920D01*
X154804036Y-123706461D01*
X154973065Y-123728338D01*
X155111783Y-123628872D01*
X154973418Y-122802034D01*
X154146579Y-122940399D01*
X154097696Y-123103943D01*
X140855499Y-123103943D01*
X140855499Y-122703052D01*
X154030609Y-122703052D01*
X154130075Y-122841770D01*
X154466158Y-122785529D01*
X155072047Y-122785529D01*
X155210412Y-123612368D01*
X155373956Y-123661251D01*
X155545905Y-123573505D01*
X155697431Y-123453900D01*
X155822712Y-123307031D01*
X155916933Y-123138544D01*
X155976474Y-122954911D01*
X155998351Y-122785882D01*
X155898885Y-122647164D01*
X155072047Y-122785529D01*
X154466158Y-122785529D01*
X154956913Y-122703405D01*
X154818548Y-121876566D01*
X154763332Y-121860062D01*
X154917177Y-121860062D01*
X155055542Y-122686900D01*
X155882381Y-122548535D01*
X155931264Y-122384991D01*
X155843518Y-122213042D01*
X155723913Y-122061516D01*
X155577044Y-121936235D01*
X155408557Y-121842014D01*
X155224924Y-121782473D01*
X155055895Y-121760596D01*
X154917177Y-121860062D01*
X154763332Y-121860062D01*
X154655004Y-121827683D01*
X154483055Y-121915429D01*
X154331529Y-122035034D01*
X154206248Y-122181903D01*
X154112027Y-122350390D01*
X154052486Y-122534023D01*
X154030609Y-122703052D01*
X140855499Y-122703052D01*
X140855499Y-121173769D01*
X140858057Y-121147798D01*
X140855499Y-121121827D01*
X140855499Y-121121818D01*
X140847844Y-121044097D01*
X140817595Y-120944380D01*
X140768474Y-120852481D01*
X140702368Y-120771930D01*
X140682187Y-120755368D01*
X140667121Y-120740302D01*
X140684231Y-120698994D01*
X140730500Y-120466384D01*
X140730500Y-120229216D01*
X140684231Y-119996606D01*
X140593471Y-119777492D01*
X140461708Y-119580295D01*
X140294005Y-119412592D01*
X140096808Y-119280829D01*
X139877694Y-119190069D01*
X139645084Y-119143800D01*
X139407916Y-119143800D01*
X139175306Y-119190069D01*
X138956192Y-119280829D01*
X138758995Y-119412592D01*
X138591292Y-119580295D01*
X138459529Y-119777492D01*
X138368769Y-119996606D01*
X138322500Y-120229216D01*
X138322500Y-120466384D01*
X138368769Y-120698994D01*
X138459529Y-120918108D01*
X138591292Y-121115305D01*
X138746400Y-121270413D01*
X138730026Y-121268800D01*
X138730023Y-121268800D01*
X138706500Y-121266483D01*
X138682977Y-121268800D01*
X137768213Y-121268800D01*
X137921708Y-121115305D01*
X138053471Y-120918108D01*
X138144231Y-120698994D01*
X138190500Y-120466384D01*
X138190500Y-120229216D01*
X138144231Y-119996606D01*
X138106410Y-119905298D01*
X139134798Y-118876910D01*
X140868227Y-118876910D01*
X144111191Y-122119875D01*
X144126191Y-122138153D01*
X144164838Y-122169869D01*
X144199128Y-122198010D01*
X144252990Y-122226800D01*
X144282342Y-122242489D01*
X144372634Y-122269879D01*
X144443008Y-122276810D01*
X144443011Y-122276810D01*
X144466534Y-122279127D01*
X144490057Y-122276810D01*
X152660127Y-122276810D01*
X152746236Y-122362919D01*
X152910677Y-122472794D01*
X153093393Y-122548478D01*
X153287364Y-122587061D01*
X153485134Y-122587061D01*
X153679105Y-122548478D01*
X153861821Y-122472794D01*
X154026262Y-122362919D01*
X154166107Y-122223074D01*
X154275982Y-122058633D01*
X154351666Y-121875917D01*
X154390249Y-121681946D01*
X154390249Y-121484176D01*
X154351666Y-121290205D01*
X154275982Y-121107489D01*
X154166107Y-120943048D01*
X154058639Y-120835580D01*
X154072083Y-120844563D01*
X154254799Y-120920247D01*
X154448770Y-120958830D01*
X154646540Y-120958830D01*
X154840511Y-120920247D01*
X155023227Y-120844563D01*
X155187668Y-120734688D01*
X155295134Y-120627222D01*
X155286153Y-120640663D01*
X155210469Y-120823379D01*
X155171886Y-121017350D01*
X155171886Y-121215120D01*
X155210469Y-121409091D01*
X155286153Y-121591807D01*
X155396028Y-121756248D01*
X155535873Y-121896093D01*
X155700314Y-122005968D01*
X155883030Y-122081652D01*
X156077001Y-122120235D01*
X156274771Y-122120235D01*
X156468742Y-122081652D01*
X156651458Y-122005968D01*
X156815899Y-121896093D01*
X156955744Y-121756248D01*
X157065619Y-121591807D01*
X157141303Y-121409091D01*
X157179886Y-121215120D01*
X157179886Y-121017350D01*
X157141303Y-120823379D01*
X157065619Y-120640663D01*
X156955744Y-120476222D01*
X156815899Y-120336377D01*
X156651458Y-120226502D01*
X156468742Y-120150818D01*
X156274771Y-120112235D01*
X156077001Y-120112235D01*
X155883030Y-120150818D01*
X155700314Y-120226502D01*
X155535873Y-120336377D01*
X155428407Y-120443843D01*
X155437388Y-120430402D01*
X155513072Y-120247686D01*
X155551655Y-120053715D01*
X155551655Y-119855945D01*
X155513072Y-119661974D01*
X155437388Y-119479258D01*
X155327513Y-119314817D01*
X155187668Y-119174972D01*
X155023227Y-119065097D01*
X154840511Y-118989413D01*
X154646540Y-118950830D01*
X154448770Y-118950830D01*
X154254799Y-118989413D01*
X154072083Y-119065097D01*
X153907642Y-119174972D01*
X153800174Y-119282440D01*
X153809157Y-119268996D01*
X153884841Y-119086280D01*
X153923424Y-118892309D01*
X153923424Y-118694539D01*
X153884841Y-118500568D01*
X153809157Y-118317852D01*
X153699282Y-118153411D01*
X153559437Y-118013566D01*
X153394996Y-117903691D01*
X153212280Y-117828007D01*
X153018309Y-117789424D01*
X152820539Y-117789424D01*
X152626568Y-117828007D01*
X152443852Y-117903691D01*
X152279411Y-118013566D01*
X152171943Y-118121034D01*
X152180926Y-118107590D01*
X152256610Y-117924874D01*
X152295193Y-117730903D01*
X152295193Y-117533133D01*
X152256610Y-117339162D01*
X152180926Y-117156446D01*
X152071051Y-116992005D01*
X151931206Y-116852160D01*
X151766765Y-116742285D01*
X151584049Y-116666601D01*
X151390078Y-116628018D01*
X151192308Y-116628018D01*
X150998337Y-116666601D01*
X150815621Y-116742285D01*
X150651180Y-116852160D01*
X150543712Y-116959628D01*
X150552695Y-116946184D01*
X150628379Y-116763468D01*
X150666962Y-116569497D01*
X150666962Y-116371727D01*
X150628379Y-116177756D01*
X150552695Y-115995040D01*
X150442820Y-115830599D01*
X150302975Y-115690754D01*
X150138534Y-115580879D01*
X149955818Y-115505195D01*
X149761847Y-115466612D01*
X149564077Y-115466612D01*
X149370106Y-115505195D01*
X149187390Y-115580879D01*
X149022949Y-115690754D01*
X148915481Y-115798222D01*
X148924464Y-115784778D01*
X149000148Y-115602062D01*
X149038731Y-115408091D01*
X149038731Y-115210321D01*
X149000148Y-115016350D01*
X148924464Y-114833634D01*
X148814589Y-114669193D01*
X148674744Y-114529348D01*
X148510303Y-114419473D01*
X148327587Y-114343789D01*
X148133616Y-114305206D01*
X147935846Y-114305206D01*
X147741875Y-114343789D01*
X147559159Y-114419473D01*
X147394718Y-114529348D01*
X147308451Y-114615615D01*
X147428710Y-114447018D01*
X147492761Y-114335517D01*
X147533829Y-114213662D01*
X147550335Y-114086136D01*
X147541645Y-113957841D01*
X147508093Y-113833706D01*
X147450967Y-113718502D01*
X147372465Y-113616657D01*
X147275601Y-113532083D01*
X146705718Y-113125590D01*
X146594217Y-113061539D01*
X146472362Y-113020471D01*
X146344836Y-113003965D01*
X146216541Y-113012655D01*
X146092406Y-113046207D01*
X145977202Y-113103333D01*
X145875357Y-113181835D01*
X145790783Y-113278699D01*
X145512527Y-113668800D01*
X140285337Y-113668800D01*
X140294005Y-113663008D01*
X140461708Y-113495305D01*
X140593471Y-113298108D01*
X140684231Y-113078994D01*
X140730500Y-112846384D01*
X140730500Y-112609216D01*
X140684231Y-112376606D01*
X140593471Y-112157492D01*
X140461708Y-111960295D01*
X140294005Y-111792592D01*
X140096808Y-111660829D01*
X139893944Y-111576800D01*
X145519873Y-111576800D01*
X164977501Y-125369550D01*
X164977500Y-140718800D01*
X145275853Y-140718800D01*
X145276748Y-140715851D01*
X145302737Y-140585195D01*
X145310500Y-140506379D01*
X145310500Y-138854907D01*
X145307044Y-138802175D01*
X145290007Y-138672765D01*
X145262710Y-138570893D01*
X145212760Y-138450303D01*
X145160027Y-138358967D01*
X145080567Y-138255413D01*
X145045724Y-138215682D01*
X144938618Y-138108576D01*
X144898887Y-138073733D01*
X144795333Y-137994273D01*
X144703997Y-137941540D01*
X144583407Y-137891590D01*
X144481535Y-137864293D01*
X144352125Y-137847256D01*
X144299393Y-137843800D01*
X137956010Y-137843800D01*
X137916199Y-137845766D01*
X137818141Y-137855476D01*
X137778721Y-137861355D01*
X135729211Y-138271257D01*
X135675721Y-138285835D01*
X135546411Y-138330812D01*
X135447887Y-138381116D01*
X135335624Y-138459481D01*
X135254438Y-138534623D01*
X135167640Y-138640500D01*
X135109881Y-138734843D01*
X135055054Y-138860294D01*
X135025048Y-138966771D01*
X135006304Y-139102391D01*
X135002500Y-139157702D01*
X135002500Y-139768570D01*
X135005897Y-139820853D01*
X135022645Y-139949179D01*
X135049483Y-140050245D01*
X135098606Y-140169975D01*
X135150483Y-140260766D01*
X135228689Y-140363877D01*
X135302129Y-140438312D01*
X135404179Y-140517898D01*
X135494264Y-140570991D01*
X135613322Y-140621720D01*
X135662755Y-140639089D01*
X135947437Y-140718800D01*
X77835500Y-140718800D01*
X77835500Y-130950423D01*
X82902500Y-130950423D01*
X82902500Y-131345177D01*
X82979513Y-131732345D01*
X83130579Y-132097050D01*
X83349892Y-132425275D01*
X83629025Y-132704408D01*
X83957250Y-132923721D01*
X84321955Y-133074787D01*
X84709123Y-133151800D01*
X85103877Y-133151800D01*
X85491045Y-133074787D01*
X85855750Y-132923721D01*
X86183975Y-132704408D01*
X86463108Y-132425275D01*
X86682421Y-132097050D01*
X86833487Y-131732345D01*
X86910500Y-131345177D01*
X86910500Y-130950423D01*
X86833487Y-130563255D01*
X86682421Y-130198550D01*
X86463108Y-129870325D01*
X86183975Y-129591192D01*
X85855750Y-129371879D01*
X85491045Y-129220813D01*
X85103877Y-129143800D01*
X84709123Y-129143800D01*
X84321955Y-129220813D01*
X83957250Y-129371879D01*
X83629025Y-129591192D01*
X83349892Y-129870325D01*
X83130579Y-130198550D01*
X82979513Y-130563255D01*
X82902500Y-130950423D01*
X77835500Y-130950423D01*
X77835500Y-125369549D01*
X97293128Y-111576800D01*
X106139056Y-111576800D01*
X105936192Y-111660829D01*
%TA.AperFunction,Conductor*%
D23*
G36*
X105936192Y-111660829D02*
G01*
X105738995Y-111792592D01*
X105571292Y-111960295D01*
X105439529Y-112157492D01*
X105348769Y-112376606D01*
X105302500Y-112609216D01*
X105302500Y-112846384D01*
X105348769Y-113078994D01*
X105439529Y-113298108D01*
X105571292Y-113495305D01*
X105738995Y-113663008D01*
X105902500Y-113772259D01*
X105902500Y-114218133D01*
X105899578Y-114247800D01*
X105902500Y-114277466D01*
X105911240Y-114366204D01*
X105945777Y-114480058D01*
X105956791Y-114500664D01*
X105927668Y-114536150D01*
X105871672Y-114640911D01*
X105837189Y-114754584D01*
X105825546Y-114872800D01*
X105825546Y-115422800D01*
X105837189Y-115541016D01*
X105871672Y-115654689D01*
X105927668Y-115759450D01*
X106003026Y-115851274D01*
X106094850Y-115926632D01*
X106199611Y-115982628D01*
X106313284Y-116017111D01*
X106431500Y-116028754D01*
X106831500Y-116028754D01*
X106949716Y-116017111D01*
X107063389Y-115982628D01*
X107168150Y-115926632D01*
X107259974Y-115851274D01*
X107335332Y-115759450D01*
X107391328Y-115654689D01*
X107425811Y-115541016D01*
X107437454Y-115422800D01*
X107437454Y-114872800D01*
X107425811Y-114754584D01*
X107391328Y-114640911D01*
X107335332Y-114536150D01*
X107259974Y-114444326D01*
X107235500Y-114424241D01*
X107235500Y-114402467D01*
X107238422Y-114372800D01*
X107226760Y-114254395D01*
X107206106Y-114186309D01*
X107192223Y-114140541D01*
X107136137Y-114035612D01*
X107110500Y-114004373D01*
X107110500Y-113772259D01*
X107274005Y-113663008D01*
X107441708Y-113495305D01*
X107573471Y-113298108D01*
X107664231Y-113078994D01*
X107710500Y-112846384D01*
X107710500Y-112609216D01*
X107664231Y-112376606D01*
X107573471Y-112157492D01*
X107441708Y-111960295D01*
X107274005Y-111792592D01*
X107076808Y-111660829D01*
X106873944Y-111576800D01*
X108679056Y-111576800D01*
X108476192Y-111660829D01*
X108278995Y-111792592D01*
X108111292Y-111960295D01*
X107979529Y-112157492D01*
X107888769Y-112376606D01*
X107842500Y-112609216D01*
X107842500Y-112846384D01*
X107888769Y-113078994D01*
X107979529Y-113298108D01*
X108111292Y-113495305D01*
X108278995Y-113663008D01*
X108476192Y-113794771D01*
X108695306Y-113885531D01*
X108927916Y-113931800D01*
X109102501Y-113931800D01*
X109102500Y-114114879D01*
X109094850Y-114118968D01*
X109003026Y-114194326D01*
X108927668Y-114286150D01*
X108871672Y-114390911D01*
X108866333Y-114408511D01*
X108818150Y-114368968D01*
X108713389Y-114312972D01*
X108599716Y-114278489D01*
X108481500Y-114266846D01*
X108081500Y-114266846D01*
X107963284Y-114278489D01*
X107849611Y-114312972D01*
X107744850Y-114368968D01*
X107653026Y-114444326D01*
X107577668Y-114536150D01*
X107521672Y-114640911D01*
X107487189Y-114754584D01*
X107475546Y-114872800D01*
X107475546Y-115422800D01*
X107487189Y-115541016D01*
X107521672Y-115654689D01*
X107577668Y-115759450D01*
X107653026Y-115851274D01*
X107744850Y-115926632D01*
X107802500Y-115957447D01*
X107802501Y-116799267D01*
X107800183Y-116822800D01*
X107809432Y-116916700D01*
X107836822Y-117006992D01*
X107881300Y-117090205D01*
X107904825Y-117118870D01*
X107941158Y-117163143D01*
X107959436Y-117178143D01*
X108048139Y-117266846D01*
X107856500Y-117266846D01*
X107733407Y-117278970D01*
X107615044Y-117314875D01*
X107505961Y-117373181D01*
X107410348Y-117451648D01*
X107331881Y-117547261D01*
X107306500Y-117594746D01*
X107281119Y-117547261D01*
X107202652Y-117451648D01*
X107107039Y-117373181D01*
X106997956Y-117314875D01*
X106879593Y-117278970D01*
X106756500Y-117266846D01*
X106306500Y-117266846D01*
X106183407Y-117278970D01*
X106065044Y-117314875D01*
X105955961Y-117373181D01*
X105860348Y-117451648D01*
X105781881Y-117547261D01*
X105723575Y-117656344D01*
X105687670Y-117774707D01*
X105675546Y-117897800D01*
X105675546Y-118397800D01*
X105687670Y-118520893D01*
X105723575Y-118639256D01*
X105781881Y-118748339D01*
X105860348Y-118843952D01*
X105902501Y-118878546D01*
X105902501Y-119141846D01*
X105706500Y-119141846D01*
X105627302Y-119149646D01*
X105551148Y-119172747D01*
X105480964Y-119210262D01*
X105419447Y-119260747D01*
X105368962Y-119322264D01*
X105331447Y-119392448D01*
X105308346Y-119468602D01*
X105300546Y-119547800D01*
X105300546Y-121147800D01*
X105308346Y-121226998D01*
X105331447Y-121303152D01*
X105368962Y-121373336D01*
X105419447Y-121434853D01*
X105480964Y-121485338D01*
X105551148Y-121522853D01*
X105627302Y-121545954D01*
X105706500Y-121553754D01*
X106045106Y-121553754D01*
X106085412Y-121629162D01*
X106148394Y-121705906D01*
X106167627Y-121721690D01*
X108432614Y-123986678D01*
X108448394Y-124005906D01*
X108525138Y-124068888D01*
X108612695Y-124115688D01*
X108666330Y-124131958D01*
X108707698Y-124144507D01*
X108806499Y-124154238D01*
X108831253Y-124151800D01*
X113673399Y-124151800D01*
X118002480Y-128480881D01*
X118002479Y-132623025D01*
X118000041Y-132647779D01*
X118005619Y-132704408D01*
X118009772Y-132746579D01*
X118038591Y-132841583D01*
X118085391Y-132929141D01*
X118148373Y-133005885D01*
X118167606Y-133021669D01*
X123366220Y-138220283D01*
X123400690Y-138393578D01*
X123495219Y-138621792D01*
X123632454Y-138827179D01*
X123807121Y-139001846D01*
X124012508Y-139139081D01*
X124240722Y-139233610D01*
X124482992Y-139281800D01*
X124730008Y-139281800D01*
X124972278Y-139233610D01*
X125200492Y-139139081D01*
X125405879Y-139001846D01*
X125580546Y-138827179D01*
X125717781Y-138621792D01*
X125812310Y-138393578D01*
X125837002Y-138269440D01*
X125940470Y-138269440D01*
X126009473Y-138496920D01*
X126122841Y-138709729D01*
X126275548Y-138896332D01*
X126461725Y-139049558D01*
X126674218Y-139163518D01*
X126904860Y-139233833D01*
X127096500Y-139161786D01*
X127096500Y-138077800D01*
X127196500Y-138077800D01*
X127196500Y-139161786D01*
X127388140Y-139233833D01*
X127618782Y-139163518D01*
X127831275Y-139049558D01*
X128017452Y-138896332D01*
X128170159Y-138709729D01*
X128283527Y-138496920D01*
X128352530Y-138269440D01*
X128280398Y-138077800D01*
X127196500Y-138077800D01*
X127096500Y-138077800D01*
X126012602Y-138077800D01*
X125940470Y-138269440D01*
X125837002Y-138269440D01*
X125860500Y-138151308D01*
X125860500Y-137904292D01*
X125837003Y-137786160D01*
X125940470Y-137786160D01*
X126012602Y-137977800D01*
X127096500Y-137977800D01*
X127096500Y-136893814D01*
X127196500Y-136893814D01*
X127196500Y-137977800D01*
X128280398Y-137977800D01*
X128352530Y-137786160D01*
X128283527Y-137558680D01*
X128170159Y-137345871D01*
X128017452Y-137159268D01*
X127831275Y-137006042D01*
X127618782Y-136892082D01*
X127388140Y-136821767D01*
X127196500Y-136893814D01*
X127096500Y-136893814D01*
X126904860Y-136821767D01*
X126674218Y-136892082D01*
X126461725Y-137006042D01*
X126275548Y-137159268D01*
X126122841Y-137345871D01*
X126009473Y-137558680D01*
X125940470Y-137786160D01*
X125837003Y-137786160D01*
X125812310Y-137662022D01*
X125717781Y-137433808D01*
X125580546Y-137228421D01*
X125405879Y-137053754D01*
X125200492Y-136916519D01*
X124972278Y-136821990D01*
X124730008Y-136773800D01*
X124482992Y-136773800D01*
X124240722Y-136821990D01*
X124012508Y-136916519D01*
X123807121Y-137053754D01*
X123716169Y-137144706D01*
X119010479Y-132439016D01*
X119010479Y-131229186D01*
X121676156Y-133894864D01*
X121691156Y-133913142D01*
X121711016Y-133929440D01*
X121764092Y-133972999D01*
X121822064Y-134003985D01*
X121847307Y-134017478D01*
X121919747Y-134039453D01*
X122014847Y-134134553D01*
X122036822Y-134206993D01*
X122081301Y-134290206D01*
X122141158Y-134363144D01*
X122159440Y-134378147D01*
X123351157Y-135569865D01*
X123352500Y-135571501D01*
X123352500Y-135611308D01*
X123400690Y-135853578D01*
X123495219Y-136081792D01*
X123632454Y-136287179D01*
X123807121Y-136461846D01*
X124012508Y-136599081D01*
X124240722Y-136693610D01*
X124482992Y-136741800D01*
X124730008Y-136741800D01*
X124972278Y-136693610D01*
X125200492Y-136599081D01*
X125405879Y-136461846D01*
X125580546Y-136287179D01*
X125717781Y-136081792D01*
X125812310Y-135853578D01*
X125860500Y-135611308D01*
X125860500Y-135364292D01*
X125812310Y-135122022D01*
X125717781Y-134893808D01*
X125580546Y-134688421D01*
X125405879Y-134513754D01*
X125200492Y-134376519D01*
X124972278Y-134281990D01*
X124730008Y-134233800D01*
X124482992Y-134233800D01*
X124240722Y-134281990D01*
X124012508Y-134376519D01*
X123807121Y-134513754D01*
X123728491Y-134592384D01*
X122948155Y-133812048D01*
X122926180Y-133739607D01*
X122887617Y-133667462D01*
X122881701Y-133656393D01*
X122856936Y-133626216D01*
X122821844Y-133583456D01*
X122803566Y-133568456D01*
X122485848Y-133250739D01*
X122470844Y-133232456D01*
X122397906Y-133172599D01*
X122314693Y-133128120D01*
X122242253Y-133106146D01*
X119360488Y-130224381D01*
X119360488Y-128678200D01*
X120527155Y-129844867D01*
X120542155Y-129863145D01*
X120584915Y-129898237D01*
X120615092Y-129923002D01*
X120650199Y-129941767D01*
X120698306Y-129967481D01*
X120788598Y-129994871D01*
X120858972Y-130001802D01*
X120858975Y-130001802D01*
X120882498Y-130004119D01*
X120906021Y-130001802D01*
X121983095Y-130001802D01*
X123680612Y-131699320D01*
X123677302Y-131699646D01*
X123601148Y-131722747D01*
X123530964Y-131760262D01*
X123469447Y-131810747D01*
X123418962Y-131872264D01*
X123381447Y-131942448D01*
X123358346Y-132018602D01*
X123350546Y-132097800D01*
X123350546Y-133797800D01*
X123358346Y-133876998D01*
X123381447Y-133953152D01*
X123418962Y-134023336D01*
X123469447Y-134084853D01*
X123530964Y-134135338D01*
X123601148Y-134172853D01*
X123677302Y-134195954D01*
X123756500Y-134203754D01*
X125456500Y-134203754D01*
X125535698Y-134195954D01*
X125611852Y-134172853D01*
X125682036Y-134135338D01*
X125743553Y-134084853D01*
X125794038Y-134023336D01*
X125831553Y-133953152D01*
X125854654Y-133876998D01*
X125862454Y-133797800D01*
X125862454Y-132097800D01*
X125854654Y-132018602D01*
X125831553Y-131942448D01*
X125794038Y-131872264D01*
X125743553Y-131810747D01*
X125682036Y-131760262D01*
X125611852Y-131722747D01*
X125535698Y-131699646D01*
X125456500Y-131691846D01*
X125012821Y-131691846D01*
X125006700Y-131680394D01*
X124981935Y-131650217D01*
X124946843Y-131607457D01*
X124928565Y-131592457D01*
X122536849Y-129200742D01*
X122521845Y-129182459D01*
X122448907Y-129122602D01*
X122365694Y-129078123D01*
X122275402Y-129050733D01*
X122205028Y-129043802D01*
X122205025Y-129043802D01*
X122181502Y-129041485D01*
X122157979Y-129043802D01*
X121885304Y-129043802D01*
X121910500Y-128917138D01*
X121910500Y-128891918D01*
X122925619Y-127876800D01*
X128139894Y-127876800D01*
X128157726Y-127894632D01*
X128273031Y-127971676D01*
X128385958Y-128018452D01*
X128361821Y-128063609D01*
X128334431Y-128153901D01*
X128328839Y-128210682D01*
X128325183Y-128247800D01*
X128327500Y-128271323D01*
X128327501Y-132522127D01*
X128257781Y-132353808D01*
X128120546Y-132148421D01*
X127945879Y-131973754D01*
X127740492Y-131836519D01*
X127512278Y-131741990D01*
X127270008Y-131693800D01*
X127022992Y-131693800D01*
X126780722Y-131741990D01*
X126552508Y-131836519D01*
X126347121Y-131973754D01*
X126172454Y-132148421D01*
X126035219Y-132353808D01*
X125940690Y-132582022D01*
X125892500Y-132824292D01*
X125892500Y-133071308D01*
X125940690Y-133313578D01*
X126035219Y-133541792D01*
X126172454Y-133747179D01*
X126347121Y-133921846D01*
X126552508Y-134059081D01*
X126780722Y-134153610D01*
X127022992Y-134201800D01*
X127270008Y-134201800D01*
X127512278Y-134153610D01*
X127740492Y-134059081D01*
X127945879Y-133921846D01*
X128120546Y-133747179D01*
X128257781Y-133541792D01*
X128327501Y-133373473D01*
X128327501Y-133629391D01*
X127627271Y-134329621D01*
X127512278Y-134281990D01*
X127270008Y-134233800D01*
X127022992Y-134233800D01*
X126780722Y-134281990D01*
X126552508Y-134376519D01*
X126347121Y-134513754D01*
X126172454Y-134688421D01*
X126035219Y-134893808D01*
X125940690Y-135122022D01*
X125892500Y-135364292D01*
X125892500Y-135611308D01*
X125940690Y-135853578D01*
X126035219Y-136081792D01*
X126172454Y-136287179D01*
X126347121Y-136461846D01*
X126552508Y-136599081D01*
X126780722Y-136693610D01*
X127022992Y-136741800D01*
X127270008Y-136741800D01*
X127512278Y-136693610D01*
X127740492Y-136599081D01*
X127945879Y-136461846D01*
X128120546Y-136287179D01*
X128257781Y-136081792D01*
X128352310Y-135853578D01*
X128400500Y-135611308D01*
X128400500Y-135364292D01*
X128352310Y-135122022D01*
X128304679Y-135007029D01*
X129128565Y-134183143D01*
X129146843Y-134168143D01*
X129189060Y-134116700D01*
X129206700Y-134095206D01*
X129251179Y-134011992D01*
X129263007Y-133972999D01*
X129276221Y-133929440D01*
X129700470Y-133929440D01*
X129769473Y-134156920D01*
X129882841Y-134369729D01*
X130035548Y-134556332D01*
X130221725Y-134709558D01*
X130434218Y-134823518D01*
X130664860Y-134893833D01*
X130856500Y-134821786D01*
X130856500Y-133737800D01*
X130956500Y-133737800D01*
X130956500Y-134821786D01*
X131148140Y-134893833D01*
X131378782Y-134823518D01*
X131591275Y-134709558D01*
X131777452Y-134556332D01*
X131930159Y-134369729D01*
X132043527Y-134156920D01*
X132112530Y-133929440D01*
X132040398Y-133737800D01*
X130956500Y-133737800D01*
X130856500Y-133737800D01*
X129772602Y-133737800D01*
X129700470Y-133929440D01*
X129276221Y-133929440D01*
X129278569Y-133921700D01*
X129285500Y-133851326D01*
X129287818Y-133827800D01*
X129285500Y-133804269D01*
X129285500Y-133446160D01*
X129700470Y-133446160D01*
X129772602Y-133637800D01*
X130856500Y-133637800D01*
X130856500Y-132553814D01*
X130956500Y-132553814D01*
X130956500Y-133637800D01*
X132040398Y-133637800D01*
X132112530Y-133446160D01*
X132043527Y-133218680D01*
X131930159Y-133005871D01*
X131777452Y-132819268D01*
X131591275Y-132666042D01*
X131378782Y-132552082D01*
X131148140Y-132481767D01*
X130956500Y-132553814D01*
X130856500Y-132553814D01*
X130664860Y-132481767D01*
X130434218Y-132552082D01*
X130221725Y-132666042D01*
X130035548Y-132819268D01*
X129882841Y-133005871D01*
X129769473Y-133218680D01*
X129700470Y-133446160D01*
X129285500Y-133446160D01*
X129285500Y-131389440D01*
X129700470Y-131389440D01*
X129769473Y-131616920D01*
X129882841Y-131829729D01*
X130035548Y-132016332D01*
X130221725Y-132169558D01*
X130434218Y-132283518D01*
X130664860Y-132353833D01*
X130856500Y-132281786D01*
X130856500Y-131197800D01*
X130956500Y-131197800D01*
X130956500Y-132281786D01*
X131148140Y-132353833D01*
X131378782Y-132283518D01*
X131591275Y-132169558D01*
X131777452Y-132016332D01*
X131930159Y-131829729D01*
X132043527Y-131616920D01*
X132112530Y-131389440D01*
X132040398Y-131197800D01*
X130956500Y-131197800D01*
X130856500Y-131197800D01*
X129772602Y-131197800D01*
X129700470Y-131389440D01*
X129285500Y-131389440D01*
X129285500Y-130906160D01*
X129700470Y-130906160D01*
X129772602Y-131097800D01*
X130856500Y-131097800D01*
X130856500Y-130013814D01*
X130956500Y-130013814D01*
X130956500Y-131097800D01*
X132040398Y-131097800D01*
X132095869Y-130950423D01*
X155902500Y-130950423D01*
X155902500Y-131345177D01*
X155979513Y-131732345D01*
X156130579Y-132097050D01*
X156349892Y-132425275D01*
X156629025Y-132704408D01*
X156957250Y-132923721D01*
X157321955Y-133074787D01*
X157709123Y-133151800D01*
X158103877Y-133151800D01*
X158491045Y-133074787D01*
X158855750Y-132923721D01*
X159183975Y-132704408D01*
X159463108Y-132425275D01*
X159682421Y-132097050D01*
X159833487Y-131732345D01*
X159910500Y-131345177D01*
X159910500Y-130950423D01*
X159833487Y-130563255D01*
X159682421Y-130198550D01*
X159463108Y-129870325D01*
X159183975Y-129591192D01*
X158855750Y-129371879D01*
X158491045Y-129220813D01*
X158103877Y-129143800D01*
X157709123Y-129143800D01*
X157321955Y-129220813D01*
X156957250Y-129371879D01*
X156629025Y-129591192D01*
X156349892Y-129870325D01*
X156130579Y-130198550D01*
X155979513Y-130563255D01*
X155902500Y-130950423D01*
X132095869Y-130950423D01*
X132112530Y-130906160D01*
X132043527Y-130678680D01*
X131930159Y-130465871D01*
X131777452Y-130279268D01*
X131591275Y-130126042D01*
X131378782Y-130012082D01*
X131148140Y-129941767D01*
X130956500Y-130013814D01*
X130856500Y-130013814D01*
X130664860Y-129941767D01*
X130434218Y-130012082D01*
X130221725Y-130126042D01*
X130035548Y-130279268D01*
X129882841Y-130465871D01*
X129769473Y-130678680D01*
X129700470Y-130906160D01*
X129285500Y-130906160D01*
X129285500Y-128446207D01*
X129650546Y-128081161D01*
X129650546Y-129457800D01*
X129658346Y-129536998D01*
X129681447Y-129613152D01*
X129718962Y-129683336D01*
X129769447Y-129744853D01*
X129830964Y-129795338D01*
X129901148Y-129832853D01*
X129977302Y-129855954D01*
X130056500Y-129863754D01*
X131756500Y-129863754D01*
X131835698Y-129855954D01*
X131911852Y-129832853D01*
X131982036Y-129795338D01*
X132043553Y-129744853D01*
X132094038Y-129683336D01*
X132131553Y-129613152D01*
X132154654Y-129536998D01*
X132162454Y-129457800D01*
X132162454Y-127757800D01*
X132154654Y-127678602D01*
X132131553Y-127602448D01*
X132094038Y-127532264D01*
X132043553Y-127470747D01*
X131982036Y-127420262D01*
X131911852Y-127382747D01*
X131835698Y-127359646D01*
X131756500Y-127351846D01*
X130379862Y-127351846D01*
X130604908Y-127126800D01*
X132330708Y-127126800D01*
X132302500Y-127268613D01*
X132302500Y-127426987D01*
X132333397Y-127582318D01*
X132394005Y-127728637D01*
X132481993Y-127860320D01*
X132593980Y-127972307D01*
X132725663Y-128060295D01*
X132871982Y-128120903D01*
X133027313Y-128151800D01*
X133185687Y-128151800D01*
X133341018Y-128120903D01*
X133487337Y-128060295D01*
X133619020Y-127972307D01*
X133714527Y-127876800D01*
X138246220Y-127876800D01*
X138272199Y-127879359D01*
X138298178Y-127876800D01*
X138298180Y-127876800D01*
X138375901Y-127869145D01*
X138475618Y-127838896D01*
X138567517Y-127789775D01*
X138648068Y-127723669D01*
X138664634Y-127703483D01*
X140682187Y-125685931D01*
X140702368Y-125669369D01*
X140746819Y-125615205D01*
X140768474Y-125588819D01*
X140817595Y-125496919D01*
X140825661Y-125470330D01*
X140847844Y-125397202D01*
X140855499Y-125319481D01*
X140855499Y-125319479D01*
X140858058Y-125293500D01*
X140855499Y-125267521D01*
X140855499Y-123103943D01*
X154097696Y-123103943D01*
X154185442Y-123275892D01*
X154305047Y-123427418D01*
X154451916Y-123552699D01*
X154620403Y-123646920D01*
X154804036Y-123706461D01*
X154973065Y-123728338D01*
X155111783Y-123628872D01*
X154973418Y-122802034D01*
X154146579Y-122940399D01*
X154097696Y-123103943D01*
X140855499Y-123103943D01*
X140855499Y-122703052D01*
X154030609Y-122703052D01*
X154130075Y-122841770D01*
X154466158Y-122785529D01*
X155072047Y-122785529D01*
X155210412Y-123612368D01*
X155373956Y-123661251D01*
X155545905Y-123573505D01*
X155697431Y-123453900D01*
X155822712Y-123307031D01*
X155916933Y-123138544D01*
X155976474Y-122954911D01*
X155998351Y-122785882D01*
X155898885Y-122647164D01*
X155072047Y-122785529D01*
X154466158Y-122785529D01*
X154956913Y-122703405D01*
X154818548Y-121876566D01*
X154763332Y-121860062D01*
X154917177Y-121860062D01*
X155055542Y-122686900D01*
X155882381Y-122548535D01*
X155931264Y-122384991D01*
X155843518Y-122213042D01*
X155723913Y-122061516D01*
X155577044Y-121936235D01*
X155408557Y-121842014D01*
X155224924Y-121782473D01*
X155055895Y-121760596D01*
X154917177Y-121860062D01*
X154763332Y-121860062D01*
X154655004Y-121827683D01*
X154483055Y-121915429D01*
X154331529Y-122035034D01*
X154206248Y-122181903D01*
X154112027Y-122350390D01*
X154052486Y-122534023D01*
X154030609Y-122703052D01*
X140855499Y-122703052D01*
X140855499Y-121173769D01*
X140858057Y-121147798D01*
X140855499Y-121121827D01*
X140855499Y-121121818D01*
X140847844Y-121044097D01*
X140817595Y-120944380D01*
X140768474Y-120852481D01*
X140702368Y-120771930D01*
X140682187Y-120755368D01*
X140667121Y-120740302D01*
X140684231Y-120698994D01*
X140730500Y-120466384D01*
X140730500Y-120229216D01*
X140684231Y-119996606D01*
X140593471Y-119777492D01*
X140461708Y-119580295D01*
X140294005Y-119412592D01*
X140096808Y-119280829D01*
X139877694Y-119190069D01*
X139645084Y-119143800D01*
X139407916Y-119143800D01*
X139175306Y-119190069D01*
X138956192Y-119280829D01*
X138758995Y-119412592D01*
X138591292Y-119580295D01*
X138459529Y-119777492D01*
X138368769Y-119996606D01*
X138322500Y-120229216D01*
X138322500Y-120466384D01*
X138368769Y-120698994D01*
X138459529Y-120918108D01*
X138591292Y-121115305D01*
X138746400Y-121270413D01*
X138730026Y-121268800D01*
X138730023Y-121268800D01*
X138706500Y-121266483D01*
X138682977Y-121268800D01*
X137768213Y-121268800D01*
X137921708Y-121115305D01*
X138053471Y-120918108D01*
X138144231Y-120698994D01*
X138190500Y-120466384D01*
X138190500Y-120229216D01*
X138144231Y-119996606D01*
X138106410Y-119905298D01*
X139134798Y-118876910D01*
X140868227Y-118876910D01*
X144111191Y-122119875D01*
X144126191Y-122138153D01*
X144164838Y-122169869D01*
X144199128Y-122198010D01*
X144252990Y-122226800D01*
X144282342Y-122242489D01*
X144372634Y-122269879D01*
X144443008Y-122276810D01*
X144443011Y-122276810D01*
X144466534Y-122279127D01*
X144490057Y-122276810D01*
X152660127Y-122276810D01*
X152746236Y-122362919D01*
X152910677Y-122472794D01*
X153093393Y-122548478D01*
X153287364Y-122587061D01*
X153485134Y-122587061D01*
X153679105Y-122548478D01*
X153861821Y-122472794D01*
X154026262Y-122362919D01*
X154166107Y-122223074D01*
X154275982Y-122058633D01*
X154351666Y-121875917D01*
X154390249Y-121681946D01*
X154390249Y-121484176D01*
X154351666Y-121290205D01*
X154275982Y-121107489D01*
X154166107Y-120943048D01*
X154058639Y-120835580D01*
X154072083Y-120844563D01*
X154254799Y-120920247D01*
X154448770Y-120958830D01*
X154646540Y-120958830D01*
X154840511Y-120920247D01*
X155023227Y-120844563D01*
X155187668Y-120734688D01*
X155295134Y-120627222D01*
X155286153Y-120640663D01*
X155210469Y-120823379D01*
X155171886Y-121017350D01*
X155171886Y-121215120D01*
X155210469Y-121409091D01*
X155286153Y-121591807D01*
X155396028Y-121756248D01*
X155535873Y-121896093D01*
X155700314Y-122005968D01*
X155883030Y-122081652D01*
X156077001Y-122120235D01*
X156274771Y-122120235D01*
X156468742Y-122081652D01*
X156651458Y-122005968D01*
X156815899Y-121896093D01*
X156955744Y-121756248D01*
X157065619Y-121591807D01*
X157141303Y-121409091D01*
X157179886Y-121215120D01*
X157179886Y-121017350D01*
X157141303Y-120823379D01*
X157065619Y-120640663D01*
X156955744Y-120476222D01*
X156815899Y-120336377D01*
X156651458Y-120226502D01*
X156468742Y-120150818D01*
X156274771Y-120112235D01*
X156077001Y-120112235D01*
X155883030Y-120150818D01*
X155700314Y-120226502D01*
X155535873Y-120336377D01*
X155428407Y-120443843D01*
X155437388Y-120430402D01*
X155513072Y-120247686D01*
X155551655Y-120053715D01*
X155551655Y-119855945D01*
X155513072Y-119661974D01*
X155437388Y-119479258D01*
X155327513Y-119314817D01*
X155187668Y-119174972D01*
X155023227Y-119065097D01*
X154840511Y-118989413D01*
X154646540Y-118950830D01*
X154448770Y-118950830D01*
X154254799Y-118989413D01*
X154072083Y-119065097D01*
X153907642Y-119174972D01*
X153800174Y-119282440D01*
X153809157Y-119268996D01*
X153884841Y-119086280D01*
X153923424Y-118892309D01*
X153923424Y-118694539D01*
X153884841Y-118500568D01*
X153809157Y-118317852D01*
X153699282Y-118153411D01*
X153559437Y-118013566D01*
X153394996Y-117903691D01*
X153212280Y-117828007D01*
X153018309Y-117789424D01*
X152820539Y-117789424D01*
X152626568Y-117828007D01*
X152443852Y-117903691D01*
X152279411Y-118013566D01*
X152171943Y-118121034D01*
X152180926Y-118107590D01*
X152256610Y-117924874D01*
X152295193Y-117730903D01*
X152295193Y-117533133D01*
X152256610Y-117339162D01*
X152180926Y-117156446D01*
X152071051Y-116992005D01*
X151931206Y-116852160D01*
X151766765Y-116742285D01*
X151584049Y-116666601D01*
X151390078Y-116628018D01*
X151192308Y-116628018D01*
X150998337Y-116666601D01*
X150815621Y-116742285D01*
X150651180Y-116852160D01*
X150543712Y-116959628D01*
X150552695Y-116946184D01*
X150628379Y-116763468D01*
X150666962Y-116569497D01*
X150666962Y-116371727D01*
X150628379Y-116177756D01*
X150552695Y-115995040D01*
X150442820Y-115830599D01*
X150302975Y-115690754D01*
X150138534Y-115580879D01*
X149955818Y-115505195D01*
X149761847Y-115466612D01*
X149564077Y-115466612D01*
X149370106Y-115505195D01*
X149187390Y-115580879D01*
X149022949Y-115690754D01*
X148915481Y-115798222D01*
X148924464Y-115784778D01*
X149000148Y-115602062D01*
X149038731Y-115408091D01*
X149038731Y-115210321D01*
X149000148Y-115016350D01*
X148924464Y-114833634D01*
X148814589Y-114669193D01*
X148674744Y-114529348D01*
X148510303Y-114419473D01*
X148327587Y-114343789D01*
X148133616Y-114305206D01*
X147935846Y-114305206D01*
X147741875Y-114343789D01*
X147559159Y-114419473D01*
X147394718Y-114529348D01*
X147308451Y-114615615D01*
X147428710Y-114447018D01*
X147492761Y-114335517D01*
X147533829Y-114213662D01*
X147550335Y-114086136D01*
X147541645Y-113957841D01*
X147508093Y-113833706D01*
X147450967Y-113718502D01*
X147372465Y-113616657D01*
X147275601Y-113532083D01*
X146705718Y-113125590D01*
X146594217Y-113061539D01*
X146472362Y-113020471D01*
X146344836Y-113003965D01*
X146216541Y-113012655D01*
X146092406Y-113046207D01*
X145977202Y-113103333D01*
X145875357Y-113181835D01*
X145790783Y-113278699D01*
X145512527Y-113668800D01*
X140285337Y-113668800D01*
X140294005Y-113663008D01*
X140461708Y-113495305D01*
X140593471Y-113298108D01*
X140684231Y-113078994D01*
X140730500Y-112846384D01*
X140730500Y-112609216D01*
X140684231Y-112376606D01*
X140593471Y-112157492D01*
X140461708Y-111960295D01*
X140294005Y-111792592D01*
X140096808Y-111660829D01*
X139893944Y-111576800D01*
X145519873Y-111576800D01*
X164977501Y-125369550D01*
X164977500Y-140718800D01*
X145275853Y-140718800D01*
X145276748Y-140715851D01*
X145302737Y-140585195D01*
X145310500Y-140506379D01*
X145310500Y-138854907D01*
X145307044Y-138802175D01*
X145290007Y-138672765D01*
X145262710Y-138570893D01*
X145212760Y-138450303D01*
X145160027Y-138358967D01*
X145080567Y-138255413D01*
X145045724Y-138215682D01*
X144938618Y-138108576D01*
X144898887Y-138073733D01*
X144795333Y-137994273D01*
X144703997Y-137941540D01*
X144583407Y-137891590D01*
X144481535Y-137864293D01*
X144352125Y-137847256D01*
X144299393Y-137843800D01*
X137956010Y-137843800D01*
X137916199Y-137845766D01*
X137818141Y-137855476D01*
X137778721Y-137861355D01*
X135729211Y-138271257D01*
X135675721Y-138285835D01*
X135546411Y-138330812D01*
X135447887Y-138381116D01*
X135335624Y-138459481D01*
X135254438Y-138534623D01*
X135167640Y-138640500D01*
X135109881Y-138734843D01*
X135055054Y-138860294D01*
X135025048Y-138966771D01*
X135006304Y-139102391D01*
X135002500Y-139157702D01*
X135002500Y-139768570D01*
X135005897Y-139820853D01*
X135022645Y-139949179D01*
X135049483Y-140050245D01*
X135098606Y-140169975D01*
X135150483Y-140260766D01*
X135228689Y-140363877D01*
X135302129Y-140438312D01*
X135404179Y-140517898D01*
X135494264Y-140570991D01*
X135613322Y-140621720D01*
X135662755Y-140639089D01*
X135947437Y-140718800D01*
X77835500Y-140718800D01*
X77835500Y-130950423D01*
X82902500Y-130950423D01*
X82902500Y-131345177D01*
X82979513Y-131732345D01*
X83130579Y-132097050D01*
X83349892Y-132425275D01*
X83629025Y-132704408D01*
X83957250Y-132923721D01*
X84321955Y-133074787D01*
X84709123Y-133151800D01*
X85103877Y-133151800D01*
X85491045Y-133074787D01*
X85855750Y-132923721D01*
X86183975Y-132704408D01*
X86463108Y-132425275D01*
X86682421Y-132097050D01*
X86833487Y-131732345D01*
X86910500Y-131345177D01*
X86910500Y-130950423D01*
X86833487Y-130563255D01*
X86682421Y-130198550D01*
X86463108Y-129870325D01*
X86183975Y-129591192D01*
X85855750Y-129371879D01*
X85491045Y-129220813D01*
X85103877Y-129143800D01*
X84709123Y-129143800D01*
X84321955Y-129220813D01*
X83957250Y-129371879D01*
X83629025Y-129591192D01*
X83349892Y-129870325D01*
X83130579Y-130198550D01*
X82979513Y-130563255D01*
X82902500Y-130950423D01*
X77835500Y-130950423D01*
X77835500Y-125369549D01*
X97293128Y-111576800D01*
X106139056Y-111576800D01*
X105936192Y-111660829D01*
G37*
%TD.AperFunction*%
D24*
X132675156Y-118844866D02*
X132690156Y-118863144D01*
X132725695Y-118892309D01*
X132763093Y-118923001D01*
X132839061Y-118963607D01*
X132846307Y-118967480D01*
X132936599Y-118994870D01*
X133006973Y-119001801D01*
X133006976Y-119001801D01*
X133030499Y-119004118D01*
X133054022Y-119001801D01*
X133421084Y-119001801D01*
X132842061Y-119580824D01*
X132841708Y-119580295D01*
X132674005Y-119412592D01*
X132476808Y-119280829D01*
X132257694Y-119190069D01*
X132025084Y-119143800D01*
X131787916Y-119143800D01*
X131555306Y-119190069D01*
X131336192Y-119280829D01*
X131138995Y-119412592D01*
X130971292Y-119580295D01*
X130839529Y-119777492D01*
X130748769Y-119996606D01*
X130702500Y-120229216D01*
X130702500Y-120466384D01*
X130748769Y-120698994D01*
X130839529Y-120918108D01*
X130952973Y-121087889D01*
X130911849Y-121070855D01*
X130775838Y-121043800D01*
X130637162Y-121043800D01*
X130501151Y-121070855D01*
X130373031Y-121123924D01*
X130257726Y-121200968D01*
X130159668Y-121299026D01*
X130082624Y-121414331D01*
X130029555Y-121542451D01*
X130002500Y-121678462D01*
X130002500Y-121817138D01*
X130029555Y-121953149D01*
X130082624Y-122081269D01*
X130159668Y-122196574D01*
X130257726Y-122294632D01*
X130373031Y-122371676D01*
X130501151Y-122424745D01*
X130637162Y-122451800D01*
X130775838Y-122451800D01*
X130911849Y-122424745D01*
X131039969Y-122371676D01*
X131155274Y-122294632D01*
X131223106Y-122226800D01*
X138508093Y-122226800D01*
X139227500Y-122946208D01*
X139227501Y-125149391D01*
X138208093Y-126168800D01*
X130430023Y-126168800D01*
X130406500Y-126166483D01*
X130382977Y-126168800D01*
X130382974Y-126168800D01*
X130312600Y-126175731D01*
X130222308Y-126203121D01*
X130139094Y-126247600D01*
X130108917Y-126272365D01*
X130066157Y-126307457D01*
X130051160Y-126325732D01*
X129269092Y-127107800D01*
X129230376Y-127014331D01*
X129153332Y-126899026D01*
X129055274Y-126800968D01*
X128939969Y-126723924D01*
X128811849Y-126670855D01*
X128675838Y-126643800D01*
X128537162Y-126643800D01*
X128401151Y-126670855D01*
X128273031Y-126723924D01*
X128157726Y-126800968D01*
X128139894Y-126818800D01*
X122732470Y-126818800D01*
X122706499Y-126816242D01*
X122680528Y-126818800D01*
X122680519Y-126818800D01*
X122602798Y-126826455D01*
X122503081Y-126856704D01*
X122411182Y-126905825D01*
X122330631Y-126971931D01*
X122314069Y-126992112D01*
X121162382Y-128143800D01*
X121137162Y-128143800D01*
X121001151Y-128170855D01*
X120873031Y-128223924D01*
X120757726Y-128300968D01*
X120659668Y-128399026D01*
X120582624Y-128514331D01*
X120573489Y-128536385D01*
X117285500Y-125248397D01*
X117285500Y-123146207D01*
X117529907Y-122901801D01*
X125007976Y-122901801D01*
X125031499Y-122904118D01*
X125055022Y-122901801D01*
X125055025Y-122901801D01*
X125125399Y-122894870D01*
X125215691Y-122867480D01*
X125298904Y-122823001D01*
X125371842Y-122763144D01*
X125386846Y-122744861D01*
X125579907Y-122551800D01*
X125675838Y-122551800D01*
X125811849Y-122524745D01*
X125939969Y-122471676D01*
X126055274Y-122394632D01*
X126153332Y-122296574D01*
X126230376Y-122181269D01*
X126283445Y-122053149D01*
X126310500Y-121917138D01*
X126310500Y-121778462D01*
X126283445Y-121642451D01*
X126230376Y-121514331D01*
X126153332Y-121399026D01*
X126055274Y-121300968D01*
X125939969Y-121223924D01*
X125811849Y-121170855D01*
X125675838Y-121143800D01*
X125537162Y-121143800D01*
X125401151Y-121170855D01*
X125273031Y-121223924D01*
X125157726Y-121300968D01*
X125059668Y-121399026D01*
X125056500Y-121403767D01*
X125053332Y-121399026D01*
X124964499Y-121310193D01*
X125118285Y-121184784D01*
X125265590Y-121006428D01*
X125375269Y-120802762D01*
X125443107Y-120581612D01*
X125370443Y-120397800D01*
X124336500Y-120397800D01*
X124336500Y-120417800D01*
X124236500Y-120417800D01*
X124236500Y-120397800D01*
X123202557Y-120397800D01*
X123129893Y-120581612D01*
X123197731Y-120802762D01*
X123307410Y-121006428D01*
X123454715Y-121184784D01*
X123633985Y-121330975D01*
X123705284Y-121368800D01*
X122385608Y-121368800D01*
X122514005Y-121283008D01*
X122681708Y-121115305D01*
X122813471Y-120918108D01*
X122904231Y-120698994D01*
X122950500Y-120466384D01*
X122950500Y-120229216D01*
X122904231Y-119996606D01*
X122813471Y-119777492D01*
X122681708Y-119580295D01*
X122650500Y-119549087D01*
X122650500Y-119482248D01*
X122906695Y-119226054D01*
X123007039Y-119172419D01*
X123102652Y-119093952D01*
X123174814Y-119006022D01*
X123178727Y-119018923D01*
X123214012Y-119084938D01*
X123261499Y-119142801D01*
X123319362Y-119190288D01*
X123385377Y-119225573D01*
X123457007Y-119247302D01*
X123531500Y-119254639D01*
X123836500Y-119252800D01*
X123931498Y-119157802D01*
X123931498Y-119227957D01*
X123838331Y-119256217D01*
X123633985Y-119364625D01*
X123454715Y-119510816D01*
X123307410Y-119689172D01*
X123197731Y-119892838D01*
X123129893Y-120113988D01*
X123202557Y-120297800D01*
X124236500Y-120297800D01*
X124236500Y-120277800D01*
X124336500Y-120277800D01*
X124336500Y-120297800D01*
X125370443Y-120297800D01*
X125443107Y-120113988D01*
X125375269Y-119892838D01*
X125265590Y-119689172D01*
X125118285Y-119510816D01*
X124939015Y-119364625D01*
X124734669Y-119256217D01*
X124597905Y-119214732D01*
X124643638Y-119190288D01*
X124701501Y-119142801D01*
X124748988Y-119084938D01*
X124784273Y-119018923D01*
X124806002Y-118947293D01*
X124813339Y-118872800D01*
X124812510Y-118724094D01*
X125558281Y-119469865D01*
X125573281Y-119488143D01*
X125597534Y-119508046D01*
X125646218Y-119548000D01*
X125669692Y-119560547D01*
X125729432Y-119592479D01*
X125819724Y-119619869D01*
X125862063Y-119624039D01*
X125759529Y-119777492D01*
X125668769Y-119996606D01*
X125622500Y-120229216D01*
X125622500Y-120466384D01*
X125668769Y-120698994D01*
X125759529Y-120918108D01*
X125891292Y-121115305D01*
X126058995Y-121283008D01*
X126256192Y-121414771D01*
X126475306Y-121505531D01*
X126707916Y-121551800D01*
X126945084Y-121551800D01*
X127177694Y-121505531D01*
X127396808Y-121414771D01*
X127594005Y-121283008D01*
X127761708Y-121115305D01*
X127893471Y-120918108D01*
X127984231Y-120698994D01*
X128030500Y-120466384D01*
X128030500Y-120229216D01*
X127984231Y-119996606D01*
X127893471Y-119777492D01*
X127792782Y-119626800D01*
X128400218Y-119626800D01*
X128299529Y-119777492D01*
X128208769Y-119996606D01*
X128162500Y-120229216D01*
X128162500Y-120466384D01*
X128208769Y-120698994D01*
X128299529Y-120918108D01*
X128431292Y-121115305D01*
X128598995Y-121283008D01*
X128796192Y-121414771D01*
X129015306Y-121505531D01*
X129247916Y-121551800D01*
X129485084Y-121551800D01*
X129717694Y-121505531D01*
X129936808Y-121414771D01*
X130134005Y-121283008D01*
X130301708Y-121115305D01*
X130433471Y-120918108D01*
X130524231Y-120698994D01*
X130570500Y-120466384D01*
X130570500Y-120229216D01*
X130524231Y-119996606D01*
X130433471Y-119777492D01*
X130304808Y-119584934D01*
X130373905Y-119548000D01*
X130446843Y-119488143D01*
X130461847Y-119469860D01*
X130579907Y-119351800D01*
X130675838Y-119351800D01*
X130811849Y-119324745D01*
X130939969Y-119271676D01*
X131055274Y-119194632D01*
X131153332Y-119096574D01*
X131230376Y-118981269D01*
X131283445Y-118853149D01*
X131310500Y-118717138D01*
X131310500Y-118578462D01*
X131283445Y-118442451D01*
X131235541Y-118326800D01*
X132157091Y-118326800D01*
X132675156Y-118844866D01*
%TA.AperFunction,Conductor*%
D23*
G36*
X132675156Y-118844866D02*
G01*
X132690156Y-118863144D01*
X132725695Y-118892309D01*
X132763093Y-118923001D01*
X132839061Y-118963607D01*
X132846307Y-118967480D01*
X132936599Y-118994870D01*
X133006973Y-119001801D01*
X133006976Y-119001801D01*
X133030499Y-119004118D01*
X133054022Y-119001801D01*
X133421084Y-119001801D01*
X132842061Y-119580824D01*
X132841708Y-119580295D01*
X132674005Y-119412592D01*
X132476808Y-119280829D01*
X132257694Y-119190069D01*
X132025084Y-119143800D01*
X131787916Y-119143800D01*
X131555306Y-119190069D01*
X131336192Y-119280829D01*
X131138995Y-119412592D01*
X130971292Y-119580295D01*
X130839529Y-119777492D01*
X130748769Y-119996606D01*
X130702500Y-120229216D01*
X130702500Y-120466384D01*
X130748769Y-120698994D01*
X130839529Y-120918108D01*
X130952973Y-121087889D01*
X130911849Y-121070855D01*
X130775838Y-121043800D01*
X130637162Y-121043800D01*
X130501151Y-121070855D01*
X130373031Y-121123924D01*
X130257726Y-121200968D01*
X130159668Y-121299026D01*
X130082624Y-121414331D01*
X130029555Y-121542451D01*
X130002500Y-121678462D01*
X130002500Y-121817138D01*
X130029555Y-121953149D01*
X130082624Y-122081269D01*
X130159668Y-122196574D01*
X130257726Y-122294632D01*
X130373031Y-122371676D01*
X130501151Y-122424745D01*
X130637162Y-122451800D01*
X130775838Y-122451800D01*
X130911849Y-122424745D01*
X131039969Y-122371676D01*
X131155274Y-122294632D01*
X131223106Y-122226800D01*
X138508093Y-122226800D01*
X139227500Y-122946208D01*
X139227501Y-125149391D01*
X138208093Y-126168800D01*
X130430023Y-126168800D01*
X130406500Y-126166483D01*
X130382977Y-126168800D01*
X130382974Y-126168800D01*
X130312600Y-126175731D01*
X130222308Y-126203121D01*
X130139094Y-126247600D01*
X130108917Y-126272365D01*
X130066157Y-126307457D01*
X130051160Y-126325732D01*
X129269092Y-127107800D01*
X129230376Y-127014331D01*
X129153332Y-126899026D01*
X129055274Y-126800968D01*
X128939969Y-126723924D01*
X128811849Y-126670855D01*
X128675838Y-126643800D01*
X128537162Y-126643800D01*
X128401151Y-126670855D01*
X128273031Y-126723924D01*
X128157726Y-126800968D01*
X128139894Y-126818800D01*
X122732470Y-126818800D01*
X122706499Y-126816242D01*
X122680528Y-126818800D01*
X122680519Y-126818800D01*
X122602798Y-126826455D01*
X122503081Y-126856704D01*
X122411182Y-126905825D01*
X122330631Y-126971931D01*
X122314069Y-126992112D01*
X121162382Y-128143800D01*
X121137162Y-128143800D01*
X121001151Y-128170855D01*
X120873031Y-128223924D01*
X120757726Y-128300968D01*
X120659668Y-128399026D01*
X120582624Y-128514331D01*
X120573489Y-128536385D01*
X117285500Y-125248397D01*
X117285500Y-123146207D01*
X117529907Y-122901801D01*
X125007976Y-122901801D01*
X125031499Y-122904118D01*
X125055022Y-122901801D01*
X125055025Y-122901801D01*
X125125399Y-122894870D01*
X125215691Y-122867480D01*
X125298904Y-122823001D01*
X125371842Y-122763144D01*
X125386846Y-122744861D01*
X125579907Y-122551800D01*
X125675838Y-122551800D01*
X125811849Y-122524745D01*
X125939969Y-122471676D01*
X126055274Y-122394632D01*
X126153332Y-122296574D01*
X126230376Y-122181269D01*
X126283445Y-122053149D01*
X126310500Y-121917138D01*
X126310500Y-121778462D01*
X126283445Y-121642451D01*
X126230376Y-121514331D01*
X126153332Y-121399026D01*
X126055274Y-121300968D01*
X125939969Y-121223924D01*
X125811849Y-121170855D01*
X125675838Y-121143800D01*
X125537162Y-121143800D01*
X125401151Y-121170855D01*
X125273031Y-121223924D01*
X125157726Y-121300968D01*
X125059668Y-121399026D01*
X125056500Y-121403767D01*
X125053332Y-121399026D01*
X124964499Y-121310193D01*
X125118285Y-121184784D01*
X125265590Y-121006428D01*
X125375269Y-120802762D01*
X125443107Y-120581612D01*
X125370443Y-120397800D01*
X124336500Y-120397800D01*
X124336500Y-120417800D01*
X124236500Y-120417800D01*
X124236500Y-120397800D01*
X123202557Y-120397800D01*
X123129893Y-120581612D01*
X123197731Y-120802762D01*
X123307410Y-121006428D01*
X123454715Y-121184784D01*
X123633985Y-121330975D01*
X123705284Y-121368800D01*
X122385608Y-121368800D01*
X122514005Y-121283008D01*
X122681708Y-121115305D01*
X122813471Y-120918108D01*
X122904231Y-120698994D01*
X122950500Y-120466384D01*
X122950500Y-120229216D01*
X122904231Y-119996606D01*
X122813471Y-119777492D01*
X122681708Y-119580295D01*
X122650500Y-119549087D01*
X122650500Y-119482248D01*
X122906695Y-119226054D01*
X123007039Y-119172419D01*
X123102652Y-119093952D01*
X123174814Y-119006022D01*
X123178727Y-119018923D01*
X123214012Y-119084938D01*
X123261499Y-119142801D01*
X123319362Y-119190288D01*
X123385377Y-119225573D01*
X123457007Y-119247302D01*
X123531500Y-119254639D01*
X123836500Y-119252800D01*
X123931498Y-119157802D01*
X123931498Y-119227957D01*
X123838331Y-119256217D01*
X123633985Y-119364625D01*
X123454715Y-119510816D01*
X123307410Y-119689172D01*
X123197731Y-119892838D01*
X123129893Y-120113988D01*
X123202557Y-120297800D01*
X124236500Y-120297800D01*
X124236500Y-120277800D01*
X124336500Y-120277800D01*
X124336500Y-120297800D01*
X125370443Y-120297800D01*
X125443107Y-120113988D01*
X125375269Y-119892838D01*
X125265590Y-119689172D01*
X125118285Y-119510816D01*
X124939015Y-119364625D01*
X124734669Y-119256217D01*
X124597905Y-119214732D01*
X124643638Y-119190288D01*
X124701501Y-119142801D01*
X124748988Y-119084938D01*
X124784273Y-119018923D01*
X124806002Y-118947293D01*
X124813339Y-118872800D01*
X124812510Y-118724094D01*
X125558281Y-119469865D01*
X125573281Y-119488143D01*
X125597534Y-119508046D01*
X125646218Y-119548000D01*
X125669692Y-119560547D01*
X125729432Y-119592479D01*
X125819724Y-119619869D01*
X125862063Y-119624039D01*
X125759529Y-119777492D01*
X125668769Y-119996606D01*
X125622500Y-120229216D01*
X125622500Y-120466384D01*
X125668769Y-120698994D01*
X125759529Y-120918108D01*
X125891292Y-121115305D01*
X126058995Y-121283008D01*
X126256192Y-121414771D01*
X126475306Y-121505531D01*
X126707916Y-121551800D01*
X126945084Y-121551800D01*
X127177694Y-121505531D01*
X127396808Y-121414771D01*
X127594005Y-121283008D01*
X127761708Y-121115305D01*
X127893471Y-120918108D01*
X127984231Y-120698994D01*
X128030500Y-120466384D01*
X128030500Y-120229216D01*
X127984231Y-119996606D01*
X127893471Y-119777492D01*
X127792782Y-119626800D01*
X128400218Y-119626800D01*
X128299529Y-119777492D01*
X128208769Y-119996606D01*
X128162500Y-120229216D01*
X128162500Y-120466384D01*
X128208769Y-120698994D01*
X128299529Y-120918108D01*
X128431292Y-121115305D01*
X128598995Y-121283008D01*
X128796192Y-121414771D01*
X129015306Y-121505531D01*
X129247916Y-121551800D01*
X129485084Y-121551800D01*
X129717694Y-121505531D01*
X129936808Y-121414771D01*
X130134005Y-121283008D01*
X130301708Y-121115305D01*
X130433471Y-120918108D01*
X130524231Y-120698994D01*
X130570500Y-120466384D01*
X130570500Y-120229216D01*
X130524231Y-119996606D01*
X130433471Y-119777492D01*
X130304808Y-119584934D01*
X130373905Y-119548000D01*
X130446843Y-119488143D01*
X130461847Y-119469860D01*
X130579907Y-119351800D01*
X130675838Y-119351800D01*
X130811849Y-119324745D01*
X130939969Y-119271676D01*
X131055274Y-119194632D01*
X131153332Y-119096574D01*
X131230376Y-118981269D01*
X131283445Y-118853149D01*
X131310500Y-118717138D01*
X131310500Y-118578462D01*
X131283445Y-118442451D01*
X131235541Y-118326800D01*
X132157091Y-118326800D01*
X132675156Y-118844866D01*
G37*
%TD.AperFunction*%
D24*
X113358995Y-119412592D02*
X113191292Y-119580295D01*
X113059529Y-119777492D01*
X112968769Y-119996606D01*
X112922500Y-120229216D01*
X112922500Y-120466384D01*
X112968769Y-120698994D01*
X113059529Y-120918108D01*
X113191292Y-121115305D01*
X113358995Y-121283008D01*
X113556192Y-121414771D01*
X113775306Y-121505531D01*
X114007916Y-121551800D01*
X114245084Y-121551800D01*
X114477694Y-121505531D01*
X114696808Y-121414771D01*
X114894005Y-121283008D01*
X115061708Y-121115305D01*
X115193471Y-120918108D01*
X115284231Y-120698994D01*
X115330500Y-120466384D01*
X115330500Y-120229216D01*
X115284231Y-119996606D01*
X115246410Y-119905298D01*
X115399909Y-119751799D01*
X115616697Y-119751799D01*
X115599529Y-119777492D01*
X115508769Y-119996606D01*
X115462500Y-120229216D01*
X115462500Y-120466384D01*
X115508769Y-120698994D01*
X115599529Y-120918108D01*
X115731292Y-121115305D01*
X115898995Y-121283008D01*
X116096192Y-121414771D01*
X116315306Y-121505531D01*
X116547916Y-121551800D01*
X116785084Y-121551800D01*
X117017694Y-121505531D01*
X117130400Y-121458847D01*
X117121279Y-121466332D01*
X117071167Y-121507457D01*
X117056167Y-121525735D01*
X116217371Y-122364532D01*
X116131007Y-122235280D01*
X116019020Y-122123293D01*
X115887337Y-122035305D01*
X115741018Y-121974697D01*
X115585687Y-121943800D01*
X115427313Y-121943800D01*
X115271982Y-121974697D01*
X115125663Y-122035305D01*
X114993980Y-122123293D01*
X114881993Y-122235280D01*
X114876300Y-122243800D01*
X111715264Y-122243800D01*
X110810500Y-121339037D01*
X110810500Y-121274513D01*
X110818995Y-121283008D01*
X111016192Y-121414771D01*
X111235306Y-121505531D01*
X111467916Y-121551800D01*
X111705084Y-121551800D01*
X111937694Y-121505531D01*
X112156808Y-121414771D01*
X112354005Y-121283008D01*
X112521708Y-121115305D01*
X112653471Y-120918108D01*
X112744231Y-120698994D01*
X112790500Y-120466384D01*
X112790500Y-120229216D01*
X112744231Y-119996606D01*
X112653471Y-119777492D01*
X112521708Y-119580295D01*
X112354005Y-119412592D01*
X112300455Y-119376811D01*
X113412545Y-119376811D01*
X113358995Y-119412592D01*
%TA.AperFunction,Conductor*%
D23*
G36*
X113358995Y-119412592D02*
G01*
X113191292Y-119580295D01*
X113059529Y-119777492D01*
X112968769Y-119996606D01*
X112922500Y-120229216D01*
X112922500Y-120466384D01*
X112968769Y-120698994D01*
X113059529Y-120918108D01*
X113191292Y-121115305D01*
X113358995Y-121283008D01*
X113556192Y-121414771D01*
X113775306Y-121505531D01*
X114007916Y-121551800D01*
X114245084Y-121551800D01*
X114477694Y-121505531D01*
X114696808Y-121414771D01*
X114894005Y-121283008D01*
X115061708Y-121115305D01*
X115193471Y-120918108D01*
X115284231Y-120698994D01*
X115330500Y-120466384D01*
X115330500Y-120229216D01*
X115284231Y-119996606D01*
X115246410Y-119905298D01*
X115399909Y-119751799D01*
X115616697Y-119751799D01*
X115599529Y-119777492D01*
X115508769Y-119996606D01*
X115462500Y-120229216D01*
X115462500Y-120466384D01*
X115508769Y-120698994D01*
X115599529Y-120918108D01*
X115731292Y-121115305D01*
X115898995Y-121283008D01*
X116096192Y-121414771D01*
X116315306Y-121505531D01*
X116547916Y-121551800D01*
X116785084Y-121551800D01*
X117017694Y-121505531D01*
X117130400Y-121458847D01*
X117121279Y-121466332D01*
X117071167Y-121507457D01*
X117056167Y-121525735D01*
X116217371Y-122364532D01*
X116131007Y-122235280D01*
X116019020Y-122123293D01*
X115887337Y-122035305D01*
X115741018Y-121974697D01*
X115585687Y-121943800D01*
X115427313Y-121943800D01*
X115271982Y-121974697D01*
X115125663Y-122035305D01*
X114993980Y-122123293D01*
X114881993Y-122235280D01*
X114876300Y-122243800D01*
X111715264Y-122243800D01*
X110810500Y-121339037D01*
X110810500Y-121274513D01*
X110818995Y-121283008D01*
X111016192Y-121414771D01*
X111235306Y-121505531D01*
X111467916Y-121551800D01*
X111705084Y-121551800D01*
X111937694Y-121505531D01*
X112156808Y-121414771D01*
X112354005Y-121283008D01*
X112521708Y-121115305D01*
X112653471Y-120918108D01*
X112744231Y-120698994D01*
X112790500Y-120466384D01*
X112790500Y-120229216D01*
X112744231Y-119996606D01*
X112653471Y-119777492D01*
X112521708Y-119580295D01*
X112354005Y-119412592D01*
X112300455Y-119376811D01*
X113412545Y-119376811D01*
X113358995Y-119412592D01*
G37*
%TD.AperFunction*%
D24*
X124031500Y-118347800D02*
X124051500Y-118347800D01*
X124051500Y-118447800D01*
X124031500Y-118447800D01*
X124031500Y-118467800D01*
X123931500Y-118467800D01*
X123931500Y-118447800D01*
X123911500Y-118447800D01*
X123911500Y-118347800D01*
X123931500Y-118347800D01*
X123931500Y-118327800D01*
X124031500Y-118327800D01*
X124031500Y-118347800D01*
%TA.AperFunction,Conductor*%
D23*
G36*
X124031500Y-118347800D02*
G01*
X124051500Y-118347800D01*
X124051500Y-118447800D01*
X124031500Y-118447800D01*
X124031500Y-118467800D01*
X123931500Y-118467800D01*
X123931500Y-118447800D01*
X123911500Y-118447800D01*
X123911500Y-118347800D01*
X123931500Y-118347800D01*
X123931500Y-118327800D01*
X124031500Y-118327800D01*
X124031500Y-118347800D01*
G37*
%TD.AperFunction*%
D24*
X111016192Y-111660829D02*
X110818995Y-111792592D01*
X110651292Y-111960295D01*
X110519529Y-112157492D01*
X110428769Y-112376606D01*
X110382500Y-112609216D01*
X110382500Y-112846384D01*
X110428769Y-113078994D01*
X110519529Y-113298108D01*
X110651292Y-113495305D01*
X110818995Y-113663008D01*
X110982500Y-113772259D01*
X110982500Y-113898133D01*
X110979578Y-113927800D01*
X110988165Y-114014979D01*
X110991240Y-114046204D01*
X111025777Y-114160058D01*
X111031572Y-114170899D01*
X111003026Y-114194326D01*
X110927668Y-114286150D01*
X110871672Y-114390911D01*
X110837189Y-114504584D01*
X110825546Y-114622800D01*
X110825546Y-115022800D01*
X110837189Y-115141016D01*
X110871672Y-115254689D01*
X110927668Y-115359450D01*
X111003026Y-115451274D01*
X111094850Y-115526632D01*
X111199611Y-115582628D01*
X111313284Y-115617111D01*
X111431500Y-115628754D01*
X111981500Y-115628754D01*
X112099716Y-115617111D01*
X112213389Y-115582628D01*
X112318150Y-115526632D01*
X112409974Y-115451274D01*
X112485332Y-115359450D01*
X112541328Y-115254689D01*
X112575811Y-115141016D01*
X112587454Y-115022800D01*
X112587454Y-114622800D01*
X112575811Y-114504584D01*
X112541328Y-114390911D01*
X112485332Y-114286150D01*
X112409974Y-114194326D01*
X112318150Y-114118968D01*
X112310500Y-114114879D01*
X112310500Y-114077467D01*
X112313422Y-114047800D01*
X112301760Y-113929395D01*
X112290321Y-113891686D01*
X112267223Y-113815541D01*
X112229986Y-113745875D01*
X112354005Y-113663008D01*
X112521708Y-113495305D01*
X112653471Y-113298108D01*
X112744231Y-113078994D01*
X112790500Y-112846384D01*
X112790500Y-112609216D01*
X112744231Y-112376606D01*
X112653471Y-112157492D01*
X112521708Y-111960295D01*
X112354005Y-111792592D01*
X112156808Y-111660829D01*
X111953944Y-111576800D01*
X113759056Y-111576800D01*
X113556192Y-111660829D01*
X113358995Y-111792592D01*
X113191292Y-111960295D01*
X113059529Y-112157492D01*
X112968769Y-112376606D01*
X112922500Y-112609216D01*
X112922500Y-112846384D01*
X112968769Y-113078994D01*
X113059529Y-113298108D01*
X113191292Y-113495305D01*
X113358995Y-113663008D01*
X113556192Y-113794771D01*
X113602501Y-113813953D01*
X113602500Y-114114879D01*
X113594850Y-114118968D01*
X113503026Y-114194326D01*
X113427668Y-114286150D01*
X113371672Y-114390911D01*
X113337189Y-114504584D01*
X113325546Y-114622800D01*
X113325546Y-115022800D01*
X113337189Y-115141016D01*
X113371672Y-115254689D01*
X113427668Y-115359450D01*
X113503026Y-115451274D01*
X113594850Y-115526632D01*
X113699611Y-115582628D01*
X113813284Y-115617111D01*
X113931500Y-115628754D01*
X114481500Y-115628754D01*
X114599716Y-115617111D01*
X114713389Y-115582628D01*
X114818150Y-115526632D01*
X114909974Y-115451274D01*
X114985332Y-115359450D01*
X115041328Y-115254689D01*
X115075811Y-115141016D01*
X115087454Y-115022800D01*
X115087454Y-114622800D01*
X115075811Y-114504584D01*
X115041328Y-114390911D01*
X114985332Y-114286150D01*
X114909974Y-114194326D01*
X114818150Y-114118968D01*
X114810500Y-114114879D01*
X114810500Y-113718804D01*
X114894005Y-113663008D01*
X115061708Y-113495305D01*
X115193471Y-113298108D01*
X115284231Y-113078994D01*
X115330500Y-112846384D01*
X115330500Y-112609216D01*
X115284231Y-112376606D01*
X115193471Y-112157492D01*
X115061708Y-111960295D01*
X114894005Y-111792592D01*
X114696808Y-111660829D01*
X114493944Y-111576800D01*
X116299056Y-111576800D01*
X116096192Y-111660829D01*
X115898995Y-111792592D01*
X115731292Y-111960295D01*
X115599529Y-112157492D01*
X115508769Y-112376606D01*
X115462500Y-112609216D01*
X115462500Y-112846384D01*
X115508769Y-113078994D01*
X115599529Y-113298108D01*
X115731292Y-113495305D01*
X115898995Y-113663008D01*
X116062500Y-113772259D01*
X116062500Y-113978133D01*
X116059578Y-114007800D01*
X116068492Y-114098307D01*
X116071240Y-114126204D01*
X116105777Y-114240058D01*
X116154041Y-114330353D01*
X116121672Y-114390911D01*
X116087189Y-114504584D01*
X116075546Y-114622800D01*
X116075546Y-115022800D01*
X116087189Y-115141016D01*
X116121672Y-115254689D01*
X116177668Y-115359450D01*
X116253026Y-115451274D01*
X116344850Y-115526632D01*
X116449611Y-115582628D01*
X116563284Y-115617111D01*
X116681500Y-115628754D01*
X117231500Y-115628754D01*
X117349716Y-115617111D01*
X117463389Y-115582628D01*
X117568150Y-115526632D01*
X117659974Y-115451274D01*
X117681500Y-115425044D01*
X117703026Y-115451274D01*
X117794850Y-115526632D01*
X117899611Y-115582628D01*
X118013284Y-115617111D01*
X118131500Y-115628754D01*
X118573139Y-115628754D01*
X118535047Y-115666846D01*
X118131500Y-115666846D01*
X118013284Y-115678489D01*
X117899611Y-115712972D01*
X117794850Y-115768968D01*
X117703026Y-115844326D01*
X117681500Y-115870556D01*
X117659974Y-115844326D01*
X117568150Y-115768968D01*
X117463389Y-115712972D01*
X117349716Y-115678489D01*
X117231500Y-115666846D01*
X116681500Y-115666846D01*
X116563284Y-115678489D01*
X116449611Y-115712972D01*
X116344850Y-115768968D01*
X116253026Y-115844326D01*
X116177668Y-115936150D01*
X116121672Y-116040911D01*
X116087189Y-116154584D01*
X116075546Y-116272800D01*
X116075546Y-116672800D01*
X116087189Y-116791016D01*
X116121672Y-116904689D01*
X116177668Y-117009450D01*
X116205812Y-117043744D01*
X115454852Y-117043744D01*
X115087136Y-116676029D01*
X115087454Y-116672800D01*
X115087454Y-116272800D01*
X115075811Y-116154584D01*
X115041328Y-116040911D01*
X114985332Y-115936150D01*
X114909974Y-115844326D01*
X114818150Y-115768968D01*
X114713389Y-115712972D01*
X114599716Y-115678489D01*
X114481500Y-115666846D01*
X113931500Y-115666846D01*
X113813284Y-115678489D01*
X113699611Y-115712972D01*
X113594850Y-115768968D01*
X113503026Y-115844326D01*
X113427668Y-115936150D01*
X113371672Y-116040911D01*
X113337189Y-116154584D01*
X113325546Y-116272800D01*
X113325546Y-116672800D01*
X113337189Y-116791016D01*
X113371672Y-116904689D01*
X113427668Y-117009450D01*
X113503026Y-117101274D01*
X113594850Y-117176632D01*
X113699611Y-117232628D01*
X113813284Y-117267111D01*
X113931500Y-117278754D01*
X114335047Y-117278754D01*
X114450047Y-117393755D01*
X113304863Y-117393755D01*
X112587136Y-116676029D01*
X112587454Y-116672800D01*
X112587454Y-116272800D01*
X112575811Y-116154584D01*
X112541328Y-116040911D01*
X112485332Y-115936150D01*
X112409974Y-115844326D01*
X112318150Y-115768968D01*
X112213389Y-115712972D01*
X112099716Y-115678489D01*
X111981500Y-115666846D01*
X111431500Y-115666846D01*
X111313284Y-115678489D01*
X111199611Y-115712972D01*
X111094850Y-115768968D01*
X111003026Y-115844326D01*
X110927668Y-115936150D01*
X110871672Y-116040911D01*
X110837189Y-116154584D01*
X110825546Y-116272800D01*
X110825546Y-116672800D01*
X110837189Y-116791016D01*
X110871672Y-116904689D01*
X110927668Y-117009450D01*
X110960210Y-117049102D01*
X110587136Y-116676029D01*
X110587454Y-116672800D01*
X110587454Y-116272800D01*
X110575811Y-116154584D01*
X110541328Y-116040911D01*
X110485332Y-115936150D01*
X110409974Y-115844326D01*
X110318150Y-115768968D01*
X110213389Y-115712972D01*
X110099716Y-115678489D01*
X109981500Y-115666846D01*
X109431500Y-115666846D01*
X109313284Y-115678489D01*
X109199611Y-115712972D01*
X109094850Y-115768968D01*
X109003026Y-115844326D01*
X108927668Y-115936150D01*
X108871672Y-116040911D01*
X108837189Y-116154584D01*
X108825546Y-116272800D01*
X108825546Y-116672800D01*
X108827364Y-116691257D01*
X108760500Y-116624393D01*
X108760500Y-115957447D01*
X108818150Y-115926632D01*
X108909974Y-115851274D01*
X108985332Y-115759450D01*
X109041328Y-115654689D01*
X109075811Y-115541016D01*
X109078546Y-115513251D01*
X109094850Y-115526632D01*
X109199611Y-115582628D01*
X109313284Y-115617111D01*
X109431500Y-115628754D01*
X109981500Y-115628754D01*
X110099716Y-115617111D01*
X110213389Y-115582628D01*
X110318150Y-115526632D01*
X110409974Y-115451274D01*
X110485332Y-115359450D01*
X110541328Y-115254689D01*
X110575811Y-115141016D01*
X110587454Y-115022800D01*
X110587454Y-114622800D01*
X110575811Y-114504584D01*
X110541328Y-114390911D01*
X110485332Y-114286150D01*
X110409974Y-114194326D01*
X110318150Y-114118968D01*
X110310500Y-114114879D01*
X110310500Y-113417467D01*
X110313422Y-113387800D01*
X110301760Y-113269395D01*
X110291920Y-113236958D01*
X110267223Y-113155541D01*
X110211137Y-113050612D01*
X110210122Y-113049376D01*
X110250500Y-112846384D01*
X110250500Y-112609216D01*
X110204231Y-112376606D01*
X110113471Y-112157492D01*
X109981708Y-111960295D01*
X109814005Y-111792592D01*
X109616808Y-111660829D01*
X109413944Y-111576800D01*
X111219056Y-111576800D01*
X111016192Y-111660829D01*
%TA.AperFunction,Conductor*%
D23*
G36*
X111016192Y-111660829D02*
G01*
X110818995Y-111792592D01*
X110651292Y-111960295D01*
X110519529Y-112157492D01*
X110428769Y-112376606D01*
X110382500Y-112609216D01*
X110382500Y-112846384D01*
X110428769Y-113078994D01*
X110519529Y-113298108D01*
X110651292Y-113495305D01*
X110818995Y-113663008D01*
X110982500Y-113772259D01*
X110982500Y-113898133D01*
X110979578Y-113927800D01*
X110988165Y-114014979D01*
X110991240Y-114046204D01*
X111025777Y-114160058D01*
X111031572Y-114170899D01*
X111003026Y-114194326D01*
X110927668Y-114286150D01*
X110871672Y-114390911D01*
X110837189Y-114504584D01*
X110825546Y-114622800D01*
X110825546Y-115022800D01*
X110837189Y-115141016D01*
X110871672Y-115254689D01*
X110927668Y-115359450D01*
X111003026Y-115451274D01*
X111094850Y-115526632D01*
X111199611Y-115582628D01*
X111313284Y-115617111D01*
X111431500Y-115628754D01*
X111981500Y-115628754D01*
X112099716Y-115617111D01*
X112213389Y-115582628D01*
X112318150Y-115526632D01*
X112409974Y-115451274D01*
X112485332Y-115359450D01*
X112541328Y-115254689D01*
X112575811Y-115141016D01*
X112587454Y-115022800D01*
X112587454Y-114622800D01*
X112575811Y-114504584D01*
X112541328Y-114390911D01*
X112485332Y-114286150D01*
X112409974Y-114194326D01*
X112318150Y-114118968D01*
X112310500Y-114114879D01*
X112310500Y-114077467D01*
X112313422Y-114047800D01*
X112301760Y-113929395D01*
X112290321Y-113891686D01*
X112267223Y-113815541D01*
X112229986Y-113745875D01*
X112354005Y-113663008D01*
X112521708Y-113495305D01*
X112653471Y-113298108D01*
X112744231Y-113078994D01*
X112790500Y-112846384D01*
X112790500Y-112609216D01*
X112744231Y-112376606D01*
X112653471Y-112157492D01*
X112521708Y-111960295D01*
X112354005Y-111792592D01*
X112156808Y-111660829D01*
X111953944Y-111576800D01*
X113759056Y-111576800D01*
X113556192Y-111660829D01*
X113358995Y-111792592D01*
X113191292Y-111960295D01*
X113059529Y-112157492D01*
X112968769Y-112376606D01*
X112922500Y-112609216D01*
X112922500Y-112846384D01*
X112968769Y-113078994D01*
X113059529Y-113298108D01*
X113191292Y-113495305D01*
X113358995Y-113663008D01*
X113556192Y-113794771D01*
X113602501Y-113813953D01*
X113602500Y-114114879D01*
X113594850Y-114118968D01*
X113503026Y-114194326D01*
X113427668Y-114286150D01*
X113371672Y-114390911D01*
X113337189Y-114504584D01*
X113325546Y-114622800D01*
X113325546Y-115022800D01*
X113337189Y-115141016D01*
X113371672Y-115254689D01*
X113427668Y-115359450D01*
X113503026Y-115451274D01*
X113594850Y-115526632D01*
X113699611Y-115582628D01*
X113813284Y-115617111D01*
X113931500Y-115628754D01*
X114481500Y-115628754D01*
X114599716Y-115617111D01*
X114713389Y-115582628D01*
X114818150Y-115526632D01*
X114909974Y-115451274D01*
X114985332Y-115359450D01*
X115041328Y-115254689D01*
X115075811Y-115141016D01*
X115087454Y-115022800D01*
X115087454Y-114622800D01*
X115075811Y-114504584D01*
X115041328Y-114390911D01*
X114985332Y-114286150D01*
X114909974Y-114194326D01*
X114818150Y-114118968D01*
X114810500Y-114114879D01*
X114810500Y-113718804D01*
X114894005Y-113663008D01*
X115061708Y-113495305D01*
X115193471Y-113298108D01*
X115284231Y-113078994D01*
X115330500Y-112846384D01*
X115330500Y-112609216D01*
X115284231Y-112376606D01*
X115193471Y-112157492D01*
X115061708Y-111960295D01*
X114894005Y-111792592D01*
X114696808Y-111660829D01*
X114493944Y-111576800D01*
X116299056Y-111576800D01*
X116096192Y-111660829D01*
X115898995Y-111792592D01*
X115731292Y-111960295D01*
X115599529Y-112157492D01*
X115508769Y-112376606D01*
X115462500Y-112609216D01*
X115462500Y-112846384D01*
X115508769Y-113078994D01*
X115599529Y-113298108D01*
X115731292Y-113495305D01*
X115898995Y-113663008D01*
X116062500Y-113772259D01*
X116062500Y-113978133D01*
X116059578Y-114007800D01*
X116068492Y-114098307D01*
X116071240Y-114126204D01*
X116105777Y-114240058D01*
X116154041Y-114330353D01*
X116121672Y-114390911D01*
X116087189Y-114504584D01*
X116075546Y-114622800D01*
X116075546Y-115022800D01*
X116087189Y-115141016D01*
X116121672Y-115254689D01*
X116177668Y-115359450D01*
X116253026Y-115451274D01*
X116344850Y-115526632D01*
X116449611Y-115582628D01*
X116563284Y-115617111D01*
X116681500Y-115628754D01*
X117231500Y-115628754D01*
X117349716Y-115617111D01*
X117463389Y-115582628D01*
X117568150Y-115526632D01*
X117659974Y-115451274D01*
X117681500Y-115425044D01*
X117703026Y-115451274D01*
X117794850Y-115526632D01*
X117899611Y-115582628D01*
X118013284Y-115617111D01*
X118131500Y-115628754D01*
X118573139Y-115628754D01*
X118535047Y-115666846D01*
X118131500Y-115666846D01*
X118013284Y-115678489D01*
X117899611Y-115712972D01*
X117794850Y-115768968D01*
X117703026Y-115844326D01*
X117681500Y-115870556D01*
X117659974Y-115844326D01*
X117568150Y-115768968D01*
X117463389Y-115712972D01*
X117349716Y-115678489D01*
X117231500Y-115666846D01*
X116681500Y-115666846D01*
X116563284Y-115678489D01*
X116449611Y-115712972D01*
X116344850Y-115768968D01*
X116253026Y-115844326D01*
X116177668Y-115936150D01*
X116121672Y-116040911D01*
X116087189Y-116154584D01*
X116075546Y-116272800D01*
X116075546Y-116672800D01*
X116087189Y-116791016D01*
X116121672Y-116904689D01*
X116177668Y-117009450D01*
X116205812Y-117043744D01*
X115454852Y-117043744D01*
X115087136Y-116676029D01*
X115087454Y-116672800D01*
X115087454Y-116272800D01*
X115075811Y-116154584D01*
X115041328Y-116040911D01*
X114985332Y-115936150D01*
X114909974Y-115844326D01*
X114818150Y-115768968D01*
X114713389Y-115712972D01*
X114599716Y-115678489D01*
X114481500Y-115666846D01*
X113931500Y-115666846D01*
X113813284Y-115678489D01*
X113699611Y-115712972D01*
X113594850Y-115768968D01*
X113503026Y-115844326D01*
X113427668Y-115936150D01*
X113371672Y-116040911D01*
X113337189Y-116154584D01*
X113325546Y-116272800D01*
X113325546Y-116672800D01*
X113337189Y-116791016D01*
X113371672Y-116904689D01*
X113427668Y-117009450D01*
X113503026Y-117101274D01*
X113594850Y-117176632D01*
X113699611Y-117232628D01*
X113813284Y-117267111D01*
X113931500Y-117278754D01*
X114335047Y-117278754D01*
X114450047Y-117393755D01*
X113304863Y-117393755D01*
X112587136Y-116676029D01*
X112587454Y-116672800D01*
X112587454Y-116272800D01*
X112575811Y-116154584D01*
X112541328Y-116040911D01*
X112485332Y-115936150D01*
X112409974Y-115844326D01*
X112318150Y-115768968D01*
X112213389Y-115712972D01*
X112099716Y-115678489D01*
X111981500Y-115666846D01*
X111431500Y-115666846D01*
X111313284Y-115678489D01*
X111199611Y-115712972D01*
X111094850Y-115768968D01*
X111003026Y-115844326D01*
X110927668Y-115936150D01*
X110871672Y-116040911D01*
X110837189Y-116154584D01*
X110825546Y-116272800D01*
X110825546Y-116672800D01*
X110837189Y-116791016D01*
X110871672Y-116904689D01*
X110927668Y-117009450D01*
X110960210Y-117049102D01*
X110587136Y-116676029D01*
X110587454Y-116672800D01*
X110587454Y-116272800D01*
X110575811Y-116154584D01*
X110541328Y-116040911D01*
X110485332Y-115936150D01*
X110409974Y-115844326D01*
X110318150Y-115768968D01*
X110213389Y-115712972D01*
X110099716Y-115678489D01*
X109981500Y-115666846D01*
X109431500Y-115666846D01*
X109313284Y-115678489D01*
X109199611Y-115712972D01*
X109094850Y-115768968D01*
X109003026Y-115844326D01*
X108927668Y-115936150D01*
X108871672Y-116040911D01*
X108837189Y-116154584D01*
X108825546Y-116272800D01*
X108825546Y-116672800D01*
X108827364Y-116691257D01*
X108760500Y-116624393D01*
X108760500Y-115957447D01*
X108818150Y-115926632D01*
X108909974Y-115851274D01*
X108985332Y-115759450D01*
X109041328Y-115654689D01*
X109075811Y-115541016D01*
X109078546Y-115513251D01*
X109094850Y-115526632D01*
X109199611Y-115582628D01*
X109313284Y-115617111D01*
X109431500Y-115628754D01*
X109981500Y-115628754D01*
X110099716Y-115617111D01*
X110213389Y-115582628D01*
X110318150Y-115526632D01*
X110409974Y-115451274D01*
X110485332Y-115359450D01*
X110541328Y-115254689D01*
X110575811Y-115141016D01*
X110587454Y-115022800D01*
X110587454Y-114622800D01*
X110575811Y-114504584D01*
X110541328Y-114390911D01*
X110485332Y-114286150D01*
X110409974Y-114194326D01*
X110318150Y-114118968D01*
X110310500Y-114114879D01*
X110310500Y-113417467D01*
X110313422Y-113387800D01*
X110301760Y-113269395D01*
X110291920Y-113236958D01*
X110267223Y-113155541D01*
X110211137Y-113050612D01*
X110210122Y-113049376D01*
X110250500Y-112846384D01*
X110250500Y-112609216D01*
X110204231Y-112376606D01*
X110113471Y-112157492D01*
X109981708Y-111960295D01*
X109814005Y-111792592D01*
X109616808Y-111660829D01*
X109413944Y-111576800D01*
X111219056Y-111576800D01*
X111016192Y-111660829D01*
G37*
%TD.AperFunction*%
D24*
X121298331Y-111636217D02*
X121093985Y-111744625D01*
X120914715Y-111890816D01*
X120767410Y-112069172D01*
X120657731Y-112272838D01*
X120589893Y-112493988D01*
X120662557Y-112677800D01*
X121696500Y-112677800D01*
X121696500Y-112657800D01*
X121796500Y-112657800D01*
X121796500Y-112677800D01*
X122830443Y-112677800D01*
X122903107Y-112493988D01*
X122835269Y-112272838D01*
X122725590Y-112069172D01*
X122578285Y-111890816D01*
X122399015Y-111744625D01*
X122194669Y-111636217D01*
X121998786Y-111576800D01*
X123919056Y-111576800D01*
X123716192Y-111660829D01*
X123518995Y-111792592D01*
X123351292Y-111960295D01*
X123219529Y-112157492D01*
X123128769Y-112376606D01*
X123082500Y-112609216D01*
X123082500Y-112846384D01*
X123128769Y-113078994D01*
X123219529Y-113298108D01*
X123351292Y-113495305D01*
X123518995Y-113663008D01*
X123716192Y-113794771D01*
X123935306Y-113885531D01*
X124167916Y-113931800D01*
X124405084Y-113931800D01*
X124637694Y-113885531D01*
X124856808Y-113794771D01*
X125054005Y-113663008D01*
X125221708Y-113495305D01*
X125353471Y-113298108D01*
X125444231Y-113078994D01*
X125490500Y-112846384D01*
X125490500Y-112609216D01*
X125444231Y-112376606D01*
X125353471Y-112157492D01*
X125221708Y-111960295D01*
X125054005Y-111792592D01*
X124856808Y-111660829D01*
X124653944Y-111576800D01*
X126459056Y-111576800D01*
X126256192Y-111660829D01*
X126058995Y-111792592D01*
X125891292Y-111960295D01*
X125759529Y-112157492D01*
X125668769Y-112376606D01*
X125622500Y-112609216D01*
X125622500Y-112846384D01*
X125668769Y-113078994D01*
X125759529Y-113298108D01*
X125891292Y-113495305D01*
X125922500Y-113526513D01*
X125922501Y-114159885D01*
X125887670Y-114274707D01*
X125885388Y-114297874D01*
X125856195Y-114394113D01*
X125795300Y-114375641D01*
X125724926Y-114368710D01*
X125724923Y-114368710D01*
X125701400Y-114366393D01*
X125677877Y-114368710D01*
X120055110Y-114368710D01*
X120031589Y-114366393D01*
X120008068Y-114368710D01*
X120008064Y-114368710D01*
X119937690Y-114375641D01*
X119847398Y-114403031D01*
X119824621Y-114415206D01*
X119764183Y-114447510D01*
X119725298Y-114479423D01*
X119691247Y-114507367D01*
X119676247Y-114525645D01*
X119287454Y-114914438D01*
X119287454Y-114622800D01*
X119275811Y-114504584D01*
X119241328Y-114390911D01*
X119185332Y-114286150D01*
X119109974Y-114194326D01*
X119018150Y-114118968D01*
X119010500Y-114114879D01*
X119010500Y-113916401D01*
X119087916Y-113931800D01*
X119325084Y-113931800D01*
X119557694Y-113885531D01*
X119776808Y-113794771D01*
X119974005Y-113663008D01*
X120141708Y-113495305D01*
X120273471Y-113298108D01*
X120364231Y-113078994D01*
X120387579Y-112961612D01*
X120589893Y-112961612D01*
X120657731Y-113182762D01*
X120767410Y-113386428D01*
X120914715Y-113564784D01*
X121093985Y-113710975D01*
X121298331Y-113819383D01*
X121512689Y-113884404D01*
X121696500Y-113811647D01*
X121696500Y-112777800D01*
X121796500Y-112777800D01*
X121796500Y-113811647D01*
X121980311Y-113884404D01*
X122194669Y-113819383D01*
X122399015Y-113710975D01*
X122578285Y-113564784D01*
X122725590Y-113386428D01*
X122835269Y-113182762D01*
X122903107Y-112961612D01*
X122830443Y-112777800D01*
X121796500Y-112777800D01*
X121696500Y-112777800D01*
X120662557Y-112777800D01*
X120589893Y-112961612D01*
X120387579Y-112961612D01*
X120410500Y-112846384D01*
X120410500Y-112609216D01*
X120364231Y-112376606D01*
X120273471Y-112157492D01*
X120141708Y-111960295D01*
X119974005Y-111792592D01*
X119776808Y-111660829D01*
X119573944Y-111576800D01*
X121494214Y-111576800D01*
X121298331Y-111636217D01*
%TA.AperFunction,Conductor*%
D23*
G36*
X121298331Y-111636217D02*
G01*
X121093985Y-111744625D01*
X120914715Y-111890816D01*
X120767410Y-112069172D01*
X120657731Y-112272838D01*
X120589893Y-112493988D01*
X120662557Y-112677800D01*
X121696500Y-112677800D01*
X121696500Y-112657800D01*
X121796500Y-112657800D01*
X121796500Y-112677800D01*
X122830443Y-112677800D01*
X122903107Y-112493988D01*
X122835269Y-112272838D01*
X122725590Y-112069172D01*
X122578285Y-111890816D01*
X122399015Y-111744625D01*
X122194669Y-111636217D01*
X121998786Y-111576800D01*
X123919056Y-111576800D01*
X123716192Y-111660829D01*
X123518995Y-111792592D01*
X123351292Y-111960295D01*
X123219529Y-112157492D01*
X123128769Y-112376606D01*
X123082500Y-112609216D01*
X123082500Y-112846384D01*
X123128769Y-113078994D01*
X123219529Y-113298108D01*
X123351292Y-113495305D01*
X123518995Y-113663008D01*
X123716192Y-113794771D01*
X123935306Y-113885531D01*
X124167916Y-113931800D01*
X124405084Y-113931800D01*
X124637694Y-113885531D01*
X124856808Y-113794771D01*
X125054005Y-113663008D01*
X125221708Y-113495305D01*
X125353471Y-113298108D01*
X125444231Y-113078994D01*
X125490500Y-112846384D01*
X125490500Y-112609216D01*
X125444231Y-112376606D01*
X125353471Y-112157492D01*
X125221708Y-111960295D01*
X125054005Y-111792592D01*
X124856808Y-111660829D01*
X124653944Y-111576800D01*
X126459056Y-111576800D01*
X126256192Y-111660829D01*
X126058995Y-111792592D01*
X125891292Y-111960295D01*
X125759529Y-112157492D01*
X125668769Y-112376606D01*
X125622500Y-112609216D01*
X125622500Y-112846384D01*
X125668769Y-113078994D01*
X125759529Y-113298108D01*
X125891292Y-113495305D01*
X125922500Y-113526513D01*
X125922501Y-114159885D01*
X125887670Y-114274707D01*
X125885388Y-114297874D01*
X125856195Y-114394113D01*
X125795300Y-114375641D01*
X125724926Y-114368710D01*
X125724923Y-114368710D01*
X125701400Y-114366393D01*
X125677877Y-114368710D01*
X120055110Y-114368710D01*
X120031589Y-114366393D01*
X120008068Y-114368710D01*
X120008064Y-114368710D01*
X119937690Y-114375641D01*
X119847398Y-114403031D01*
X119824621Y-114415206D01*
X119764183Y-114447510D01*
X119725298Y-114479423D01*
X119691247Y-114507367D01*
X119676247Y-114525645D01*
X119287454Y-114914438D01*
X119287454Y-114622800D01*
X119275811Y-114504584D01*
X119241328Y-114390911D01*
X119185332Y-114286150D01*
X119109974Y-114194326D01*
X119018150Y-114118968D01*
X119010500Y-114114879D01*
X119010500Y-113916401D01*
X119087916Y-113931800D01*
X119325084Y-113931800D01*
X119557694Y-113885531D01*
X119776808Y-113794771D01*
X119974005Y-113663008D01*
X120141708Y-113495305D01*
X120273471Y-113298108D01*
X120364231Y-113078994D01*
X120387579Y-112961612D01*
X120589893Y-112961612D01*
X120657731Y-113182762D01*
X120767410Y-113386428D01*
X120914715Y-113564784D01*
X121093985Y-113710975D01*
X121298331Y-113819383D01*
X121512689Y-113884404D01*
X121696500Y-113811647D01*
X121696500Y-112777800D01*
X121796500Y-112777800D01*
X121796500Y-113811647D01*
X121980311Y-113884404D01*
X122194669Y-113819383D01*
X122399015Y-113710975D01*
X122578285Y-113564784D01*
X122725590Y-113386428D01*
X122835269Y-113182762D01*
X122903107Y-112961612D01*
X122830443Y-112777800D01*
X121796500Y-112777800D01*
X121696500Y-112777800D01*
X120662557Y-112777800D01*
X120589893Y-112961612D01*
X120387579Y-112961612D01*
X120410500Y-112846384D01*
X120410500Y-112609216D01*
X120364231Y-112376606D01*
X120273471Y-112157492D01*
X120141708Y-111960295D01*
X119974005Y-111792592D01*
X119776808Y-111660829D01*
X119573944Y-111576800D01*
X121494214Y-111576800D01*
X121298331Y-111636217D01*
G37*
%TD.AperFunction*%
D24*
X128796192Y-111660829D02*
X128598995Y-111792592D01*
X128431292Y-111960295D01*
X128299529Y-112157492D01*
X128208769Y-112376606D01*
X128162500Y-112609216D01*
X128162500Y-112846384D01*
X128208769Y-113078994D01*
X128299529Y-113298108D01*
X128431292Y-113495305D01*
X128598995Y-113663008D01*
X128796192Y-113794771D01*
X128804306Y-113798132D01*
X128731500Y-113790961D01*
X128426500Y-113792800D01*
X128331500Y-113887800D01*
X128331500Y-114597800D01*
X128351500Y-114597800D01*
X128351500Y-114697800D01*
X128331500Y-114697800D01*
X128331500Y-114717800D01*
X128231500Y-114717800D01*
X128231500Y-114697800D01*
X128211500Y-114697800D01*
X128211500Y-114597800D01*
X128231500Y-114597800D01*
X128231500Y-113887800D01*
X128136500Y-113792800D01*
X127831500Y-113790961D01*
X127757007Y-113798298D01*
X127730500Y-113806339D01*
X127730500Y-113526513D01*
X127761708Y-113495305D01*
X127893471Y-113298108D01*
X127984231Y-113078994D01*
X128030500Y-112846384D01*
X128030500Y-112609216D01*
X127984231Y-112376606D01*
X127893471Y-112157492D01*
X127761708Y-111960295D01*
X127594005Y-111792592D01*
X127396808Y-111660829D01*
X127193944Y-111576800D01*
X128999056Y-111576800D01*
X128796192Y-111660829D01*
%TA.AperFunction,Conductor*%
D23*
G36*
X128796192Y-111660829D02*
G01*
X128598995Y-111792592D01*
X128431292Y-111960295D01*
X128299529Y-112157492D01*
X128208769Y-112376606D01*
X128162500Y-112609216D01*
X128162500Y-112846384D01*
X128208769Y-113078994D01*
X128299529Y-113298108D01*
X128431292Y-113495305D01*
X128598995Y-113663008D01*
X128796192Y-113794771D01*
X128804306Y-113798132D01*
X128731500Y-113790961D01*
X128426500Y-113792800D01*
X128331500Y-113887800D01*
X128331500Y-114597800D01*
X128351500Y-114597800D01*
X128351500Y-114697800D01*
X128331500Y-114697800D01*
X128331500Y-114717800D01*
X128231500Y-114717800D01*
X128231500Y-114697800D01*
X128211500Y-114697800D01*
X128211500Y-114597800D01*
X128231500Y-114597800D01*
X128231500Y-113887800D01*
X128136500Y-113792800D01*
X127831500Y-113790961D01*
X127757007Y-113798298D01*
X127730500Y-113806339D01*
X127730500Y-113526513D01*
X127761708Y-113495305D01*
X127893471Y-113298108D01*
X127984231Y-113078994D01*
X128030500Y-112846384D01*
X128030500Y-112609216D01*
X127984231Y-112376606D01*
X127893471Y-112157492D01*
X127761708Y-111960295D01*
X127594005Y-111792592D01*
X127396808Y-111660829D01*
X127193944Y-111576800D01*
X128999056Y-111576800D01*
X128796192Y-111660829D01*
G37*
%TD.AperFunction*%
%TD*%
M02*
