%TF.GenerationSoftware,KiCad,Pcbnew,(5.1.9)-1*%
%TF.CreationDate,2021-10-08T19:18:35+02:00*%
%TF.ProjectId,multi_steering_kenwood_K24MSWK1MA,6d756c74-695f-4737-9465-6572696e675f,rev?*%
%TF.SameCoordinates,Original*%
%TF.FileFunction,Legend,Bot*%
%TF.FilePolarity,Positive*%
%FSLAX46Y46*%
G04 Gerber Fmt 4.6, Leading zero omitted, Abs format (unit mm)*
G04 Created by KiCad (PCBNEW (5.1.9)-1) date 2021-10-08 19:18:35*
%MOMM*%
%LPD*%
G01*
G04 APERTURE LIST*
%ADD10C,0.150000*%
%ADD11C,0.120000*%
G04 APERTURE END LIST*
D10*
X111858880Y-132100180D02*
X111858880Y-131100180D01*
X111287452Y-132100180D02*
X111716023Y-131528752D01*
X111287452Y-131100180D02*
X111858880Y-131671609D01*
X110906500Y-131195419D02*
X110858880Y-131147800D01*
X110763642Y-131100180D01*
X110525547Y-131100180D01*
X110430309Y-131147800D01*
X110382690Y-131195419D01*
X110335071Y-131290657D01*
X110335071Y-131385895D01*
X110382690Y-131528752D01*
X110954119Y-132100180D01*
X110335071Y-132100180D01*
X109477928Y-131433514D02*
X109477928Y-132100180D01*
X109716023Y-131052561D02*
X109954119Y-131766847D01*
X109335071Y-131766847D01*
X108954119Y-131576371D02*
X108620785Y-131576371D01*
X108477928Y-132100180D02*
X108954119Y-132100180D01*
X108954119Y-131100180D01*
X108477928Y-131100180D01*
X107573166Y-132100180D02*
X108049357Y-132100180D01*
X108049357Y-131100180D01*
X107239833Y-131576371D02*
X106906500Y-131576371D01*
X106763642Y-132100180D02*
X107239833Y-132100180D01*
X107239833Y-131100180D01*
X106763642Y-131100180D01*
X105763642Y-132004942D02*
X105811261Y-132052561D01*
X105954119Y-132100180D01*
X106049357Y-132100180D01*
X106192214Y-132052561D01*
X106287452Y-131957323D01*
X106335071Y-131862085D01*
X106382690Y-131671609D01*
X106382690Y-131528752D01*
X106335071Y-131338276D01*
X106287452Y-131243038D01*
X106192214Y-131147800D01*
X106049357Y-131100180D01*
X105954119Y-131100180D01*
X105811261Y-131147800D01*
X105763642Y-131195419D01*
X105477928Y-131100180D02*
X104906500Y-131100180D01*
X105192214Y-132100180D02*
X105192214Y-131100180D01*
X104001738Y-132100180D02*
X104335071Y-131623990D01*
X104573166Y-132100180D02*
X104573166Y-131100180D01*
X104192214Y-131100180D01*
X104096976Y-131147800D01*
X104049357Y-131195419D01*
X104001738Y-131290657D01*
X104001738Y-131433514D01*
X104049357Y-131528752D01*
X104096976Y-131576371D01*
X104192214Y-131623990D01*
X104573166Y-131623990D01*
X103382690Y-131100180D02*
X103192214Y-131100180D01*
X103096976Y-131147800D01*
X103001738Y-131243038D01*
X102954119Y-131433514D01*
X102954119Y-131766847D01*
X103001738Y-131957323D01*
X103096976Y-132052561D01*
X103192214Y-132100180D01*
X103382690Y-132100180D01*
X103477928Y-132052561D01*
X103573166Y-131957323D01*
X103620785Y-131766847D01*
X103620785Y-131433514D01*
X103573166Y-131243038D01*
X103477928Y-131147800D01*
X103382690Y-131100180D01*
X102525547Y-132100180D02*
X102525547Y-131100180D01*
X101954119Y-132100180D01*
X101954119Y-131100180D01*
X101477928Y-132100180D02*
X101477928Y-131100180D01*
X100430309Y-132004942D02*
X100477928Y-132052561D01*
X100620785Y-132100180D01*
X100716023Y-132100180D01*
X100858880Y-132052561D01*
X100954119Y-131957323D01*
X101001738Y-131862085D01*
X101049357Y-131671609D01*
X101049357Y-131528752D01*
X101001738Y-131338276D01*
X100954119Y-131243038D01*
X100858880Y-131147800D01*
X100716023Y-131100180D01*
X100620785Y-131100180D01*
X100477928Y-131147800D01*
X100430309Y-131195419D01*
X100049357Y-132052561D02*
X99906500Y-132100180D01*
X99668404Y-132100180D01*
X99573166Y-132052561D01*
X99525547Y-132004942D01*
X99477928Y-131909704D01*
X99477928Y-131814466D01*
X99525547Y-131719228D01*
X99573166Y-131671609D01*
X99668404Y-131623990D01*
X99858880Y-131576371D01*
X99954119Y-131528752D01*
X100001738Y-131481133D01*
X100049357Y-131385895D01*
X100049357Y-131290657D01*
X100001738Y-131195419D01*
X99954119Y-131147800D01*
X99858880Y-131100180D01*
X99620785Y-131100180D01*
X99477928Y-131147800D01*
X98335071Y-131195419D02*
X98287452Y-131147800D01*
X98192214Y-131100180D01*
X97954119Y-131100180D01*
X97858880Y-131147800D01*
X97811261Y-131195419D01*
X97763642Y-131290657D01*
X97763642Y-131385895D01*
X97811261Y-131528752D01*
X98382690Y-132100180D01*
X97763642Y-132100180D01*
X97144595Y-131100180D02*
X97049357Y-131100180D01*
X96954119Y-131147800D01*
X96906500Y-131195419D01*
X96858880Y-131290657D01*
X96811261Y-131481133D01*
X96811261Y-131719228D01*
X96858880Y-131909704D01*
X96906500Y-132004942D01*
X96954119Y-132052561D01*
X97049357Y-132100180D01*
X97144595Y-132100180D01*
X97239833Y-132052561D01*
X97287452Y-132004942D01*
X97335071Y-131909704D01*
X97382690Y-131719228D01*
X97382690Y-131481133D01*
X97335071Y-131290657D01*
X97287452Y-131195419D01*
X97239833Y-131147800D01*
X97144595Y-131100180D01*
X96430309Y-131195419D02*
X96382690Y-131147800D01*
X96287452Y-131100180D01*
X96049357Y-131100180D01*
X95954119Y-131147800D01*
X95906500Y-131195419D01*
X95858880Y-131290657D01*
X95858880Y-131385895D01*
X95906500Y-131528752D01*
X96477928Y-132100180D01*
X95858880Y-132100180D01*
X94906500Y-132100180D02*
X95477928Y-132100180D01*
X95192214Y-132100180D02*
X95192214Y-131100180D01*
X95287452Y-131243038D01*
X95382690Y-131338276D01*
X95477928Y-131385895D01*
X112154119Y-130214466D02*
X111677928Y-130214466D01*
X112249357Y-130500180D02*
X111916023Y-129500180D01*
X111582690Y-130500180D01*
X110820785Y-129500180D02*
X111011261Y-129500180D01*
X111106500Y-129547800D01*
X111154119Y-129595419D01*
X111249357Y-129738276D01*
X111296976Y-129928752D01*
X111296976Y-130309704D01*
X111249357Y-130404942D01*
X111201738Y-130452561D01*
X111106500Y-130500180D01*
X110916023Y-130500180D01*
X110820785Y-130452561D01*
X110773166Y-130404942D01*
X110725547Y-130309704D01*
X110725547Y-130071609D01*
X110773166Y-129976371D01*
X110820785Y-129928752D01*
X110916023Y-129881133D01*
X111106500Y-129881133D01*
X111201738Y-129928752D01*
X111249357Y-129976371D01*
X111296976Y-130071609D01*
X109725547Y-130404942D02*
X109773166Y-130452561D01*
X109916023Y-130500180D01*
X110011261Y-130500180D01*
X110154119Y-130452561D01*
X110249357Y-130357323D01*
X110296976Y-130262085D01*
X110344595Y-130071609D01*
X110344595Y-129928752D01*
X110296976Y-129738276D01*
X110249357Y-129643038D01*
X110154119Y-129547800D01*
X110011261Y-129500180D01*
X109916023Y-129500180D01*
X109773166Y-129547800D01*
X109725547Y-129595419D01*
X108868404Y-129833514D02*
X108868404Y-130500180D01*
X109106500Y-129452561D02*
X109344595Y-130166847D01*
X108725547Y-130166847D01*
X107630309Y-129452561D02*
X108487452Y-130738276D01*
X107344595Y-130214466D02*
X106868404Y-130214466D01*
X107439833Y-130500180D02*
X107106500Y-129500180D01*
X106773166Y-130500180D01*
X106296976Y-129928752D02*
X106392214Y-129881133D01*
X106439833Y-129833514D01*
X106487452Y-129738276D01*
X106487452Y-129690657D01*
X106439833Y-129595419D01*
X106392214Y-129547800D01*
X106296976Y-129500180D01*
X106106500Y-129500180D01*
X106011261Y-129547800D01*
X105963642Y-129595419D01*
X105916023Y-129690657D01*
X105916023Y-129738276D01*
X105963642Y-129833514D01*
X106011261Y-129881133D01*
X106106500Y-129928752D01*
X106296976Y-129928752D01*
X106392214Y-129976371D01*
X106439833Y-130023990D01*
X106487452Y-130119228D01*
X106487452Y-130309704D01*
X106439833Y-130404942D01*
X106392214Y-130452561D01*
X106296976Y-130500180D01*
X106106500Y-130500180D01*
X106011261Y-130452561D01*
X105963642Y-130404942D01*
X105916023Y-130309704D01*
X105916023Y-130119228D01*
X105963642Y-130023990D01*
X106011261Y-129976371D01*
X106106500Y-129928752D01*
X105487452Y-130500180D02*
X105487452Y-129500180D01*
X105249357Y-129500180D01*
X105106500Y-129547800D01*
X105011261Y-129643038D01*
X104963642Y-129738276D01*
X104916023Y-129928752D01*
X104916023Y-130071609D01*
X104963642Y-130262085D01*
X105011261Y-130357323D01*
X105106500Y-130452561D01*
X105249357Y-130500180D01*
X105487452Y-130500180D01*
X104535071Y-129595419D02*
X104487452Y-129547800D01*
X104392214Y-129500180D01*
X104154119Y-129500180D01*
X104058880Y-129547800D01*
X104011261Y-129595419D01*
X103963642Y-129690657D01*
X103963642Y-129785895D01*
X104011261Y-129928752D01*
X104582690Y-130500180D01*
X103963642Y-130500180D01*
X103201738Y-129976371D02*
X103535071Y-129976371D01*
X103535071Y-130500180D02*
X103535071Y-129500180D01*
X103058880Y-129500180D01*
X102201738Y-130500180D02*
X102677928Y-130500180D01*
X102677928Y-129500180D01*
X101154119Y-129452561D02*
X102011261Y-130738276D01*
X100820785Y-130500180D02*
X100820785Y-129500180D01*
X100249357Y-130500180D02*
X100677928Y-129928752D01*
X100249357Y-129500180D02*
X100820785Y-130071609D01*
X99820785Y-129976371D02*
X99487452Y-129976371D01*
X99344595Y-130500180D02*
X99820785Y-130500180D01*
X99820785Y-129500180D01*
X99344595Y-129500180D01*
X98916023Y-130500180D02*
X98916023Y-129500180D01*
X98344595Y-130500180D01*
X98344595Y-129500180D01*
X97963642Y-129500180D02*
X97725547Y-130500180D01*
X97535071Y-129785895D01*
X97344595Y-130500180D01*
X97106500Y-129500180D01*
X96535071Y-129500180D02*
X96344595Y-129500180D01*
X96249357Y-129547800D01*
X96154119Y-129643038D01*
X96106500Y-129833514D01*
X96106500Y-130166847D01*
X96154119Y-130357323D01*
X96249357Y-130452561D01*
X96344595Y-130500180D01*
X96535071Y-130500180D01*
X96630309Y-130452561D01*
X96725547Y-130357323D01*
X96773166Y-130166847D01*
X96773166Y-129833514D01*
X96725547Y-129643038D01*
X96630309Y-129547800D01*
X96535071Y-129500180D01*
X95487452Y-129500180D02*
X95296976Y-129500180D01*
X95201738Y-129547800D01*
X95106500Y-129643038D01*
X95058880Y-129833514D01*
X95058880Y-130166847D01*
X95106500Y-130357323D01*
X95201738Y-130452561D01*
X95296976Y-130500180D01*
X95487452Y-130500180D01*
X95582690Y-130452561D01*
X95677928Y-130357323D01*
X95725547Y-130166847D01*
X95725547Y-129833514D01*
X95677928Y-129643038D01*
X95582690Y-129547800D01*
X95487452Y-129500180D01*
X94630309Y-130500180D02*
X94630309Y-129500180D01*
X94392214Y-129500180D01*
X94249357Y-129547800D01*
X94154119Y-129643038D01*
X94106500Y-129738276D01*
X94058880Y-129928752D01*
X94058880Y-130071609D01*
X94106500Y-130262085D01*
X94154119Y-130357323D01*
X94249357Y-130452561D01*
X94392214Y-130500180D01*
X94630309Y-130500180D01*
X114430309Y-128900180D02*
X114430309Y-127900180D01*
X114096976Y-128614466D01*
X113763642Y-127900180D01*
X113763642Y-128900180D01*
X113287452Y-127900180D02*
X113287452Y-128709704D01*
X113239833Y-128804942D01*
X113192214Y-128852561D01*
X113096976Y-128900180D01*
X112906500Y-128900180D01*
X112811261Y-128852561D01*
X112763642Y-128804942D01*
X112716023Y-128709704D01*
X112716023Y-127900180D01*
X111763642Y-128900180D02*
X112239833Y-128900180D01*
X112239833Y-127900180D01*
X111573166Y-127900180D02*
X111001738Y-127900180D01*
X111287452Y-128900180D02*
X111287452Y-127900180D01*
X110668404Y-128900180D02*
X110668404Y-127900180D01*
X109858880Y-128376371D02*
X110192214Y-128376371D01*
X110192214Y-128900180D02*
X110192214Y-127900180D01*
X109716023Y-127900180D01*
X109335071Y-127900180D02*
X109335071Y-128709704D01*
X109287452Y-128804942D01*
X109239833Y-128852561D01*
X109144595Y-128900180D01*
X108954119Y-128900180D01*
X108858880Y-128852561D01*
X108811261Y-128804942D01*
X108763642Y-128709704D01*
X108763642Y-127900180D01*
X108287452Y-128900180D02*
X108287452Y-127900180D01*
X107716023Y-128900180D01*
X107716023Y-127900180D01*
X106668404Y-128804942D02*
X106716023Y-128852561D01*
X106858880Y-128900180D01*
X106954119Y-128900180D01*
X107096976Y-128852561D01*
X107192214Y-128757323D01*
X107239833Y-128662085D01*
X107287452Y-128471609D01*
X107287452Y-128328752D01*
X107239833Y-128138276D01*
X107192214Y-128043038D01*
X107096976Y-127947800D01*
X106954119Y-127900180D01*
X106858880Y-127900180D01*
X106716023Y-127947800D01*
X106668404Y-127995419D01*
X106382690Y-127900180D02*
X105811261Y-127900180D01*
X106096976Y-128900180D02*
X106096976Y-127900180D01*
X105477928Y-128900180D02*
X105477928Y-127900180D01*
X104811261Y-127900180D02*
X104620785Y-127900180D01*
X104525547Y-127947800D01*
X104430309Y-128043038D01*
X104382690Y-128233514D01*
X104382690Y-128566847D01*
X104430309Y-128757323D01*
X104525547Y-128852561D01*
X104620785Y-128900180D01*
X104811261Y-128900180D01*
X104906500Y-128852561D01*
X105001738Y-128757323D01*
X105049357Y-128566847D01*
X105049357Y-128233514D01*
X105001738Y-128043038D01*
X104906500Y-127947800D01*
X104811261Y-127900180D01*
X103954119Y-128900180D02*
X103954119Y-127900180D01*
X103382690Y-128900180D01*
X103382690Y-127900180D01*
X102192214Y-128852561D02*
X102049357Y-128900180D01*
X101811261Y-128900180D01*
X101716023Y-128852561D01*
X101668404Y-128804942D01*
X101620785Y-128709704D01*
X101620785Y-128614466D01*
X101668404Y-128519228D01*
X101716023Y-128471609D01*
X101811261Y-128423990D01*
X102001738Y-128376371D01*
X102096976Y-128328752D01*
X102144595Y-128281133D01*
X102192214Y-128185895D01*
X102192214Y-128090657D01*
X102144595Y-127995419D01*
X102096976Y-127947800D01*
X102001738Y-127900180D01*
X101763642Y-127900180D01*
X101620785Y-127947800D01*
X101335071Y-127900180D02*
X100763642Y-127900180D01*
X101049357Y-128900180D02*
X101049357Y-127900180D01*
X100430309Y-128376371D02*
X100096976Y-128376371D01*
X99954119Y-128900180D02*
X100430309Y-128900180D01*
X100430309Y-127900180D01*
X99954119Y-127900180D01*
X99525547Y-128376371D02*
X99192214Y-128376371D01*
X99049357Y-128900180D02*
X99525547Y-128900180D01*
X99525547Y-127900180D01*
X99049357Y-127900180D01*
X98049357Y-128900180D02*
X98382690Y-128423990D01*
X98620785Y-128900180D02*
X98620785Y-127900180D01*
X98239833Y-127900180D01*
X98144595Y-127947800D01*
X98096976Y-127995419D01*
X98049357Y-128090657D01*
X98049357Y-128233514D01*
X98096976Y-128328752D01*
X98144595Y-128376371D01*
X98239833Y-128423990D01*
X98620785Y-128423990D01*
X97620785Y-128900180D02*
X97620785Y-127900180D01*
X97144595Y-128900180D02*
X97144595Y-127900180D01*
X96573166Y-128900180D01*
X96573166Y-127900180D01*
X95573166Y-127947800D02*
X95668404Y-127900180D01*
X95811261Y-127900180D01*
X95954119Y-127947800D01*
X96049357Y-128043038D01*
X96096976Y-128138276D01*
X96144595Y-128328752D01*
X96144595Y-128471609D01*
X96096976Y-128662085D01*
X96049357Y-128757323D01*
X95954119Y-128852561D01*
X95811261Y-128900180D01*
X95716023Y-128900180D01*
X95573166Y-128852561D01*
X95525547Y-128804942D01*
X95525547Y-128471609D01*
X95716023Y-128471609D01*
X93763642Y-128804942D02*
X93811261Y-128852561D01*
X93954119Y-128900180D01*
X94049357Y-128900180D01*
X94192214Y-128852561D01*
X94287452Y-128757323D01*
X94335071Y-128662085D01*
X94382690Y-128471609D01*
X94382690Y-128328752D01*
X94335071Y-128138276D01*
X94287452Y-128043038D01*
X94192214Y-127947800D01*
X94049357Y-127900180D01*
X93954119Y-127900180D01*
X93811261Y-127947800D01*
X93763642Y-127995419D01*
X93144595Y-127900180D02*
X92954119Y-127900180D01*
X92858880Y-127947800D01*
X92763642Y-128043038D01*
X92716023Y-128233514D01*
X92716023Y-128566847D01*
X92763642Y-128757323D01*
X92858880Y-128852561D01*
X92954119Y-128900180D01*
X93144595Y-128900180D01*
X93239833Y-128852561D01*
X93335071Y-128757323D01*
X93382690Y-128566847D01*
X93382690Y-128233514D01*
X93335071Y-128043038D01*
X93239833Y-127947800D01*
X93144595Y-127900180D01*
X92287452Y-128900180D02*
X92287452Y-127900180D01*
X91716023Y-128900180D01*
X91716023Y-127900180D01*
X91382690Y-127900180D02*
X90811261Y-127900180D01*
X91096976Y-128900180D02*
X91096976Y-127900180D01*
X89906500Y-128900180D02*
X90239833Y-128423990D01*
X90477928Y-128900180D02*
X90477928Y-127900180D01*
X90096976Y-127900180D01*
X90001738Y-127947800D01*
X89954119Y-127995419D01*
X89906500Y-128090657D01*
X89906500Y-128233514D01*
X89954119Y-128328752D01*
X90001738Y-128376371D01*
X90096976Y-128423990D01*
X90477928Y-128423990D01*
X89287452Y-127900180D02*
X89096976Y-127900180D01*
X89001738Y-127947800D01*
X88906500Y-128043038D01*
X88858880Y-128233514D01*
X88858880Y-128566847D01*
X88906500Y-128757323D01*
X89001738Y-128852561D01*
X89096976Y-128900180D01*
X89287452Y-128900180D01*
X89382690Y-128852561D01*
X89477928Y-128757323D01*
X89525547Y-128566847D01*
X89525547Y-128233514D01*
X89477928Y-128043038D01*
X89382690Y-127947800D01*
X89287452Y-127900180D01*
X87954119Y-128900180D02*
X88430309Y-128900180D01*
X88430309Y-127900180D01*
X87144595Y-128900180D02*
X87620785Y-128900180D01*
X87620785Y-127900180D01*
X86811261Y-128376371D02*
X86477928Y-128376371D01*
X86335071Y-128900180D02*
X86811261Y-128900180D01*
X86811261Y-127900180D01*
X86335071Y-127900180D01*
X85335071Y-128900180D02*
X85668404Y-128423990D01*
X85906500Y-128900180D02*
X85906500Y-127900180D01*
X85525547Y-127900180D01*
X85430309Y-127947800D01*
X85382690Y-127995419D01*
X85335071Y-128090657D01*
X85335071Y-128233514D01*
X85382690Y-128328752D01*
X85430309Y-128376371D01*
X85525547Y-128423990D01*
X85906500Y-128423990D01*
X105716023Y-127400180D02*
X105716023Y-126400180D01*
X105144595Y-127400180D02*
X105573166Y-126828752D01*
X105144595Y-126400180D02*
X105716023Y-126971609D01*
X104763642Y-126495419D02*
X104716023Y-126447800D01*
X104620785Y-126400180D01*
X104382690Y-126400180D01*
X104287452Y-126447800D01*
X104239833Y-126495419D01*
X104192214Y-126590657D01*
X104192214Y-126685895D01*
X104239833Y-126828752D01*
X104811261Y-127400180D01*
X104192214Y-127400180D01*
X103335071Y-126733514D02*
X103335071Y-127400180D01*
X103573166Y-126352561D02*
X103811261Y-127066847D01*
X103192214Y-127066847D01*
X102811261Y-127400180D02*
X102811261Y-126400180D01*
X102477928Y-127114466D01*
X102144595Y-126400180D01*
X102144595Y-127400180D01*
X101716023Y-127352561D02*
X101573166Y-127400180D01*
X101335071Y-127400180D01*
X101239833Y-127352561D01*
X101192214Y-127304942D01*
X101144595Y-127209704D01*
X101144595Y-127114466D01*
X101192214Y-127019228D01*
X101239833Y-126971609D01*
X101335071Y-126923990D01*
X101525547Y-126876371D01*
X101620785Y-126828752D01*
X101668404Y-126781133D01*
X101716023Y-126685895D01*
X101716023Y-126590657D01*
X101668404Y-126495419D01*
X101620785Y-126447800D01*
X101525547Y-126400180D01*
X101287452Y-126400180D01*
X101144595Y-126447800D01*
X100811261Y-126400180D02*
X100573166Y-127400180D01*
X100382690Y-126685895D01*
X100192214Y-127400180D01*
X99954119Y-126400180D01*
X99573166Y-127400180D02*
X99573166Y-126400180D01*
X99001738Y-127400180D02*
X99430309Y-126828752D01*
X99001738Y-126400180D02*
X99573166Y-126971609D01*
X98049357Y-127400180D02*
X98620785Y-127400180D01*
X98335071Y-127400180D02*
X98335071Y-126400180D01*
X98430309Y-126543038D01*
X98525547Y-126638276D01*
X98620785Y-126685895D01*
X97620785Y-127400180D02*
X97620785Y-126400180D01*
X97287452Y-127114466D01*
X96954119Y-126400180D01*
X96954119Y-127400180D01*
X96525547Y-127114466D02*
X96049357Y-127114466D01*
X96620785Y-127400180D02*
X96287452Y-126400180D01*
X95954119Y-127400180D01*
D11*
%TO.C,R11*%
X107693758Y-114625300D02*
X107219242Y-114625300D01*
X107693758Y-115670300D02*
X107219242Y-115670300D01*
%TO.C,R10*%
X107447080Y-117637800D02*
X107165920Y-117637800D01*
X107447080Y-118657800D02*
X107165920Y-118657800D01*
%TO.C,R9*%
X110229000Y-115885058D02*
X110229000Y-115410542D01*
X109184000Y-115885058D02*
X109184000Y-115410542D01*
%TO.C,R8*%
X112229000Y-115885058D02*
X112229000Y-115410542D01*
X111184000Y-115885058D02*
X111184000Y-115410542D01*
%TO.C,R7*%
X114729000Y-115885058D02*
X114729000Y-115410542D01*
X113684000Y-115885058D02*
X113684000Y-115410542D01*
%TO.C,R6*%
X117479000Y-115885058D02*
X117479000Y-115410542D01*
X116434000Y-115885058D02*
X116434000Y-115410542D01*
%TO.C,R5*%
X118929000Y-115885058D02*
X118929000Y-115410542D01*
X117884000Y-115885058D02*
X117884000Y-115410542D01*
%TO.C,C7*%
X123065920Y-118907800D02*
X123347080Y-118907800D01*
X123065920Y-117887800D02*
X123347080Y-117887800D01*
%TO.C,C6*%
X127365920Y-115157800D02*
X127647080Y-115157800D01*
X127365920Y-114137800D02*
X127647080Y-114137800D01*
%TO.C,R11*%
D10*
X105149357Y-115600180D02*
X105482690Y-115123990D01*
X105720785Y-115600180D02*
X105720785Y-114600180D01*
X105339833Y-114600180D01*
X105244595Y-114647800D01*
X105196976Y-114695419D01*
X105149357Y-114790657D01*
X105149357Y-114933514D01*
X105196976Y-115028752D01*
X105244595Y-115076371D01*
X105339833Y-115123990D01*
X105720785Y-115123990D01*
X104196976Y-115600180D02*
X104768404Y-115600180D01*
X104482690Y-115600180D02*
X104482690Y-114600180D01*
X104577928Y-114743038D01*
X104673166Y-114838276D01*
X104768404Y-114885895D01*
X103244595Y-115600180D02*
X103816023Y-115600180D01*
X103530309Y-115600180D02*
X103530309Y-114600180D01*
X103625547Y-114743038D01*
X103720785Y-114838276D01*
X103816023Y-114885895D01*
%TO.C,R10*%
X105049357Y-118700180D02*
X105382690Y-118223990D01*
X105620785Y-118700180D02*
X105620785Y-117700180D01*
X105239833Y-117700180D01*
X105144595Y-117747800D01*
X105096976Y-117795419D01*
X105049357Y-117890657D01*
X105049357Y-118033514D01*
X105096976Y-118128752D01*
X105144595Y-118176371D01*
X105239833Y-118223990D01*
X105620785Y-118223990D01*
X104096976Y-118700180D02*
X104668404Y-118700180D01*
X104382690Y-118700180D02*
X104382690Y-117700180D01*
X104477928Y-117843038D01*
X104573166Y-117938276D01*
X104668404Y-117985895D01*
X103477928Y-117700180D02*
X103382690Y-117700180D01*
X103287452Y-117747800D01*
X103239833Y-117795419D01*
X103192214Y-117890657D01*
X103144595Y-118081133D01*
X103144595Y-118319228D01*
X103192214Y-118509704D01*
X103239833Y-118604942D01*
X103287452Y-118652561D01*
X103382690Y-118700180D01*
X103477928Y-118700180D01*
X103573166Y-118652561D01*
X103620785Y-118604942D01*
X103668404Y-118509704D01*
X103716023Y-118319228D01*
X103716023Y-118081133D01*
X103668404Y-117890657D01*
X103620785Y-117795419D01*
X103573166Y-117747800D01*
X103477928Y-117700180D01*
%TO.C,R9*%
X110158880Y-117981133D02*
X109682690Y-117647800D01*
X110158880Y-117409704D02*
X109158880Y-117409704D01*
X109158880Y-117790657D01*
X109206500Y-117885895D01*
X109254119Y-117933514D01*
X109349357Y-117981133D01*
X109492214Y-117981133D01*
X109587452Y-117933514D01*
X109635071Y-117885895D01*
X109682690Y-117790657D01*
X109682690Y-117409704D01*
X110158880Y-118457323D02*
X110158880Y-118647800D01*
X110111261Y-118743038D01*
X110063642Y-118790657D01*
X109920785Y-118885895D01*
X109730309Y-118933514D01*
X109349357Y-118933514D01*
X109254119Y-118885895D01*
X109206500Y-118838276D01*
X109158880Y-118743038D01*
X109158880Y-118552561D01*
X109206500Y-118457323D01*
X109254119Y-118409704D01*
X109349357Y-118362085D01*
X109587452Y-118362085D01*
X109682690Y-118409704D01*
X109730309Y-118457323D01*
X109777928Y-118552561D01*
X109777928Y-118743038D01*
X109730309Y-118838276D01*
X109682690Y-118885895D01*
X109587452Y-118933514D01*
%TO.C,R8*%
X112158880Y-117981133D02*
X111682690Y-117647800D01*
X112158880Y-117409704D02*
X111158880Y-117409704D01*
X111158880Y-117790657D01*
X111206500Y-117885895D01*
X111254119Y-117933514D01*
X111349357Y-117981133D01*
X111492214Y-117981133D01*
X111587452Y-117933514D01*
X111635071Y-117885895D01*
X111682690Y-117790657D01*
X111682690Y-117409704D01*
X111587452Y-118552561D02*
X111539833Y-118457323D01*
X111492214Y-118409704D01*
X111396976Y-118362085D01*
X111349357Y-118362085D01*
X111254119Y-118409704D01*
X111206500Y-118457323D01*
X111158880Y-118552561D01*
X111158880Y-118743038D01*
X111206500Y-118838276D01*
X111254119Y-118885895D01*
X111349357Y-118933514D01*
X111396976Y-118933514D01*
X111492214Y-118885895D01*
X111539833Y-118838276D01*
X111587452Y-118743038D01*
X111587452Y-118552561D01*
X111635071Y-118457323D01*
X111682690Y-118409704D01*
X111777928Y-118362085D01*
X111968404Y-118362085D01*
X112063642Y-118409704D01*
X112111261Y-118457323D01*
X112158880Y-118552561D01*
X112158880Y-118743038D01*
X112111261Y-118838276D01*
X112063642Y-118885895D01*
X111968404Y-118933514D01*
X111777928Y-118933514D01*
X111682690Y-118885895D01*
X111635071Y-118838276D01*
X111587452Y-118743038D01*
%TO.C,R7*%
X114758880Y-117981133D02*
X114282690Y-117647800D01*
X114758880Y-117409704D02*
X113758880Y-117409704D01*
X113758880Y-117790657D01*
X113806500Y-117885895D01*
X113854119Y-117933514D01*
X113949357Y-117981133D01*
X114092214Y-117981133D01*
X114187452Y-117933514D01*
X114235071Y-117885895D01*
X114282690Y-117790657D01*
X114282690Y-117409704D01*
X113758880Y-118314466D02*
X113758880Y-118981133D01*
X114758880Y-118552561D01*
%TO.C,R6*%
X117458880Y-117981133D02*
X116982690Y-117647800D01*
X117458880Y-117409704D02*
X116458880Y-117409704D01*
X116458880Y-117790657D01*
X116506500Y-117885895D01*
X116554119Y-117933514D01*
X116649357Y-117981133D01*
X116792214Y-117981133D01*
X116887452Y-117933514D01*
X116935071Y-117885895D01*
X116982690Y-117790657D01*
X116982690Y-117409704D01*
X116458880Y-118838276D02*
X116458880Y-118647800D01*
X116506500Y-118552561D01*
X116554119Y-118504942D01*
X116696976Y-118409704D01*
X116887452Y-118362085D01*
X117268404Y-118362085D01*
X117363642Y-118409704D01*
X117411261Y-118457323D01*
X117458880Y-118552561D01*
X117458880Y-118743038D01*
X117411261Y-118838276D01*
X117363642Y-118885895D01*
X117268404Y-118933514D01*
X117030309Y-118933514D01*
X116935071Y-118885895D01*
X116887452Y-118838276D01*
X116839833Y-118743038D01*
X116839833Y-118552561D01*
X116887452Y-118457323D01*
X116935071Y-118409704D01*
X117030309Y-118362085D01*
%TO.C,R5*%
X118958880Y-117981133D02*
X118482690Y-117647800D01*
X118958880Y-117409704D02*
X117958880Y-117409704D01*
X117958880Y-117790657D01*
X118006500Y-117885895D01*
X118054119Y-117933514D01*
X118149357Y-117981133D01*
X118292214Y-117981133D01*
X118387452Y-117933514D01*
X118435071Y-117885895D01*
X118482690Y-117790657D01*
X118482690Y-117409704D01*
X117958880Y-118885895D02*
X117958880Y-118409704D01*
X118435071Y-118362085D01*
X118387452Y-118409704D01*
X118339833Y-118504942D01*
X118339833Y-118743038D01*
X118387452Y-118838276D01*
X118435071Y-118885895D01*
X118530309Y-118933514D01*
X118768404Y-118933514D01*
X118863642Y-118885895D01*
X118911261Y-118838276D01*
X118958880Y-118743038D01*
X118958880Y-118504942D01*
X118911261Y-118409704D01*
X118863642Y-118362085D01*
%TO.C,C7*%
X125873166Y-118804942D02*
X125920785Y-118852561D01*
X126063642Y-118900180D01*
X126158880Y-118900180D01*
X126301738Y-118852561D01*
X126396976Y-118757323D01*
X126444595Y-118662085D01*
X126492214Y-118471609D01*
X126492214Y-118328752D01*
X126444595Y-118138276D01*
X126396976Y-118043038D01*
X126301738Y-117947800D01*
X126158880Y-117900180D01*
X126063642Y-117900180D01*
X125920785Y-117947800D01*
X125873166Y-117995419D01*
X125539833Y-117900180D02*
X124873166Y-117900180D01*
X125301738Y-118900180D01*
%TO.C,C6*%
X125173166Y-115104942D02*
X125220785Y-115152561D01*
X125363642Y-115200180D01*
X125458880Y-115200180D01*
X125601738Y-115152561D01*
X125696976Y-115057323D01*
X125744595Y-114962085D01*
X125792214Y-114771609D01*
X125792214Y-114628752D01*
X125744595Y-114438276D01*
X125696976Y-114343038D01*
X125601738Y-114247800D01*
X125458880Y-114200180D01*
X125363642Y-114200180D01*
X125220785Y-114247800D01*
X125173166Y-114295419D01*
X124316023Y-114200180D02*
X124506500Y-114200180D01*
X124601738Y-114247800D01*
X124649357Y-114295419D01*
X124744595Y-114438276D01*
X124792214Y-114628752D01*
X124792214Y-115009704D01*
X124744595Y-115104942D01*
X124696976Y-115152561D01*
X124601738Y-115200180D01*
X124411261Y-115200180D01*
X124316023Y-115152561D01*
X124268404Y-115104942D01*
X124220785Y-115009704D01*
X124220785Y-114771609D01*
X124268404Y-114676371D01*
X124316023Y-114628752D01*
X124411261Y-114581133D01*
X124601738Y-114581133D01*
X124696976Y-114628752D01*
X124744595Y-114676371D01*
X124792214Y-114771609D01*
%TD*%
M02*
